<svg xmlns="http://www.w3.org/2000/svg" xmlns:xlink="http://www.w3.org/1999/xlink" width="82" zoomAndPan="magnify" viewBox="0 0 61.5 61.499996" height="82" preserveAspectRatio="xMidYMid meet" version="1.0"><defs><clipPath id="b04d7351fe"><path d="M 0 0 L 61.003906 0 L 61.003906 61.003906 L 0 61.003906 Z M 0 0 " clip-rule="nonzero"/></clipPath><clipPath id="34d46fa754"><path d="M 30.503906 0 C 13.65625 0 0 13.65625 0 30.503906 C 0 47.347656 13.65625 61.003906 30.503906 61.003906 C 47.347656 61.003906 61.003906 47.347656 61.003906 30.503906 C 61.003906 13.65625 47.347656 0 30.503906 0 Z M 30.503906 0 " clip-rule="nonzero"/></clipPath><clipPath id="b6b38b5019"><path d="M 0 0 L 61.003906 0 L 61.003906 61.003906 L 0 61.003906 Z M 0 0 " clip-rule="nonzero"/></clipPath><clipPath id="842900a94a"><path d="M 30.503906 0 C 13.65625 0 0 13.65625 0 30.503906 C 0 47.347656 13.65625 61.003906 30.503906 61.003906 C 47.347656 61.003906 61.003906 47.347656 61.003906 30.503906 C 61.003906 13.65625 47.347656 0 30.503906 0 Z M 30.503906 0 " clip-rule="nonzero"/></clipPath><clipPath id="ec665a0f7d"><rect x="0" width="62" y="0" height="62"/></clipPath><clipPath id="b54956bc8b"><path d="M 7.535156 16.894531 L 53.660156 16.894531 L 53.660156 44.421875 L 7.535156 44.421875 Z M 7.535156 16.894531 " clip-rule="nonzero"/></clipPath></defs><g clip-path="url(#b04d7351fe)"><g clip-path="url(#34d46fa754)"><g transform="matrix(1, 0, 0, 1, -0, 0.000000000000013145)"><g clip-path="url(#ec665a0f7d)"><g clip-path="url(#b6b38b5019)"><g clip-path="url(#842900a94a)"><path fill="#fcffff" d="M 0 0 L 61.003906 0 L 61.003906 61.003906 L 0 61.003906 Z M 0 0 " fill-opacity="1" fill-rule="nonzero"/></g></g></g></g></g></g><g clip-path="url(#b54956bc8b)"><path fill="#0891a6" d="M 48.675781 27.664062 C 49.519531 26.886719 50.058594 25.78125 50.058594 24.546875 C 50.058594 22.203125 48.148438 20.296875 45.804688 20.296875 C 43.460938 20.296875 41.554688 22.203125 41.554688 24.546875 C 41.554688 25.78125 42.089844 26.886719 42.933594 27.664062 C 40.597656 28.613281 38.835938 30.675781 38.3125 33.195312 C 37.152344 32.292969 35.835938 31.578125 34.402344 31.117188 C 36.644531 29.78125 38.152344 27.339844 38.152344 24.546875 C 38.152344 20.328125 34.71875 16.894531 30.5 16.894531 C 26.277344 16.894531 22.84375 20.328125 22.84375 24.546875 C 22.84375 27.339844 24.351562 29.78125 26.59375 31.117188 C 25.160156 31.578125 23.847656 32.292969 22.683594 33.195312 C 22.164062 30.675781 20.398438 28.613281 18.0625 27.664062 C 18.90625 26.886719 19.445312 25.78125 19.445312 24.546875 C 19.445312 22.203125 17.535156 20.296875 15.191406 20.296875 C 12.847656 20.296875 10.941406 22.203125 10.941406 24.546875 C 10.941406 25.78125 11.476562 26.886719 12.320312 27.664062 C 9.519531 28.800781 7.539062 31.546875 7.539062 34.753906 C 7.539062 35.222656 7.917969 35.601562 8.386719 35.601562 C 8.859375 35.601562 9.238281 35.222656 9.238281 34.753906 C 9.238281 31.46875 11.910156 28.800781 15.191406 28.800781 C 18.429688 28.800781 21.066406 31.398438 21.136719 34.621094 C 19.039062 36.894531 17.742188 39.921875 17.742188 43.257812 C 17.742188 43.726562 18.125 44.105469 18.59375 44.105469 C 19.0625 44.105469 19.445312 43.726562 19.445312 43.257812 C 19.445312 37.160156 24.402344 32.199219 30.5 32.199219 C 36.59375 32.199219 41.554688 37.160156 41.554688 43.257812 C 41.554688 43.726562 41.933594 44.105469 42.402344 44.105469 C 42.875 44.105469 43.253906 43.726562 43.253906 43.257812 C 43.253906 39.921875 41.960938 36.894531 39.859375 34.621094 C 39.929688 31.398438 42.566406 28.800781 45.804688 28.800781 C 49.085938 28.800781 51.757812 31.46875 51.757812 34.753906 C 51.757812 35.222656 52.136719 35.601562 52.609375 35.601562 C 53.078125 35.601562 53.460938 35.222656 53.460938 34.753906 C 53.460938 31.546875 51.476562 28.800781 48.675781 27.664062 Z M 12.640625 24.546875 C 12.640625 23.140625 13.785156 21.996094 15.191406 21.996094 C 16.597656 21.996094 17.742188 23.140625 17.742188 24.546875 C 17.742188 25.953125 16.597656 27.097656 15.191406 27.097656 C 13.785156 27.097656 12.640625 25.953125 12.640625 24.546875 Z M 24.546875 24.546875 C 24.546875 21.265625 27.214844 18.59375 30.5 18.59375 C 33.78125 18.59375 36.453125 21.265625 36.453125 24.546875 C 36.453125 27.828125 33.78125 30.5 30.5 30.5 C 27.214844 30.5 24.546875 27.828125 24.546875 24.546875 Z M 43.253906 24.546875 C 43.253906 23.140625 44.398438 21.996094 45.804688 21.996094 C 47.210938 21.996094 48.355469 23.140625 48.355469 24.546875 C 48.355469 25.953125 47.210938 27.097656 45.804688 27.097656 C 44.398438 27.097656 43.253906 25.953125 43.253906 24.546875 Z M 43.253906 24.546875 " fill-opacity="1" fill-rule="nonzero"/></g></svg>