<svg xmlns="http://www.w3.org/2000/svg" xmlns:xlink="http://www.w3.org/1999/xlink" width="82" zoomAndPan="magnify" viewBox="0 0 61.5 61.499996" height="82" preserveAspectRatio="xMidYMid meet" version="1.0"><path fill="#0891a6" d="M 12.96875 5.382812 C 5.898438 5.382812 0.140625 11.152344 0.140625 18.210938 L 0.140625 48.144531 C 0.140625 55.214844 5.898438 60.96875 12.96875 60.96875 L 42.902344 60.96875 C 49.972656 60.96875 55.730469 55.214844 55.730469 48.144531 L 55.730469 35.316406 C 55.730469 34.132812 54.773438 33.175781 53.59375 33.175781 C 52.410156 33.175781 51.453125 34.132812 51.453125 35.316406 L 51.453125 48.144531 C 51.453125 52.917969 47.679688 56.695312 42.902344 56.695312 L 12.96875 56.695312 C 8.203125 56.695312 4.417969 52.917969 4.417969 48.144531 L 4.417969 18.210938 C 4.417969 13.445312 8.203125 9.660156 12.96875 9.660156 L 25.796875 9.660156 C 26.980469 9.660156 27.9375 8.703125 27.9375 7.519531 C 27.9375 6.339844 26.980469 5.382812 25.796875 5.382812 Z M 12.96875 5.382812 " fill-opacity="1" fill-rule="nonzero"/><path fill="#0891a6" d="M 43.59375 3.914062 L 18.78125 28.722656 C 18.449219 29.054688 18.238281 29.492188 18.183594 29.949219 L 16.554688 41.882812 C 16.367188 43.265625 17.523438 44.445312 18.917969 44.300781 L 31.109375 42.941406 C 31.601562 42.886719 32.046875 42.675781 32.390625 42.328125 L 57.199219 17.53125 C 60.941406 13.777344 60.941406 7.664062 57.199219 3.914062 C 53.527344 0.0820312 47.191406 0.425781 43.59375 3.914062 Z M 54.171875 6.941406 C 56.285156 9.058594 56.285156 12.375 54.171875 14.503906 L 51.898438 16.773438 L 44.351562 9.214844 L 46.609375 6.941406 C 49.09375 4.457031 52.15625 4.925781 54.171875 6.941406 Z M 41.320312 12.230469 L 48.882812 19.792969 L 29.894531 38.777344 L 21.167969 39.746094 L 22.3125 31.238281 Z M 41.320312 12.230469 " fill-opacity="1" fill-rule="nonzero"/></svg>