<svg xmlns="http://www.w3.org/2000/svg" xmlns:xlink="http://www.w3.org/1999/xlink" width="82" zoomAndPan="magnify" viewBox="0 0 61.5 61.499996" height="82" preserveAspectRatio="xMidYMid meet" version="1.0"><defs><clipPath id="8d8a1f5d40"><path d="M 4.078125 0 L 56.898438 0 L 56.898438 61 L 4.078125 61 Z M 4.078125 0 " clip-rule="nonzero"/></clipPath></defs><g clip-path="url(#8d8a1f5d40)"><path fill="#524664" d="M 7.691406 59.777344 C 8.175781 60.054688 8.683594 60.261719 9.226562 60.402344 C 9.765625 60.542969 10.3125 60.609375 10.871094 60.605469 C 11.425781 60.597656 11.972656 60.519531 12.507812 60.363281 C 13.046875 60.210938 13.550781 59.992188 14.027344 59.703125 L 53.445312 36.097656 C 53.683594 35.953125 53.914062 35.792969 54.132812 35.617188 C 54.351562 35.441406 54.554688 35.253906 54.75 35.054688 C 54.945312 34.851562 55.125 34.640625 55.292969 34.414062 C 55.460938 34.191406 55.613281 33.957031 55.75 33.710938 C 55.886719 33.46875 56.007812 33.214844 56.113281 32.957031 C 56.214844 32.695312 56.304688 32.433594 56.375 32.160156 C 56.445312 31.890625 56.5 31.617188 56.535156 31.339844 C 56.570312 31.0625 56.589844 30.78125 56.589844 30.503906 C 56.589844 30.222656 56.570312 29.945312 56.535156 29.664062 C 56.5 29.386719 56.445312 29.113281 56.375 28.84375 C 56.304688 28.574219 56.214844 28.308594 56.113281 28.046875 C 56.007812 27.789062 55.886719 27.535156 55.75 27.292969 C 55.613281 27.046875 55.460938 26.8125 55.292969 26.589844 C 55.125 26.363281 54.945312 26.152344 54.75 25.949219 C 54.554688 25.75 54.351562 25.5625 54.132812 25.386719 C 53.914062 25.210938 53.683594 25.050781 53.445312 24.90625 L 53.445312 24.902344 L 14.027344 1.304688 C 13.550781 1.015625 13.046875 0.792969 12.507812 0.640625 C 11.972656 0.488281 11.425781 0.40625 10.871094 0.402344 C 10.3125 0.394531 9.765625 0.460938 9.226562 0.601562 C 8.6875 0.742188 8.175781 0.949219 7.691406 1.226562 C 7.1875 1.511719 6.734375 1.855469 6.324219 2.261719 C 5.914062 2.664062 5.5625 3.117188 5.277344 3.617188 C 4.988281 4.117188 4.769531 4.644531 4.625 5.199219 C 4.476562 5.757812 4.40625 6.324219 4.414062 6.902344 L 4.414062 54.101562 C 4.40625 54.679688 4.476562 55.246094 4.625 55.804688 C 4.769531 56.359375 4.988281 56.886719 5.277344 57.386719 C 5.5625 57.886719 5.914062 58.339844 6.324219 58.742188 C 6.734375 59.148438 7.1875 59.492188 7.691406 59.777344 Z M 8.425781 6.902344 C 8.421875 6.453125 8.527344 6.03125 8.75 5.640625 C 8.972656 5.25 9.28125 4.941406 9.671875 4.71875 C 10.023438 4.519531 10.402344 4.417969 10.808594 4.414062 C 11.226562 4.417969 11.613281 4.527344 11.96875 4.746094 L 51.382812 28.347656 C 51.566406 28.460938 51.730469 28.597656 51.878906 28.753906 C 52.027344 28.910156 52.152344 29.082031 52.257812 29.269531 C 52.363281 29.457031 52.441406 29.65625 52.496094 29.867188 C 52.546875 30.074219 52.574219 30.285156 52.574219 30.5 C 52.574219 30.714844 52.546875 30.929688 52.496094 31.136719 C 52.441406 31.34375 52.363281 31.542969 52.257812 31.730469 C 52.152344 31.921875 52.027344 32.09375 51.878906 32.25 C 51.730469 32.40625 51.566406 32.542969 51.382812 32.65625 L 11.96875 56.257812 C 11.617188 56.472656 11.234375 56.585938 10.824219 56.589844 C 10.410156 56.59375 10.027344 56.492188 9.671875 56.285156 C 9.28125 56.0625 8.972656 55.753906 8.75 55.363281 C 8.527344 54.972656 8.421875 54.550781 8.425781 54.101562 Z M 8.425781 6.902344 " fill-opacity="1" fill-rule="nonzero"/></g></svg>