<svg xmlns="http://www.w3.org/2000/svg" xmlns:xlink="http://www.w3.org/1999/xlink" width="82" zoomAndPan="magnify" viewBox="0 0 61.5 61.499996" height="82" preserveAspectRatio="xMidYMid meet" version="1.0"><defs><clipPath id="ea2a03ede0"><path d="M 10.742188 2.289062 L 51.089844 2.289062 L 51.089844 38.160156 L 10.742188 38.160156 Z M 10.742188 2.289062 " clip-rule="nonzero"/></clipPath><clipPath id="62b7eb9e87"><path d="M 0.742188 0.289062 L 41.089844 0.289062 L 41.089844 36.160156 L 0.742188 36.160156 Z M 0.742188 0.289062 " clip-rule="nonzero"/></clipPath><clipPath id="911a41ce71"><rect x="0" width="42" y="0" height="37"/></clipPath><clipPath id="c390dd3cce"><path d="M 10.742188 25.660156 L 15.761719 25.660156 L 15.761719 53.742188 L 10.742188 53.742188 Z M 10.742188 25.660156 " clip-rule="nonzero"/></clipPath><clipPath id="1e7d24f564"><path d="M 0.742188 0.660156 L 5.761719 0.660156 L 5.761719 28.742188 L 0.742188 28.742188 Z M 0.742188 0.660156 " clip-rule="nonzero"/></clipPath><clipPath id="2722782197"><rect x="0" width="6" y="0" height="29"/></clipPath><clipPath id="2660b01f57"><path d="M 13.253906 22.644531 L 20.289062 22.644531 L 20.289062 50.726562 L 13.253906 50.726562 Z M 13.253906 22.644531 " clip-rule="nonzero"/></clipPath><clipPath id="15665ac8d1"><path d="M 0.253906 0.644531 L 7.289062 0.644531 L 7.289062 28.726562 L 0.253906 28.726562 Z M 0.253906 0.644531 " clip-rule="nonzero"/></clipPath><clipPath id="de6d3d9506"><rect x="0" width="8" y="0" height="29"/></clipPath><clipPath id="78d1d438d2"><path d="M 17.777344 16.460938 L 22.796875 16.460938 L 22.796875 44.542969 L 17.777344 44.542969 Z M 17.777344 16.460938 " clip-rule="nonzero"/></clipPath><clipPath id="e782cc182a"><path d="M 0.777344 0.460938 L 5.796875 0.460938 L 5.796875 28.542969 L 0.777344 28.542969 Z M 0.777344 0.460938 " clip-rule="nonzero"/></clipPath><clipPath id="6063d7f19a"><rect x="0" width="6" y="0" height="29"/></clipPath><clipPath id="cbf35259ff"><path d="M 21.3125 14.667969 L 26.332031 14.667969 L 26.332031 42.75 L 21.3125 42.75 Z M 21.3125 14.667969 " clip-rule="nonzero"/></clipPath><clipPath id="e626f73fae"><path d="M 0.3125 0.667969 L 5.332031 0.667969 L 5.332031 28.75 L 0.3125 28.75 Z M 0.3125 0.667969 " clip-rule="nonzero"/></clipPath><clipPath id="370f901e9b"><rect x="0" width="6" y="0" height="29"/></clipPath><clipPath id="c3c7526816"><path d="M 46.070312 26.820312 L 51.089844 26.820312 L 51.089844 54.902344 L 46.070312 54.902344 Z M 46.070312 26.820312 " clip-rule="nonzero"/></clipPath><clipPath id="2071e2a079"><path d="M 0.0703125 0.820312 L 5.089844 0.820312 L 5.089844 28.902344 L 0.0703125 28.902344 Z M 0.0703125 0.820312 " clip-rule="nonzero"/></clipPath><clipPath id="891339e60f"><rect x="0" width="6" y="0" height="29"/></clipPath><clipPath id="97bbe270be"><path d="M 43.558594 22.644531 L 48.582031 22.644531 L 48.582031 50.726562 L 43.558594 50.726562 Z M 43.558594 22.644531 " clip-rule="nonzero"/></clipPath><clipPath id="e35365f2a2"><path d="M 0.558594 0.644531 L 5.582031 0.644531 L 5.582031 28.726562 L 0.558594 28.726562 Z M 0.558594 0.644531 " clip-rule="nonzero"/></clipPath><clipPath id="12ea083fb2"><rect x="0" width="6" y="0" height="29"/></clipPath><clipPath id="6dd81e21a4"><path d="M 41.046875 20.222656 L 46.070312 20.222656 L 46.070312 48.304688 L 41.046875 48.304688 Z M 41.046875 20.222656 " clip-rule="nonzero"/></clipPath><clipPath id="2eec953253"><path d="M 0.046875 0.222656 L 5.070312 0.222656 L 5.070312 28.304688 L 0.046875 28.304688 Z M 0.046875 0.222656 " clip-rule="nonzero"/></clipPath><clipPath id="58660a0017"><rect x="0" width="6" y="0" height="29"/></clipPath><clipPath id="28a3674c38"><path d="M 38.539062 16.460938 L 43.558594 16.460938 L 43.558594 44.542969 L 38.539062 44.542969 Z M 38.539062 16.460938 " clip-rule="nonzero"/></clipPath><clipPath id="327832acfd"><path d="M 0.539062 0.460938 L 5.558594 0.460938 L 5.558594 28.542969 L 0.539062 28.542969 Z M 0.539062 0.460938 " clip-rule="nonzero"/></clipPath><clipPath id="d945f75a87"><rect x="0" width="6" y="0" height="29"/></clipPath><clipPath id="6074d1ebb5"><path d="M 34.886719 14.667969 L 39.910156 14.667969 L 39.910156 42.75 L 34.886719 42.75 Z M 34.886719 14.667969 " clip-rule="nonzero"/></clipPath><clipPath id="b8042f4a54"><path d="M 0.886719 0.667969 L 5.910156 0.667969 L 5.910156 28.75 L 0.886719 28.75 Z M 0.886719 0.667969 " clip-rule="nonzero"/></clipPath><clipPath id="f57f179aeb"><rect x="0" width="6" y="0" height="29"/></clipPath></defs><path fill="#524664" d="M 30.496094 33.882812 C 31.058594 33.882812 31.605469 34.128906 32.003906 34.5625 L 48.714844 52.921875 L 48.714844 4.609375 L 12.28125 4.609375 L 12.28125 52.925781 L 28.996094 34.570312 C 29.386719 34.128906 29.929688 33.882812 30.496094 33.882812 M 10.160156 60.832031 C 9.886719 60.832031 9.613281 60.777344 9.355469 60.660156 C 8.5625 60.300781 8.046875 59.460938 8.046875 58.527344 L 8.046875 2.300781 C 8.046875 1.03125 8.996094 0 10.160156 0 L 50.832031 0 C 52.003906 0 52.945312 1.03125 52.945312 2.300781 L 52.945312 58.527344 C 52.945312 59.460938 52.429688 60.300781 51.636719 60.660156 C 50.839844 61.015625 49.929688 60.8125 49.324219 60.148438 L 30.496094 39.460938 L 11.667969 60.148438 C 11.261719 60.597656 10.71875 60.832031 10.160156 60.832031 " fill-opacity="1" fill-rule="nonzero"/><g clip-path="url(#ea2a03ede0)"><g transform="matrix(1, 0, 0, 1, 10, 2)"><g clip-path="url(#911a41ce71)"><g clip-path="url(#62b7eb9e87)"><path fill="#524664" d="M 0.742188 0.289062 L 41.097656 0.289062 L 41.097656 36.160156 L 0.742188 36.160156 Z M 0.742188 0.289062 " fill-opacity="1" fill-rule="nonzero"/></g></g></g></g><g clip-path="url(#c390dd3cce)"><g transform="matrix(1, 0, 0, 1, 10, 25)"><g clip-path="url(#2722782197)"><g clip-path="url(#1e7d24f564)"><path fill="#524664" d="M 0.742188 0.660156 L 5.761719 0.660156 L 5.761719 28.75 L 0.742188 28.75 Z M 0.742188 0.660156 " fill-opacity="1" fill-rule="nonzero"/></g></g></g></g><g clip-path="url(#2660b01f57)"><g transform="matrix(1, 0, 0, 1, 13, 22)"><g clip-path="url(#de6d3d9506)"><g clip-path="url(#15665ac8d1)"><path fill="#524664" d="M 0.253906 0.644531 L 7.289062 0.644531 L 7.289062 28.730469 L 0.253906 28.730469 Z M 0.253906 0.644531 " fill-opacity="1" fill-rule="nonzero"/></g></g></g></g><g clip-path="url(#78d1d438d2)"><g transform="matrix(1, 0, 0, 1, 17, 16)"><g clip-path="url(#6063d7f19a)"><g clip-path="url(#e782cc182a)"><path fill="#524664" d="M 0.777344 0.460938 L 5.796875 0.460938 L 5.796875 28.550781 L 0.777344 28.550781 Z M 0.777344 0.460938 " fill-opacity="1" fill-rule="nonzero"/></g></g></g></g><g clip-path="url(#cbf35259ff)"><g transform="matrix(1, 0, 0, 1, 21, 14)"><g clip-path="url(#370f901e9b)"><g clip-path="url(#e626f73fae)"><path fill="#524664" d="M 0.3125 0.667969 L 5.332031 0.667969 L 5.332031 28.757812 L 0.3125 28.757812 Z M 0.3125 0.667969 " fill-opacity="1" fill-rule="nonzero"/></g></g></g></g><g clip-path="url(#c3c7526816)"><g transform="matrix(1, 0, 0, 1, 46, 26)"><g clip-path="url(#891339e60f)"><g clip-path="url(#2071e2a079)"><path fill="#524664" d="M 0.0703125 0.820312 L 5.089844 0.820312 L 5.089844 28.910156 L 0.0703125 28.910156 Z M 0.0703125 0.820312 " fill-opacity="1" fill-rule="nonzero"/></g></g></g></g><g clip-path="url(#97bbe270be)"><g transform="matrix(1, 0, 0, 1, 43, 22)"><g clip-path="url(#12ea083fb2)"><g clip-path="url(#e35365f2a2)"><path fill="#524664" d="M 0.558594 0.644531 L 5.582031 0.644531 L 5.582031 28.734375 L 0.558594 28.734375 Z M 0.558594 0.644531 " fill-opacity="1" fill-rule="nonzero"/></g></g></g></g><g clip-path="url(#6dd81e21a4)"><g transform="matrix(1, 0, 0, 1, 41, 20)"><g clip-path="url(#58660a0017)"><g clip-path="url(#2eec953253)"><path fill="#524664" d="M 0.046875 0.222656 L 5.070312 0.222656 L 5.070312 28.3125 L 0.046875 28.3125 Z M 0.046875 0.222656 " fill-opacity="1" fill-rule="nonzero"/></g></g></g></g><g clip-path="url(#28a3674c38)"><g transform="matrix(1, 0, 0, 1, 38, 16)"><g clip-path="url(#d945f75a87)"><g clip-path="url(#327832acfd)"><path fill="#524664" d="M 0.539062 0.460938 L 5.558594 0.460938 L 5.558594 28.550781 L 0.539062 28.550781 Z M 0.539062 0.460938 " fill-opacity="1" fill-rule="nonzero"/></g></g></g></g><g clip-path="url(#6074d1ebb5)"><g transform="matrix(1, 0, 0, 1, 34, 14)"><g clip-path="url(#f57f179aeb)"><g clip-path="url(#b8042f4a54)"><path fill="#524664" d="M 0.886719 0.667969 L 5.910156 0.667969 L 5.910156 28.757812 L 0.886719 28.757812 Z M 0.886719 0.667969 " fill-opacity="1" fill-rule="nonzero"/></g></g></g></g></svg>