<svg xmlns="http://www.w3.org/2000/svg" xmlns:xlink="http://www.w3.org/1999/xlink" width="155" zoomAndPan="magnify" viewBox="0 0 116.25 39.749999" height="53" preserveAspectRatio="xMidYMid meet" version="1.0"><defs><g/><clipPath id="94928a898b"><path d="M 0 0.246094 L 111.179688 0.246094 L 111.179688 33.929688 L 0 33.929688 Z M 0 0.246094 " clip-rule="nonzero"/></clipPath><clipPath id="4c1faa5f06"><path d="M 5.214844 0.246094 L 105.90625 0.246094 C 107.289062 0.246094 108.617188 0.792969 109.59375 1.773438 C 110.574219 2.75 111.121094 4.078125 111.121094 5.460938 L 111.121094 28.710938 C 111.121094 30.09375 110.574219 31.421875 109.59375 32.398438 C 108.617188 33.378906 107.289062 33.929688 105.90625 33.929688 L 5.214844 33.929688 C 3.832031 33.929688 2.507812 33.378906 1.527344 32.398438 C 0.550781 31.421875 0 30.09375 0 28.710938 L 0 5.460938 C 0 4.078125 0.550781 2.75 1.527344 1.773438 C 2.507812 0.792969 3.832031 0.246094 5.214844 0.246094 Z M 5.214844 0.246094 " clip-rule="nonzero"/></clipPath><clipPath id="7b5f4775c9"><path d="M 0 0.246094 L 111.121094 0.246094 L 111.121094 33.929688 L 0 33.929688 Z M 0 0.246094 " clip-rule="nonzero"/></clipPath><clipPath id="77e9eef532"><path d="M 5.214844 0.246094 L 105.90625 0.246094 C 107.289062 0.246094 108.617188 0.792969 109.59375 1.773438 C 110.574219 2.75 111.121094 4.078125 111.121094 5.460938 L 111.121094 28.710938 C 111.121094 30.09375 110.574219 31.421875 109.59375 32.398438 C 108.617188 33.378906 107.289062 33.929688 105.90625 33.929688 L 5.214844 33.929688 C 3.832031 33.929688 2.507812 33.378906 1.527344 32.398438 C 0.550781 31.421875 0 30.09375 0 28.710938 L 0 5.460938 C 0 4.078125 0.550781 2.75 1.527344 1.773438 C 2.507812 0.792969 3.832031 0.246094 5.214844 0.246094 Z M 5.214844 0.246094 " clip-rule="nonzero"/></clipPath><radialGradient gradientTransform="matrix(1, 0, 0, 1, -0.000228872, 0.245215)" gradientUnits="userSpaceOnUse" r="116.114763" cx="0" id="5b1c2d187f" cy="0" fx="0" fy="0"><stop stop-opacity="1" stop-color="rgb(98.442078%, 39.216614%, 71.19751%)" offset="0"/><stop stop-opacity="1" stop-color="rgb(98.46344%, 39.21051%, 70.896912%)" offset="0.015625"/><stop stop-opacity="1" stop-color="rgb(98.48175%, 39.205933%, 70.639038%)" offset="0.0273438"/><stop stop-opacity="1" stop-color="rgb(98.500061%, 39.199829%, 70.38269%)" offset="0.0390625"/><stop stop-opacity="1" stop-color="rgb(98.518372%, 39.195251%, 70.124817%)" offset="0.0507812"/><stop stop-opacity="1" stop-color="rgb(98.536682%, 39.190674%, 69.866943%)" offset="0.0625"/><stop stop-opacity="1" stop-color="rgb(98.554993%, 39.186096%, 69.610596%)" offset="0.0742188"/><stop stop-opacity="1" stop-color="rgb(98.573303%, 39.181519%, 69.352722%)" offset="0.0859375"/><stop stop-opacity="1" stop-color="rgb(98.591614%, 39.176941%, 69.094849%)" offset="0.0976562"/><stop stop-opacity="1" stop-color="rgb(98.609924%, 39.172363%, 68.838501%)" offset="0.109375"/><stop stop-opacity="1" stop-color="rgb(98.628235%, 39.167786%, 68.580627%)" offset="0.121094"/><stop stop-opacity="1" stop-color="rgb(98.646545%, 39.163208%, 68.322754%)" offset="0.132812"/><stop stop-opacity="1" stop-color="rgb(98.664856%, 39.15863%, 68.066406%)" offset="0.144531"/><stop stop-opacity="1" stop-color="rgb(98.683167%, 39.154053%, 67.808533%)" offset="0.15625"/><stop stop-opacity="1" stop-color="rgb(98.701477%, 39.149475%, 67.552185%)" offset="0.167969"/><stop stop-opacity="1" stop-color="rgb(98.719788%, 39.144897%, 67.294312%)" offset="0.179688"/><stop stop-opacity="1" stop-color="rgb(98.739624%, 39.14032%, 67.036438%)" offset="0.191406"/><stop stop-opacity="1" stop-color="rgb(98.757935%, 39.134216%, 66.78009%)" offset="0.203125"/><stop stop-opacity="1" stop-color="rgb(98.776245%, 39.129639%, 66.522217%)" offset="0.214844"/><stop stop-opacity="1" stop-color="rgb(98.794556%, 39.125061%, 66.264343%)" offset="0.226562"/><stop stop-opacity="1" stop-color="rgb(98.812866%, 39.120483%, 66.007996%)" offset="0.238281"/><stop stop-opacity="1" stop-color="rgb(98.831177%, 39.115906%, 65.750122%)" offset="0.25"/><stop stop-opacity="1" stop-color="rgb(98.846436%, 39.112854%, 65.536499%)" offset="0.261719"/><stop stop-opacity="1" stop-color="rgb(98.858643%, 39.109802%, 65.364075%)" offset="0.269531"/><stop stop-opacity="1" stop-color="rgb(98.87085%, 39.10675%, 65.193176%)" offset="0.277344"/><stop stop-opacity="1" stop-color="rgb(98.883057%, 39.103699%, 65.020752%)" offset="0.285156"/><stop stop-opacity="1" stop-color="rgb(98.895264%, 39.100647%, 64.849854%)" offset="0.292969"/><stop stop-opacity="1" stop-color="rgb(98.907471%, 39.097595%, 64.677429%)" offset="0.300781"/><stop stop-opacity="1" stop-color="rgb(98.919678%, 39.094543%, 64.506531%)" offset="0.308594"/><stop stop-opacity="1" stop-color="rgb(98.931885%, 39.091492%, 64.334106%)" offset="0.316406"/><stop stop-opacity="1" stop-color="rgb(98.944092%, 39.08844%, 64.163208%)" offset="0.324219"/><stop stop-opacity="1" stop-color="rgb(98.956299%, 39.085388%, 63.99231%)" offset="0.332031"/><stop stop-opacity="1" stop-color="rgb(98.968506%, 39.082336%, 63.819885%)" offset="0.339844"/><stop stop-opacity="1" stop-color="rgb(98.980713%, 39.079285%, 63.648987%)" offset="0.347656"/><stop stop-opacity="1" stop-color="rgb(98.99292%, 39.074707%, 63.476562%)" offset="0.355469"/><stop stop-opacity="1" stop-color="rgb(99.005127%, 39.071655%, 63.305664%)" offset="0.363281"/><stop stop-opacity="1" stop-color="rgb(99.017334%, 39.068604%, 63.13324%)" offset="0.371094"/><stop stop-opacity="1" stop-color="rgb(99.035645%, 39.064026%, 62.876892%)" offset="0.378906"/><stop stop-opacity="1" stop-color="rgb(99.061584%, 39.057922%, 62.533569%)" offset="0.394531"/><stop stop-opacity="1" stop-color="rgb(99.085999%, 39.051819%, 62.190247%)" offset="0.410156"/><stop stop-opacity="1" stop-color="rgb(99.110413%, 39.045715%, 61.846924%)" offset="0.425781"/><stop stop-opacity="1" stop-color="rgb(99.134827%, 39.039612%, 61.503601%)" offset="0.441406"/><stop stop-opacity="1" stop-color="rgb(99.159241%, 39.033508%, 61.160278%)" offset="0.457031"/><stop stop-opacity="1" stop-color="rgb(99.183655%, 39.027405%, 60.816956%)" offset="0.472656"/><stop stop-opacity="1" stop-color="rgb(99.208069%, 39.021301%, 60.473633%)" offset="0.488281"/><stop stop-opacity="1" stop-color="rgb(99.229431%, 39.015198%, 60.174561%)" offset="0.503906"/><stop stop-opacity="1" stop-color="rgb(99.247742%, 39.01062%, 59.916687%)" offset="0.515625"/><stop stop-opacity="1" stop-color="rgb(99.266052%, 39.004517%, 59.660339%)" offset="0.527344"/><stop stop-opacity="1" stop-color="rgb(99.284363%, 38.999939%, 59.402466%)" offset="0.539062"/><stop stop-opacity="1" stop-color="rgb(99.302673%, 38.995361%, 59.144592%)" offset="0.550781"/><stop stop-opacity="1" stop-color="rgb(99.320984%, 38.990784%, 58.888245%)" offset="0.5625"/><stop stop-opacity="1" stop-color="rgb(99.339294%, 38.986206%, 58.630371%)" offset="0.574219"/><stop stop-opacity="1" stop-color="rgb(99.357605%, 38.981628%, 58.372498%)" offset="0.585938"/><stop stop-opacity="1" stop-color="rgb(99.377441%, 38.977051%, 58.11615%)" offset="0.597656"/><stop stop-opacity="1" stop-color="rgb(99.395752%, 38.972473%, 57.858276%)" offset="0.609375"/><stop stop-opacity="1" stop-color="rgb(99.414062%, 38.967896%, 57.600403%)" offset="0.621094"/><stop stop-opacity="1" stop-color="rgb(99.429321%, 38.964844%, 57.38678%)" offset="0.632812"/><stop stop-opacity="1" stop-color="rgb(99.441528%, 38.961792%, 57.214355%)" offset="0.640625"/><stop stop-opacity="1" stop-color="rgb(99.453735%, 38.95874%, 57.043457%)" offset="0.648438"/><stop stop-opacity="1" stop-color="rgb(99.465942%, 38.955688%, 56.872559%)" offset="0.65625"/><stop stop-opacity="1" stop-color="rgb(99.478149%, 38.952637%, 56.700134%)" offset="0.664062"/><stop stop-opacity="1" stop-color="rgb(99.490356%, 38.949585%, 56.529236%)" offset="0.671875"/><stop stop-opacity="1" stop-color="rgb(99.502563%, 38.945007%, 56.356812%)" offset="0.679688"/><stop stop-opacity="1" stop-color="rgb(99.514771%, 38.941956%, 56.185913%)" offset="0.6875"/><stop stop-opacity="1" stop-color="rgb(99.533081%, 38.937378%, 55.92804%)" offset="0.695312"/><stop stop-opacity="1" stop-color="rgb(99.557495%, 38.931274%, 55.584717%)" offset="0.710938"/><stop stop-opacity="1" stop-color="rgb(99.581909%, 38.925171%, 55.241394%)" offset="0.726562"/><stop stop-opacity="1" stop-color="rgb(99.606323%, 38.919067%, 54.898071%)" offset="0.742188"/><stop stop-opacity="1" stop-color="rgb(99.627686%, 38.912964%, 54.598999%)" offset="0.757812"/><stop stop-opacity="1" stop-color="rgb(99.645996%, 38.908386%, 54.341125%)" offset="0.769531"/><stop stop-opacity="1" stop-color="rgb(99.664307%, 38.903809%, 54.083252%)" offset="0.78125"/><stop stop-opacity="1" stop-color="rgb(99.682617%, 38.899231%, 53.826904%)" offset="0.792969"/><stop stop-opacity="1" stop-color="rgb(99.702454%, 38.894653%, 53.569031%)" offset="0.804688"/><stop stop-opacity="1" stop-color="rgb(99.717712%, 38.891602%, 53.355408%)" offset="0.816406"/><stop stop-opacity="1" stop-color="rgb(99.729919%, 38.88855%, 53.182983%)" offset="0.824219"/><stop stop-opacity="1" stop-color="rgb(99.742126%, 38.885498%, 53.012085%)" offset="0.832031"/><stop stop-opacity="1" stop-color="rgb(99.754333%, 38.882446%, 52.839661%)" offset="0.839844"/><stop stop-opacity="1" stop-color="rgb(99.772644%, 38.876343%, 52.581787%)" offset="0.847656"/><stop stop-opacity="1" stop-color="rgb(99.797058%, 38.870239%, 52.23999%)" offset="0.863281"/><stop stop-opacity="1" stop-color="rgb(99.81842%, 38.864136%, 51.939392%)" offset="0.878906"/><stop stop-opacity="1" stop-color="rgb(99.836731%, 38.859558%, 51.681519%)" offset="0.890625"/><stop stop-opacity="1" stop-color="rgb(99.855042%, 38.85498%, 51.425171%)" offset="0.902344"/><stop stop-opacity="1" stop-color="rgb(99.8703%, 38.851929%, 51.210022%)" offset="0.914062"/><stop stop-opacity="1" stop-color="rgb(99.882507%, 38.848877%, 51.039124%)" offset="0.921875"/><stop stop-opacity="1" stop-color="rgb(99.900818%, 38.844299%, 50.78125%)" offset="0.929688"/><stop stop-opacity="1" stop-color="rgb(99.92218%, 38.838196%, 50.480652%)" offset="0.945312"/><stop stop-opacity="1" stop-color="rgb(99.937439%, 38.835144%, 50.267029%)" offset="0.957031"/><stop stop-opacity="1" stop-color="rgb(99.95575%, 38.830566%, 50.009155%)" offset="0.964844"/><stop stop-opacity="1" stop-color="rgb(99.97406%, 38.825989%, 49.751282%)" offset="0.980469"/><stop stop-opacity="1" stop-color="rgb(99.989319%, 38.821411%, 49.537659%)" offset="0.988281"/><stop stop-opacity="1" stop-color="rgb(100%, 38.819885%, 49.409485%)" offset="1"/></radialGradient><clipPath id="bf91a6221d"><rect x="0" width="112" y="0" height="34"/></clipPath><clipPath id="91be6cccb1"><path d="M 11.875 9.457031 L 26.417969 9.457031 L 26.417969 24.695312 L 11.875 24.695312 Z M 11.875 9.457031 " clip-rule="nonzero"/></clipPath><clipPath id="a3b1db4091"><rect x="0" width="63" y="0" height="23"/></clipPath><clipPath id="429807eefe"><rect x="0" width="112" y="0" height="35"/></clipPath></defs><g transform="matrix(1, 0, 0, 1, 0, 2)"><g clip-path="url(#429807eefe)"><g clip-path="url(#94928a898b)"><g clip-path="url(#4c1faa5f06)"><g transform="matrix(1, 0, 0, 1, 0, -0.000000000000000444)"><g clip-path="url(#bf91a6221d)"><g clip-path="url(#7b5f4775c9)"><g clip-path="url(#77e9eef532)"><path fill="url(#5b1c2d187f)" d="M 0 0.246094 L 0 33.929688 L 111.121094 33.929688 L 111.121094 0.246094 Z M 0 0.246094 " fill-rule="nonzero"/></g></g></g></g></g></g><g clip-path="url(#91be6cccb1)"><path fill="#fcffff" d="M 22.277344 19.347656 C 22.300781 19.363281 22.324219 19.378906 22.34375 19.398438 L 26.542969 23.601562 C 26.679688 23.734375 26.679688 23.957031 26.539062 24.097656 L 26.050781 24.585938 C 25.910156 24.726562 25.691406 24.726562 25.554688 24.589844 L 21.355469 20.386719 C 21.316406 20.347656 21.285156 20.296875 21.269531 20.246094 C 20.300781 20.933594 19.121094 21.335938 17.84375 21.335938 C 14.5625 21.335938 11.90625 18.675781 11.90625 15.394531 C 11.90625 12.113281 14.5625 9.457031 17.84375 9.457031 C 21.125 9.457031 23.785156 12.113281 23.785156 15.394531 C 23.785156 16.914062 23.214844 18.296875 22.277344 19.347656 Z M 17.84375 20.636719 C 20.738281 20.636719 23.085938 18.289062 23.085938 15.394531 C 23.085938 12.5 20.738281 10.152344 17.84375 10.152344 C 14.949219 10.152344 12.605469 12.5 12.605469 15.394531 C 12.605469 18.289062 14.949219 20.636719 17.84375 20.636719 Z M 17.84375 20.636719 " fill-opacity="1" fill-rule="evenodd"/></g><g transform="matrix(1, 0, 0, 1, 36, 6)"><g clip-path="url(#a3b1db4091)"><g fill="#fcffff" fill-opacity="1"><g transform="translate(0.86809, 16.906609)"><g><path d="M 10.53125 -5.765625 C 10.53125 -4.492188 10.296875 -3.429688 9.828125 -2.578125 C 9.367188 -1.722656 8.695312 -1.078125 7.8125 -0.640625 C 6.9375 -0.210938 5.875 0 4.625 0 L 1.546875 0 L 1.546875 -11.3125 L 4.953125 -11.3125 C 6.109375 -11.3125 7.097656 -11.097656 7.921875 -10.671875 C 8.753906 -10.253906 9.394531 -9.632812 9.84375 -8.8125 C 10.300781 -7.988281 10.53125 -6.972656 10.53125 -5.765625 Z M 9.140625 -5.71875 C 9.140625 -6.726562 8.96875 -7.5625 8.625 -8.21875 C 8.289062 -8.882812 7.796875 -9.378906 7.140625 -9.703125 C 6.492188 -10.023438 5.695312 -10.1875 4.75 -10.1875 L 2.859375 -10.1875 L 2.859375 -1.125 L 4.46875 -1.125 C 6.019531 -1.125 7.1875 -1.507812 7.96875 -2.28125 C 8.75 -3.050781 9.140625 -4.195312 9.140625 -5.71875 Z M 9.140625 -5.71875 "/></g></g></g><g fill="#fcffff" fill-opacity="1"><g transform="translate(12.354921, 16.906609)"><g><path d="M 4.625 -8.640625 C 5.34375 -8.640625 5.957031 -8.476562 6.46875 -8.15625 C 6.988281 -7.832031 7.382812 -7.382812 7.65625 -6.8125 C 7.925781 -6.238281 8.0625 -5.566406 8.0625 -4.796875 L 8.0625 -4 L 2.21875 -4 C 2.226562 -3 2.472656 -2.238281 2.953125 -1.71875 C 3.429688 -1.195312 4.109375 -0.9375 4.984375 -0.9375 C 5.515625 -0.9375 5.988281 -0.984375 6.40625 -1.078125 C 6.820312 -1.179688 7.25 -1.332031 7.6875 -1.53125 L 7.6875 -0.390625 C 7.257812 -0.203125 6.832031 -0.0664062 6.40625 0.015625 C 5.988281 0.109375 5.492188 0.15625 4.921875 0.15625 C 4.109375 0.15625 3.398438 -0.0078125 2.796875 -0.34375 C 2.191406 -0.675781 1.71875 -1.164062 1.375 -1.8125 C 1.039062 -2.457031 0.875 -3.242188 0.875 -4.171875 C 0.875 -5.085938 1.023438 -5.878906 1.328125 -6.546875 C 1.640625 -7.210938 2.078125 -7.726562 2.640625 -8.09375 C 3.203125 -8.457031 3.863281 -8.640625 4.625 -8.640625 Z M 4.609375 -7.578125 C 3.921875 -7.578125 3.375 -7.351562 2.96875 -6.90625 C 2.5625 -6.457031 2.316406 -5.832031 2.234375 -5.03125 L 6.71875 -5.03125 C 6.71875 -5.53125 6.640625 -5.972656 6.484375 -6.359375 C 6.335938 -6.742188 6.109375 -7.039062 5.796875 -7.25 C 5.484375 -7.46875 5.085938 -7.578125 4.609375 -7.578125 Z M 4.609375 -7.578125 "/></g></g></g><g fill="#fcffff" fill-opacity="1"><g transform="translate(21.244461, 16.906609)"><g><path d="M 4.09375 -0.890625 C 4.300781 -0.890625 4.515625 -0.90625 4.734375 -0.9375 C 4.960938 -0.976562 5.144531 -1.023438 5.28125 -1.078125 L 5.28125 -0.078125 C 5.132812 -0.015625 4.925781 0.0351562 4.65625 0.078125 C 4.394531 0.128906 4.140625 0.15625 3.890625 0.15625 C 3.429688 0.15625 3.019531 0.078125 2.65625 -0.078125 C 2.289062 -0.234375 2 -0.5 1.78125 -0.875 C 1.5625 -1.257812 1.453125 -1.78125 1.453125 -2.4375 L 1.453125 -7.46875 L 0.25 -7.46875 L 0.25 -8.09375 L 1.46875 -8.609375 L 1.96875 -10.4375 L 2.75 -10.4375 L 2.75 -8.484375 L 5.234375 -8.484375 L 5.234375 -7.46875 L 2.75 -7.46875 L 2.75 -2.484375 C 2.75 -1.953125 2.867188 -1.550781 3.109375 -1.28125 C 3.359375 -1.019531 3.6875 -0.890625 4.09375 -0.890625 Z M 4.09375 -0.890625 "/></g></g></g><g fill="#fcffff" fill-opacity="1"><g transform="translate(26.887387, 16.906609)"><g><path d="M 4.625 -8.640625 C 5.34375 -8.640625 5.957031 -8.476562 6.46875 -8.15625 C 6.988281 -7.832031 7.382812 -7.382812 7.65625 -6.8125 C 7.925781 -6.238281 8.0625 -5.566406 8.0625 -4.796875 L 8.0625 -4 L 2.21875 -4 C 2.226562 -3 2.472656 -2.238281 2.953125 -1.71875 C 3.429688 -1.195312 4.109375 -0.9375 4.984375 -0.9375 C 5.515625 -0.9375 5.988281 -0.984375 6.40625 -1.078125 C 6.820312 -1.179688 7.25 -1.332031 7.6875 -1.53125 L 7.6875 -0.390625 C 7.257812 -0.203125 6.832031 -0.0664062 6.40625 0.015625 C 5.988281 0.109375 5.492188 0.15625 4.921875 0.15625 C 4.109375 0.15625 3.398438 -0.0078125 2.796875 -0.34375 C 2.191406 -0.675781 1.71875 -1.164062 1.375 -1.8125 C 1.039062 -2.457031 0.875 -3.242188 0.875 -4.171875 C 0.875 -5.085938 1.023438 -5.878906 1.328125 -6.546875 C 1.640625 -7.210938 2.078125 -7.726562 2.640625 -8.09375 C 3.203125 -8.457031 3.863281 -8.640625 4.625 -8.640625 Z M 4.609375 -7.578125 C 3.921875 -7.578125 3.375 -7.351562 2.96875 -6.90625 C 2.5625 -6.457031 2.316406 -5.832031 2.234375 -5.03125 L 6.71875 -5.03125 C 6.71875 -5.53125 6.640625 -5.972656 6.484375 -6.359375 C 6.335938 -6.742188 6.109375 -7.039062 5.796875 -7.25 C 5.484375 -7.46875 5.085938 -7.578125 4.609375 -7.578125 Z M 4.609375 -7.578125 "/></g></g></g><g fill="#fcffff" fill-opacity="1"><g transform="translate(35.776927, 16.906609)"><g><path d="M 4.09375 -0.890625 C 4.300781 -0.890625 4.515625 -0.90625 4.734375 -0.9375 C 4.960938 -0.976562 5.144531 -1.023438 5.28125 -1.078125 L 5.28125 -0.078125 C 5.132812 -0.015625 4.925781 0.0351562 4.65625 0.078125 C 4.394531 0.128906 4.140625 0.15625 3.890625 0.15625 C 3.429688 0.15625 3.019531 0.078125 2.65625 -0.078125 C 2.289062 -0.234375 2 -0.5 1.78125 -0.875 C 1.5625 -1.257812 1.453125 -1.78125 1.453125 -2.4375 L 1.453125 -7.46875 L 0.25 -7.46875 L 0.25 -8.09375 L 1.46875 -8.609375 L 1.96875 -10.4375 L 2.75 -10.4375 L 2.75 -8.484375 L 5.234375 -8.484375 L 5.234375 -7.46875 L 2.75 -7.46875 L 2.75 -2.484375 C 2.75 -1.953125 2.867188 -1.550781 3.109375 -1.28125 C 3.359375 -1.019531 3.6875 -0.890625 4.09375 -0.890625 Z M 4.09375 -0.890625 "/></g></g></g><g fill="#fcffff" fill-opacity="1"><g transform="translate(41.419852, 16.906609)"><g><path d="M 2.640625 -8.484375 L 2.640625 0 L 1.359375 0 L 1.359375 -8.484375 Z M 2.015625 -11.65625 C 2.222656 -11.65625 2.398438 -11.582031 2.546875 -11.4375 C 2.703125 -11.300781 2.78125 -11.09375 2.78125 -10.8125 C 2.78125 -10.519531 2.703125 -10.304688 2.546875 -10.171875 C 2.398438 -10.035156 2.222656 -9.96875 2.015625 -9.96875 C 1.785156 -9.96875 1.597656 -10.035156 1.453125 -10.171875 C 1.304688 -10.304688 1.234375 -10.519531 1.234375 -10.8125 C 1.234375 -11.09375 1.304688 -11.300781 1.453125 -11.4375 C 1.597656 -11.582031 1.785156 -11.65625 2.015625 -11.65625 Z M 2.015625 -11.65625 "/></g></g></g><g fill="#fcffff" fill-opacity="1"><g transform="translate(45.416281, 16.906609)"><g><path d="M 3.21875 0 L 0 -8.484375 L 1.375 -8.484375 L 3.234375 -3.34375 C 3.367188 -3 3.503906 -2.613281 3.640625 -2.1875 C 3.773438 -1.769531 3.867188 -1.429688 3.921875 -1.171875 L 3.96875 -1.171875 C 4.03125 -1.429688 4.132812 -1.769531 4.28125 -2.1875 C 4.425781 -2.613281 4.554688 -3 4.671875 -3.34375 L 6.53125 -8.484375 L 7.921875 -8.484375 L 4.6875 0 Z M 3.21875 0 "/></g></g></g><g fill="#fcffff" fill-opacity="1"><g transform="translate(53.324106, 16.906609)"><g><path d="M 4.625 -8.640625 C 5.34375 -8.640625 5.957031 -8.476562 6.46875 -8.15625 C 6.988281 -7.832031 7.382812 -7.382812 7.65625 -6.8125 C 7.925781 -6.238281 8.0625 -5.566406 8.0625 -4.796875 L 8.0625 -4 L 2.21875 -4 C 2.226562 -3 2.472656 -2.238281 2.953125 -1.71875 C 3.429688 -1.195312 4.109375 -0.9375 4.984375 -0.9375 C 5.515625 -0.9375 5.988281 -0.984375 6.40625 -1.078125 C 6.820312 -1.179688 7.25 -1.332031 7.6875 -1.53125 L 7.6875 -0.390625 C 7.257812 -0.203125 6.832031 -0.0664062 6.40625 0.015625 C 5.988281 0.109375 5.492188 0.15625 4.921875 0.15625 C 4.109375 0.15625 3.398438 -0.0078125 2.796875 -0.34375 C 2.191406 -0.675781 1.71875 -1.164062 1.375 -1.8125 C 1.039062 -2.457031 0.875 -3.242188 0.875 -4.171875 C 0.875 -5.085938 1.023438 -5.878906 1.328125 -6.546875 C 1.640625 -7.210938 2.078125 -7.726562 2.640625 -8.09375 C 3.203125 -8.457031 3.863281 -8.640625 4.625 -8.640625 Z M 4.609375 -7.578125 C 3.921875 -7.578125 3.375 -7.351562 2.96875 -6.90625 C 2.5625 -6.457031 2.316406 -5.832031 2.234375 -5.03125 L 6.71875 -5.03125 C 6.71875 -5.53125 6.640625 -5.972656 6.484375 -6.359375 C 6.335938 -6.742188 6.109375 -7.039062 5.796875 -7.25 C 5.484375 -7.46875 5.085938 -7.578125 4.609375 -7.578125 Z M 4.609375 -7.578125 "/></g></g></g></g></g></g></g></svg>