<svg xmlns="http://www.w3.org/2000/svg" xmlns:xlink="http://www.w3.org/1999/xlink" width="155" zoomAndPan="magnify" viewBox="0 0 116.25 39.749999" height="53" preserveAspectRatio="xMidYMid meet" version="1.0"><defs><g/><clipPath id="f51a92f6e6"><path d="M 0 2.910156 L 93.417969 2.910156 L 93.417969 36.59375 L 0 36.59375 Z M 0 2.910156 " clip-rule="nonzero"/></clipPath><clipPath id="e2bfeff72a"><path d="M 5.214844 2.910156 L 88.140625 2.910156 C 89.523438 2.910156 90.851562 3.460938 91.828125 4.4375 C 92.808594 5.414062 93.359375 6.742188 93.359375 8.125 L 93.359375 31.375 C 93.359375 32.757812 92.808594 34.085938 91.828125 35.0625 C 90.851562 36.042969 89.523438 36.59375 88.140625 36.59375 L 5.214844 36.59375 C 3.832031 36.59375 2.507812 36.042969 1.527344 35.0625 C 0.550781 34.085938 0 32.757812 0 31.375 L 0 8.125 C 0 6.742188 0.550781 5.414062 1.527344 4.4375 C 2.507812 3.460938 3.832031 2.910156 5.214844 2.910156 Z M 5.214844 2.910156 " clip-rule="nonzero"/></clipPath><clipPath id="6b42020fcd"><path d="M 0 0.910156 L 93.359375 0.910156 L 93.359375 34.59375 L 0 34.59375 Z M 0 0.910156 " clip-rule="nonzero"/></clipPath><clipPath id="cf3f7d8009"><path d="M 5.214844 0.910156 L 88.140625 0.910156 C 89.523438 0.910156 90.851562 1.460938 91.828125 2.4375 C 92.808594 3.414062 93.359375 4.742188 93.359375 6.125 L 93.359375 29.375 C 93.359375 30.757812 92.808594 32.085938 91.828125 33.0625 C 90.851562 34.042969 89.523438 34.59375 88.140625 34.59375 L 5.214844 34.59375 C 3.832031 34.59375 2.507812 34.042969 1.527344 33.0625 C 0.550781 32.085938 0 30.757812 0 29.375 L 0 6.125 C 0 4.742188 0.550781 3.414062 1.527344 2.4375 C 2.507812 1.460938 3.832031 0.910156 5.214844 0.910156 Z M 5.214844 0.910156 " clip-rule="nonzero"/></clipPath><radialGradient gradientTransform="matrix(1, 0, 0, 1, -0.00027304, 0.909455)" gradientUnits="userSpaceOnUse" r="99.248155" cx="0" id="76d9a1ef4d" cy="0" fx="0" fy="0"><stop stop-opacity="1" stop-color="rgb(2.311707%, 87.380981%, 44.90509%)" offset="0"/><stop stop-opacity="1" stop-color="rgb(2.243042%, 87.254333%, 45.271301%)" offset="0.03125"/><stop stop-opacity="1" stop-color="rgb(2.178955%, 87.136841%, 45.614624%)" offset="0.0585938"/><stop stop-opacity="1" stop-color="rgb(2.114868%, 87.019348%, 45.957947%)" offset="0.0859375"/><stop stop-opacity="1" stop-color="rgb(2.050781%, 86.901855%, 46.30127%)" offset="0.113281"/><stop stop-opacity="1" stop-color="rgb(1.991272%, 86.791992%, 46.618652%)" offset="0.140625"/><stop stop-opacity="1" stop-color="rgb(1.93634%, 86.691284%, 46.913147%)" offset="0.164062"/><stop stop-opacity="1" stop-color="rgb(1.881409%, 86.590576%, 47.207642%)" offset="0.1875"/><stop stop-opacity="1" stop-color="rgb(1.826477%, 86.489868%, 47.50061%)" offset="0.210938"/><stop stop-opacity="1" stop-color="rgb(1.771545%, 86.38916%, 47.795105%)" offset="0.234375"/><stop stop-opacity="1" stop-color="rgb(1.719666%, 86.296082%, 48.06366%)" offset="0.257812"/><stop stop-opacity="1" stop-color="rgb(1.673889%, 86.210632%, 48.309326%)" offset="0.277344"/><stop stop-opacity="1" stop-color="rgb(1.628113%, 86.126709%, 48.553467%)" offset="0.296875"/><stop stop-opacity="1" stop-color="rgb(1.582336%, 86.042786%, 48.799133%)" offset="0.316406"/><stop stop-opacity="1" stop-color="rgb(1.53656%, 85.958862%, 49.043274%)" offset="0.335938"/><stop stop-opacity="1" stop-color="rgb(1.490784%, 85.874939%, 49.28894%)" offset="0.355469"/><stop stop-opacity="1" stop-color="rgb(1.445007%, 85.791016%, 49.533081%)" offset="0.375"/><stop stop-opacity="1" stop-color="rgb(1.403809%, 85.714722%, 49.754333%)" offset="0.394531"/><stop stop-opacity="1" stop-color="rgb(1.367188%, 85.647583%, 49.949646%)" offset="0.410156"/><stop stop-opacity="1" stop-color="rgb(1.330566%, 85.580444%, 50.146484%)" offset="0.425781"/><stop stop-opacity="1" stop-color="rgb(1.293945%, 85.513306%, 50.341797%)" offset="0.441406"/><stop stop-opacity="1" stop-color="rgb(1.239014%, 85.412598%, 50.636292%)" offset="0.457031"/><stop stop-opacity="1" stop-color="rgb(1.184082%, 85.310364%, 50.92926%)" offset="0.488281"/><stop stop-opacity="1" stop-color="rgb(1.132202%, 85.217285%, 51.199341%)" offset="0.503906"/><stop stop-opacity="1" stop-color="rgb(1.068115%, 85.099792%, 51.542664%)" offset="0.53125"/><stop stop-opacity="1" stop-color="rgb(1.004028%, 84.9823%, 51.88446%)" offset="0.558594"/><stop stop-opacity="1" stop-color="rgb(0.944519%, 84.872437%, 52.203369%)" offset="0.585938"/><stop stop-opacity="1" stop-color="rgb(0.889587%, 84.771729%, 52.497864%)" offset="0.609375"/><stop stop-opacity="1" stop-color="rgb(0.839233%, 84.67865%, 52.766418%)" offset="0.632812"/><stop stop-opacity="1" stop-color="rgb(0.793457%, 84.594727%, 53.012085%)" offset="0.652344"/><stop stop-opacity="1" stop-color="rgb(0.747681%, 84.510803%, 53.256226%)" offset="0.671875"/><stop stop-opacity="1" stop-color="rgb(0.706482%, 84.436035%, 53.477478%)" offset="0.691406"/><stop stop-opacity="1" stop-color="rgb(0.669861%, 84.368896%, 53.672791%)" offset="0.707031"/><stop stop-opacity="1" stop-color="rgb(0.614929%, 84.266663%, 53.967285%)" offset="0.722656"/><stop stop-opacity="1" stop-color="rgb(0.544739%, 84.140015%, 54.333496%)" offset="0.753906"/><stop stop-opacity="1" stop-color="rgb(0.480652%, 84.022522%, 54.676819%)" offset="0.78125"/><stop stop-opacity="1" stop-color="rgb(0.421143%, 83.914185%, 54.995728%)" offset="0.808594"/><stop stop-opacity="1" stop-color="rgb(0.370789%, 83.821106%, 55.264282%)" offset="0.832031"/><stop stop-opacity="1" stop-color="rgb(0.32959%, 83.744812%, 55.485535%)" offset="0.851562"/><stop stop-opacity="1" stop-color="rgb(0.292969%, 83.677673%, 55.680847%)" offset="0.867188"/><stop stop-opacity="1" stop-color="rgb(0.242615%, 83.584595%, 55.950928%)" offset="0.882812"/><stop stop-opacity="1" stop-color="rgb(0.187683%, 83.483887%, 56.245422%)" offset="0.910156"/><stop stop-opacity="1" stop-color="rgb(0.146484%, 83.409119%, 56.465149%)" offset="0.929688"/><stop stop-opacity="1" stop-color="rgb(0.0961304%, 83.31604%, 56.733704%)" offset="0.945312"/><stop stop-opacity="1" stop-color="rgb(0.0320435%, 83.197021%, 57.077026%)" offset="0.972656"/><stop stop-opacity="1" stop-color="rgb(0%, 83.139038%, 57.249451%)" offset="1"/></radialGradient><clipPath id="c5fa83bdc4"><rect x="0" width="94" y="0" height="35"/></clipPath><clipPath id="d28790be16"><rect x="0" width="42" y="0" height="23"/></clipPath><clipPath id="a6f403b491"><path d="M 11.996094 11.894531 L 27.644531 11.894531 L 27.644531 27.542969 L 11.996094 27.542969 Z M 11.996094 11.894531 " clip-rule="nonzero"/></clipPath></defs><g clip-path="url(#f51a92f6e6)"><g clip-path="url(#e2bfeff72a)"><g transform="matrix(1, 0, 0, 1, 0, 2)"><g clip-path="url(#c5fa83bdc4)"><g clip-path="url(#6b42020fcd)"><g clip-path="url(#cf3f7d8009)"><path fill="url(#76d9a1ef4d)" d="M 0 0.910156 L 0 34.59375 L 93.359375 34.59375 L 93.359375 0.910156 Z M 0 0.910156 " fill-rule="nonzero"/></g></g></g></g></g></g><g transform="matrix(1, 0, 0, 1, 40, 8)"><g clip-path="url(#d28790be16)"><g fill="#fcffff" fill-opacity="1"><g transform="translate(0.146936, 17.573735)"><g><path d="M 2.859375 0 L 1.546875 0 L 1.546875 -11.3125 L 7.84375 -11.3125 L 7.84375 -10.15625 L 2.859375 -10.15625 L 2.859375 -6 L 7.546875 -6 L 7.546875 -4.84375 L 2.859375 -4.84375 Z M 2.859375 0 "/></g></g></g><g fill="#fcffff" fill-opacity="1"><g transform="translate(8.317582, 17.573735)"><g><path d="M 8.671875 -4.25 C 8.671875 -3.550781 8.578125 -2.929688 8.390625 -2.390625 C 8.210938 -1.847656 7.953125 -1.382812 7.609375 -1 C 7.273438 -0.625 6.863281 -0.335938 6.375 -0.140625 C 5.894531 0.0546875 5.351562 0.15625 4.75 0.15625 C 4.175781 0.15625 3.648438 0.0546875 3.171875 -0.140625 C 2.703125 -0.335938 2.296875 -0.625 1.953125 -1 C 1.617188 -1.382812 1.351562 -1.847656 1.15625 -2.390625 C 0.96875 -2.929688 0.875 -3.550781 0.875 -4.25 C 0.875 -5.175781 1.03125 -5.96875 1.34375 -6.625 C 1.664062 -7.28125 2.117188 -7.78125 2.703125 -8.125 C 3.285156 -8.46875 3.984375 -8.640625 4.796875 -8.640625 C 5.566406 -8.640625 6.242188 -8.460938 6.828125 -8.109375 C 7.410156 -7.765625 7.863281 -7.265625 8.1875 -6.609375 C 8.507812 -5.960938 8.671875 -5.175781 8.671875 -4.25 Z M 2.21875 -4.25 C 2.21875 -3.570312 2.304688 -2.984375 2.484375 -2.484375 C 2.660156 -1.984375 2.9375 -1.59375 3.3125 -1.3125 C 3.695312 -1.039062 4.179688 -0.90625 4.765625 -0.90625 C 5.359375 -0.90625 5.84375 -1.039062 6.21875 -1.3125 C 6.601562 -1.59375 6.882812 -1.984375 7.0625 -2.484375 C 7.238281 -2.984375 7.328125 -3.570312 7.328125 -4.25 C 7.328125 -4.925781 7.238281 -5.507812 7.0625 -6 C 6.882812 -6.5 6.601562 -6.878906 6.21875 -7.140625 C 5.84375 -7.410156 5.359375 -7.546875 4.765625 -7.546875 C 3.878906 -7.546875 3.234375 -7.253906 2.828125 -6.671875 C 2.421875 -6.085938 2.21875 -5.28125 2.21875 -4.25 Z M 2.21875 -4.25 "/></g></g></g><g fill="#fcffff" fill-opacity="1"><g transform="translate(17.840984, 17.573735)"><g><path d="M 5.203125 -8.640625 C 5.378906 -8.640625 5.554688 -8.628906 5.734375 -8.609375 C 5.921875 -8.585938 6.085938 -8.5625 6.234375 -8.53125 L 6.078125 -7.34375 C 5.929688 -7.375 5.773438 -7.398438 5.609375 -7.421875 C 5.441406 -7.441406 5.28125 -7.453125 5.125 -7.453125 C 4.789062 -7.453125 4.472656 -7.382812 4.171875 -7.25 C 3.867188 -7.113281 3.601562 -6.914062 3.375 -6.65625 C 3.144531 -6.40625 2.960938 -6.097656 2.828125 -5.734375 C 2.703125 -5.378906 2.640625 -4.984375 2.640625 -4.546875 L 2.640625 0 L 1.359375 0 L 1.359375 -8.484375 L 2.421875 -8.484375 L 2.5625 -6.921875 L 2.609375 -6.921875 C 2.785156 -7.234375 3 -7.519531 3.25 -7.78125 C 3.5 -8.039062 3.785156 -8.25 4.109375 -8.40625 C 4.441406 -8.5625 4.804688 -8.640625 5.203125 -8.640625 Z M 5.203125 -8.640625 "/></g></g></g><g fill="#fcffff" fill-opacity="1"><g transform="translate(24.311023, 17.573735)"><g><path d="M 4.75 0.15625 C 3.988281 0.15625 3.316406 0 2.734375 -0.3125 C 2.148438 -0.632812 1.691406 -1.113281 1.359375 -1.75 C 1.035156 -2.394531 0.875 -3.207031 0.875 -4.1875 C 0.875 -5.21875 1.046875 -6.054688 1.390625 -6.703125 C 1.734375 -7.359375 2.207031 -7.84375 2.8125 -8.15625 C 3.414062 -8.476562 4.101562 -8.640625 4.875 -8.640625 C 5.300781 -8.640625 5.707031 -8.59375 6.09375 -8.5 C 6.488281 -8.414062 6.816406 -8.3125 7.078125 -8.1875 L 6.6875 -7.109375 C 6.425781 -7.210938 6.125 -7.304688 5.78125 -7.390625 C 5.445312 -7.472656 5.132812 -7.515625 4.84375 -7.515625 C 4.257812 -7.515625 3.769531 -7.382812 3.375 -7.125 C 2.988281 -6.875 2.695312 -6.503906 2.5 -6.015625 C 2.3125 -5.523438 2.21875 -4.921875 2.21875 -4.203125 C 2.21875 -3.515625 2.3125 -2.925781 2.5 -2.4375 C 2.6875 -1.957031 2.96875 -1.585938 3.34375 -1.328125 C 3.71875 -1.078125 4.1875 -0.953125 4.75 -0.953125 C 5.195312 -0.953125 5.597656 -1 5.953125 -1.09375 C 6.316406 -1.195312 6.644531 -1.3125 6.9375 -1.4375 L 6.9375 -0.296875 C 6.65625 -0.148438 6.335938 -0.0390625 5.984375 0.03125 C 5.640625 0.113281 5.226562 0.15625 4.75 0.15625 Z M 4.75 0.15625 "/></g></g></g><g fill="#fcffff" fill-opacity="1"><g transform="translate(31.894187, 17.573735)"><g><path d="M 4.53125 -8.625 C 5.539062 -8.625 6.289062 -8.394531 6.78125 -7.9375 C 7.269531 -7.476562 7.515625 -6.753906 7.515625 -5.765625 L 7.515625 0 L 6.578125 0 L 6.328125 -1.25 L 6.265625 -1.25 C 6.023438 -0.945312 5.773438 -0.6875 5.515625 -0.46875 C 5.265625 -0.257812 4.96875 -0.101562 4.625 0 C 4.289062 0.101562 3.878906 0.15625 3.390625 0.15625 C 2.867188 0.15625 2.410156 0.0664062 2.015625 -0.109375 C 1.617188 -0.296875 1.304688 -0.570312 1.078125 -0.9375 C 0.847656 -1.300781 0.734375 -1.765625 0.734375 -2.328125 C 0.734375 -3.171875 1.066406 -3.816406 1.734375 -4.265625 C 2.398438 -4.722656 3.421875 -4.972656 4.796875 -5.015625 L 6.265625 -5.078125 L 6.265625 -5.59375 C 6.265625 -6.332031 6.101562 -6.847656 5.78125 -7.140625 C 5.46875 -7.429688 5.023438 -7.578125 4.453125 -7.578125 C 4.015625 -7.578125 3.59375 -7.507812 3.1875 -7.375 C 2.78125 -7.25 2.398438 -7.101562 2.046875 -6.9375 L 1.640625 -7.90625 C 2.023438 -8.101562 2.460938 -8.269531 2.953125 -8.40625 C 3.453125 -8.550781 3.976562 -8.625 4.53125 -8.625 Z M 6.25 -4.171875 L 4.953125 -4.125 C 3.890625 -4.082031 3.140625 -3.910156 2.703125 -3.609375 C 2.273438 -3.304688 2.0625 -2.875 2.0625 -2.3125 C 2.0625 -1.820312 2.207031 -1.460938 2.5 -1.234375 C 2.800781 -1.003906 3.191406 -0.890625 3.671875 -0.890625 C 4.421875 -0.890625 5.035156 -1.097656 5.515625 -1.515625 C 6.003906 -1.929688 6.25 -2.554688 6.25 -3.390625 Z M 6.25 -4.171875 "/></g></g></g></g></g><g clip-path="url(#a6f403b491)"><path fill="#fcffff" d="M 26.246094 11.894531 L 13.449219 11.894531 C 12.648438 11.894531 11.996094 12.546875 11.996094 13.351562 L 11.996094 26.148438 C 11.996094 26.949219 12.648438 27.601562 13.449219 27.601562 L 26.246094 27.601562 C 27.050781 27.601562 27.703125 26.949219 27.703125 26.148438 L 27.703125 13.351562 C 27.703125 12.546875 27.050781 11.894531 26.246094 11.894531 Z M 27.453125 26.148438 C 27.453125 26.8125 26.910156 27.351562 26.246094 27.351562 L 13.449219 27.351562 C 12.785156 27.351562 12.246094 26.8125 12.246094 26.148438 L 12.246094 13.351562 C 12.246094 12.683594 12.785156 12.144531 13.449219 12.144531 L 26.246094 12.144531 C 26.910156 12.144531 27.453125 12.683594 27.453125 13.351562 Z M 27.453125 26.148438 " fill-opacity="1" fill-rule="nonzero"/></g><path fill="#fcffff" d="M 14.960938 20.1875 L 16.222656 20.1875 C 16.273438 20.1875 16.316406 20.15625 16.335938 20.109375 L 17.25 17.824219 L 18.34375 17.824219 L 19.257812 20.109375 C 19.277344 20.15625 19.324219 20.1875 19.375 20.1875 L 20.636719 20.1875 C 20.679688 20.1875 20.71875 20.167969 20.742188 20.132812 C 20.765625 20.101562 20.769531 20.058594 20.753906 20.019531 L 18.386719 13.867188 C 18.371094 13.820312 18.324219 13.789062 18.273438 13.789062 L 17.324219 13.789062 C 17.273438 13.789062 17.226562 13.820312 17.210938 13.867188 L 14.84375 20.019531 C 14.828125 20.058594 14.832031 20.101562 14.855469 20.132812 C 14.878906 20.167969 14.917969 20.1875 14.960938 20.1875 Z M 17.410156 14.035156 L 18.1875 14.035156 L 20.457031 19.9375 L 19.460938 19.9375 L 18.542969 17.652344 C 18.523438 17.605469 18.480469 17.574219 18.429688 17.574219 L 17.167969 17.574219 C 17.117188 17.574219 17.070312 17.605469 17.050781 17.652344 L 16.136719 19.9375 L 15.140625 19.9375 Z M 17.410156 14.035156 " fill-opacity="1" fill-rule="nonzero"/><path fill="#fcffff" d="M 17.167969 16.875 L 18.429688 16.875 C 18.46875 16.875 18.507812 16.855469 18.53125 16.824219 C 18.554688 16.789062 18.558594 16.746094 18.546875 16.710938 L 17.914062 14.972656 C 17.898438 14.925781 17.851562 14.890625 17.796875 14.890625 C 17.746094 14.890625 17.699219 14.925781 17.679688 14.972656 L 17.050781 16.710938 C 17.035156 16.746094 17.042969 16.789062 17.066406 16.824219 C 17.089844 16.855469 17.125 16.875 17.167969 16.875 Z M 17.796875 15.382812 L 18.25 16.628906 L 17.34375 16.628906 Z M 17.796875 15.382812 " fill-opacity="1" fill-rule="nonzero"/><path fill="#fcffff" d="M 26.667969 21.207031 C 25.570312 20.882812 24.4375 20.777344 23.308594 20.886719 C 22.101562 21.003906 20.910156 21.378906 19.847656 21.972656 C 18.789062 21.378906 17.59375 21.003906 16.390625 20.886719 C 15.257812 20.777344 14.128906 20.882812 13.03125 21.207031 C 12.976562 21.222656 12.941406 21.269531 12.941406 21.324219 L 12.941406 24.164062 C 12.941406 24.207031 12.964844 24.25 13 24.269531 C 13.035156 24.292969 13.082031 24.296875 13.121094 24.277344 C 13.824219 23.929688 14.957031 23.539062 16.367188 23.660156 C 17.5625 23.757812 18.5 24.199219 19.097656 24.570312 C 19.09375 24.59375 19.09375 24.613281 19.09375 24.636719 C 19.09375 25.054688 19.433594 25.394531 19.847656 25.394531 C 20.265625 25.394531 20.605469 25.054688 20.605469 24.636719 C 20.605469 24.613281 20.601562 24.59375 20.601562 24.570312 C 21.195312 24.199219 22.132812 23.757812 23.328125 23.660156 C 24.738281 23.539062 25.871094 23.929688 26.574219 24.277344 C 26.613281 24.296875 26.660156 24.292969 26.695312 24.269531 C 26.734375 24.25 26.757812 24.207031 26.757812 24.164062 L 26.757812 21.324219 C 26.757812 21.269531 26.71875 21.222656 26.667969 21.207031 Z M 23.332031 21.132812 C 24.398438 21.03125 25.46875 21.125 26.507812 21.417969 L 26.507812 22.882812 C 25.53125 22.535156 24.484375 22.390625 23.46875 22.464844 C 21.941406 22.570312 20.75 23.125 19.972656 23.621094 L 19.972656 22.976562 C 20.238281 22.824219 21.394531 22.214844 23.015625 22.082031 C 23.082031 22.074219 23.132812 22.015625 23.128906 21.945312 C 23.121094 21.878906 23.0625 21.824219 22.992188 21.832031 C 21.492188 21.957031 20.394531 22.464844 19.972656 22.691406 L 19.972656 22.1875 C 21.003906 21.613281 22.164062 21.25 23.332031 21.132812 Z M 13.191406 21.417969 C 14.230469 21.125 15.296875 21.03125 16.367188 21.132812 C 17.535156 21.25 18.695312 21.613281 19.722656 22.1875 L 19.722656 22.691406 C 19.300781 22.464844 18.207031 21.957031 16.703125 21.832031 C 16.632812 21.824219 16.574219 21.878906 16.570312 21.945312 C 16.5625 22.015625 16.613281 22.074219 16.683594 22.082031 C 18.296875 22.214844 19.457031 22.824219 19.722656 22.976562 L 19.722656 23.617188 C 18.945312 23.125 17.753906 22.570312 16.230469 22.464844 C 16.058594 22.453125 15.886719 22.445312 15.71875 22.445312 C 14.863281 22.445312 14 22.59375 13.191406 22.882812 Z M 13.191406 21.417969 " fill-opacity="1" fill-rule="nonzero"/><path fill="#fcffff" d="M 22.214844 16.628906 C 21.277344 16.628906 20.511719 17.390625 20.511719 18.328125 C 20.511719 19.269531 21.277344 20.03125 22.214844 20.03125 C 22.640625 20.03125 23.042969 19.875 23.351562 19.59375 L 23.351562 19.90625 C 23.351562 19.976562 23.40625 20.03125 23.476562 20.03125 L 24.421875 20.03125 C 24.492188 20.03125 24.546875 19.976562 24.546875 19.90625 L 24.546875 15.648438 C 24.546875 15.609375 24.527344 15.570312 24.496094 15.546875 C 24.167969 15.304688 23.480469 14.890625 22.53125 14.890625 C 22.121094 14.890625 21.324219 14.976562 20.5625 15.546875 C 20.53125 15.570312 20.511719 15.609375 20.511719 15.648438 L 20.511719 16.59375 C 20.511719 16.644531 20.542969 16.6875 20.589844 16.707031 C 20.636719 16.726562 20.691406 16.71875 20.726562 16.683594 C 20.875 16.535156 21.417969 16.0625 22.210938 16.085938 C 22.742188 16.105469 23.140625 16.335938 23.351562 16.496094 L 23.351562 17.0625 C 23.042969 16.785156 22.640625 16.628906 22.214844 16.628906 Z M 23.554688 16.339844 C 23.332031 16.160156 22.863281 15.859375 22.21875 15.839844 C 21.554688 15.816406 21.046875 16.105469 20.761719 16.320312 L 20.761719 15.710938 C 21.449219 15.214844 22.160156 15.140625 22.53125 15.140625 C 23.363281 15.140625 23.976562 15.480469 24.296875 15.710938 L 24.296875 19.78125 L 23.601562 19.78125 L 23.601562 19.273438 C 23.601562 19.21875 23.566406 19.171875 23.515625 19.152344 C 23.464844 19.136719 23.410156 19.15625 23.375 19.199219 C 23.097656 19.570312 22.675781 19.78125 22.214844 19.78125 C 21.414062 19.78125 20.761719 19.128906 20.761719 18.328125 C 20.761719 17.527344 21.414062 16.875 22.214844 16.875 C 22.675781 16.875 23.097656 17.089844 23.375 17.460938 C 23.410156 17.503906 23.464844 17.519531 23.515625 17.503906 C 23.566406 17.488281 23.601562 17.4375 23.601562 17.386719 L 23.601562 16.4375 C 23.601562 16.398438 23.582031 16.363281 23.554688 16.339844 Z M 23.554688 16.339844 " fill-opacity="1" fill-rule="nonzero"/><path fill="#fcffff" d="M 22.214844 17.417969 C 21.710938 17.417969 21.300781 17.824219 21.300781 18.328125 C 21.300781 18.832031 21.710938 19.242188 22.214844 19.242188 C 22.71875 19.242188 23.128906 18.832031 23.128906 18.328125 C 23.128906 17.824219 22.71875 17.417969 22.214844 17.417969 Z M 22.214844 18.992188 C 21.847656 18.992188 21.550781 18.695312 21.550781 18.328125 C 21.550781 17.964844 21.847656 17.664062 22.214844 17.664062 C 22.582031 17.664062 22.878906 17.964844 22.878906 18.328125 C 22.878906 18.695312 22.582031 18.992188 22.214844 18.992188 Z M 22.214844 18.992188 " fill-opacity="1" fill-rule="nonzero"/></svg>