<svg xmlns="http://www.w3.org/2000/svg" xmlns:xlink="http://www.w3.org/1999/xlink" width="155" zoomAndPan="magnify" viewBox="0 0 116.25 39.749999" height="53" preserveAspectRatio="xMidYMid meet" version="1.0"><defs><g/><clipPath id="6023c12ed0"><path d="M 0 0.910156 L 108.679688 0.910156 L 108.679688 34.59375 L 0 34.59375 Z M 0 0.910156 " clip-rule="nonzero"/></clipPath><clipPath id="404e72209b"><path d="M 5.214844 0.910156 L 103.34375 0.910156 C 104.726562 0.910156 106.054688 1.460938 107.03125 2.4375 C 108.011719 3.414062 108.558594 4.742188 108.558594 6.125 L 108.558594 29.375 C 108.558594 30.757812 108.011719 32.085938 107.03125 33.0625 C 106.054688 34.042969 104.726562 34.59375 103.34375 34.59375 L 5.214844 34.59375 C 3.832031 34.59375 2.507812 34.042969 1.527344 33.0625 C 0.550781 32.085938 0 30.757812 0 29.375 L 0 6.125 C 0 4.742188 0.550781 3.414062 1.527344 2.4375 C 2.507812 1.460938 3.832031 0.910156 5.214844 0.910156 Z M 5.214844 0.910156 " clip-rule="nonzero"/></clipPath><clipPath id="049bf4b2aa"><path d="M 0 0.910156 L 108.546875 0.910156 L 108.546875 34.59375 L 0 34.59375 Z M 0 0.910156 " clip-rule="nonzero"/></clipPath><clipPath id="8ef6989976"><path d="M 5.214844 0.910156 L 103.34375 0.910156 C 104.726562 0.910156 106.054688 1.460938 107.03125 2.4375 C 108.011719 3.414062 108.558594 4.742188 108.558594 6.125 L 108.558594 29.375 C 108.558594 30.757812 108.011719 32.085938 107.03125 33.0625 C 106.054688 34.042969 104.726562 34.59375 103.34375 34.59375 L 5.214844 34.59375 C 3.832031 34.59375 2.507812 34.042969 1.527344 33.0625 C 0.550781 32.085938 0 30.757812 0 29.375 L 0 6.125 C 0 4.742188 0.550781 3.414062 1.527344 2.4375 C 2.507812 1.460938 3.832031 0.910156 5.214844 0.910156 Z M 5.214844 0.910156 " clip-rule="nonzero"/></clipPath><radialGradient gradientTransform="matrix(1, 0, 0, 1, -0.000847226, 0.909455)" gradientUnits="userSpaceOnUse" r="113.665004" cx="0" id="1022fdf855" cy="0" fx="0" fy="0"><stop stop-opacity="1" stop-color="rgb(99.993896%, 53.918457%, 1.556396%)" offset="0"/><stop stop-opacity="1" stop-color="rgb(99.983215%, 54.251099%, 1.535034%)" offset="0.015625"/><stop stop-opacity="1" stop-color="rgb(99.97406%, 54.536438%, 1.516724%)" offset="0.0273438"/><stop stop-opacity="1" stop-color="rgb(99.964905%, 54.820251%, 1.498413%)" offset="0.0390625"/><stop stop-opacity="1" stop-color="rgb(99.95575%, 55.105591%, 1.480103%)" offset="0.0507812"/><stop stop-opacity="1" stop-color="rgb(99.946594%, 55.39093%, 1.461792%)" offset="0.0625"/><stop stop-opacity="1" stop-color="rgb(99.937439%, 55.674744%, 1.443481%)" offset="0.0742188"/><stop stop-opacity="1" stop-color="rgb(99.928284%, 55.960083%, 1.425171%)" offset="0.0859375"/><stop stop-opacity="1" stop-color="rgb(99.919128%, 56.245422%, 1.40686%)" offset="0.0976562"/><stop stop-opacity="1" stop-color="rgb(99.909973%, 56.530762%, 1.38855%)" offset="0.109375"/><stop stop-opacity="1" stop-color="rgb(99.900818%, 56.814575%, 1.370239%)" offset="0.121094"/><stop stop-opacity="1" stop-color="rgb(99.891663%, 57.099915%, 1.351929%)" offset="0.132812"/><stop stop-opacity="1" stop-color="rgb(99.882507%, 57.385254%, 1.333618%)" offset="0.144531"/><stop stop-opacity="1" stop-color="rgb(99.873352%, 57.669067%, 1.315308%)" offset="0.15625"/><stop stop-opacity="1" stop-color="rgb(99.864197%, 57.954407%, 1.296997%)" offset="0.167969"/><stop stop-opacity="1" stop-color="rgb(99.855042%, 58.239746%, 1.277161%)" offset="0.179688"/><stop stop-opacity="1" stop-color="rgb(99.845886%, 58.52356%, 1.25885%)" offset="0.191406"/><stop stop-opacity="1" stop-color="rgb(99.836731%, 58.808899%, 1.24054%)" offset="0.203125"/><stop stop-opacity="1" stop-color="rgb(99.827576%, 59.094238%, 1.222229%)" offset="0.214844"/><stop stop-opacity="1" stop-color="rgb(99.81842%, 59.379578%, 1.203918%)" offset="0.226562"/><stop stop-opacity="1" stop-color="rgb(99.809265%, 59.663391%, 1.185608%)" offset="0.238281"/><stop stop-opacity="1" stop-color="rgb(99.80011%, 59.94873%, 1.167297%)" offset="0.25"/><stop stop-opacity="1" stop-color="rgb(99.79248%, 60.186768%, 1.152039%)" offset="0.261719"/><stop stop-opacity="1" stop-color="rgb(99.786377%, 60.375977%, 1.139832%)" offset="0.269531"/><stop stop-opacity="1" stop-color="rgb(99.780273%, 60.566711%, 1.127625%)" offset="0.277344"/><stop stop-opacity="1" stop-color="rgb(99.77417%, 60.75592%, 1.115417%)" offset="0.285156"/><stop stop-opacity="1" stop-color="rgb(99.768066%, 60.946655%, 1.10321%)" offset="0.292969"/><stop stop-opacity="1" stop-color="rgb(99.761963%, 61.135864%, 1.091003%)" offset="0.300781"/><stop stop-opacity="1" stop-color="rgb(99.755859%, 61.325073%, 1.078796%)" offset="0.308594"/><stop stop-opacity="1" stop-color="rgb(99.749756%, 61.515808%, 1.066589%)" offset="0.316406"/><stop stop-opacity="1" stop-color="rgb(99.743652%, 61.705017%, 1.054382%)" offset="0.324219"/><stop stop-opacity="1" stop-color="rgb(99.737549%, 61.895752%, 1.042175%)" offset="0.332031"/><stop stop-opacity="1" stop-color="rgb(99.731445%, 62.084961%, 1.029968%)" offset="0.339844"/><stop stop-opacity="1" stop-color="rgb(99.725342%, 62.275696%, 1.017761%)" offset="0.347656"/><stop stop-opacity="1" stop-color="rgb(99.719238%, 62.464905%, 1.005554%)" offset="0.355469"/><stop stop-opacity="1" stop-color="rgb(99.713135%, 62.65564%, 0.993347%)" offset="0.363281"/><stop stop-opacity="1" stop-color="rgb(99.707031%, 62.844849%, 0.98114%)" offset="0.371094"/><stop stop-opacity="1" stop-color="rgb(99.697876%, 63.130188%, 0.961304%)" offset="0.378906"/><stop stop-opacity="1" stop-color="rgb(99.685669%, 63.510132%, 0.93689%)" offset="0.394531"/><stop stop-opacity="1" stop-color="rgb(99.673462%, 63.890076%, 0.912476%)" offset="0.410156"/><stop stop-opacity="1" stop-color="rgb(99.661255%, 64.268494%, 0.888062%)" offset="0.425781"/><stop stop-opacity="1" stop-color="rgb(99.649048%, 64.648438%, 0.863647%)" offset="0.441406"/><stop stop-opacity="1" stop-color="rgb(99.636841%, 65.028381%, 0.839233%)" offset="0.457031"/><stop stop-opacity="1" stop-color="rgb(99.624634%, 65.408325%, 0.814819%)" offset="0.472656"/><stop stop-opacity="1" stop-color="rgb(99.612427%, 65.788269%, 0.790405%)" offset="0.488281"/><stop stop-opacity="1" stop-color="rgb(99.601746%, 66.120911%, 0.769043%)" offset="0.503906"/><stop stop-opacity="1" stop-color="rgb(99.59259%, 66.40625%, 0.750732%)" offset="0.515625"/><stop stop-opacity="1" stop-color="rgb(99.583435%, 66.691589%, 0.732422%)" offset="0.527344"/><stop stop-opacity="1" stop-color="rgb(99.57428%, 66.975403%, 0.714111%)" offset="0.539062"/><stop stop-opacity="1" stop-color="rgb(99.565125%, 67.260742%, 0.695801%)" offset="0.550781"/><stop stop-opacity="1" stop-color="rgb(99.555969%, 67.546082%, 0.67749%)" offset="0.5625"/><stop stop-opacity="1" stop-color="rgb(99.546814%, 67.829895%, 0.65918%)" offset="0.574219"/><stop stop-opacity="1" stop-color="rgb(99.537659%, 68.115234%, 0.639343%)" offset="0.585938"/><stop stop-opacity="1" stop-color="rgb(99.528503%, 68.400574%, 0.621033%)" offset="0.597656"/><stop stop-opacity="1" stop-color="rgb(99.519348%, 68.684387%, 0.602722%)" offset="0.609375"/><stop stop-opacity="1" stop-color="rgb(99.510193%, 68.969727%, 0.584412%)" offset="0.621094"/><stop stop-opacity="1" stop-color="rgb(99.502563%, 69.207764%, 0.569153%)" offset="0.632812"/><stop stop-opacity="1" stop-color="rgb(99.49646%, 69.396973%, 0.556946%)" offset="0.640625"/><stop stop-opacity="1" stop-color="rgb(99.490356%, 69.587708%, 0.544739%)" offset="0.648438"/><stop stop-opacity="1" stop-color="rgb(99.484253%, 69.776917%, 0.532532%)" offset="0.65625"/><stop stop-opacity="1" stop-color="rgb(99.478149%, 69.967651%, 0.520325%)" offset="0.664062"/><stop stop-opacity="1" stop-color="rgb(99.472046%, 70.15686%, 0.508118%)" offset="0.671875"/><stop stop-opacity="1" stop-color="rgb(99.465942%, 70.347595%, 0.495911%)" offset="0.679688"/><stop stop-opacity="1" stop-color="rgb(99.459839%, 70.536804%, 0.483704%)" offset="0.6875"/><stop stop-opacity="1" stop-color="rgb(99.450684%, 70.822144%, 0.465393%)" offset="0.695312"/><stop stop-opacity="1" stop-color="rgb(99.438477%, 71.202087%, 0.440979%)" offset="0.710938"/><stop stop-opacity="1" stop-color="rgb(99.42627%, 71.580505%, 0.416565%)" offset="0.726562"/><stop stop-opacity="1" stop-color="rgb(99.414062%, 71.960449%, 0.392151%)" offset="0.742188"/><stop stop-opacity="1" stop-color="rgb(99.403381%, 72.293091%, 0.370789%)" offset="0.757812"/><stop stop-opacity="1" stop-color="rgb(99.394226%, 72.57843%, 0.352478%)" offset="0.769531"/><stop stop-opacity="1" stop-color="rgb(99.385071%, 72.86377%, 0.334167%)" offset="0.78125"/><stop stop-opacity="1" stop-color="rgb(99.375916%, 73.147583%, 0.314331%)" offset="0.792969"/><stop stop-opacity="1" stop-color="rgb(99.36676%, 73.432922%, 0.296021%)" offset="0.804688"/><stop stop-opacity="1" stop-color="rgb(99.359131%, 73.670959%, 0.280762%)" offset="0.816406"/><stop stop-opacity="1" stop-color="rgb(99.353027%, 73.860168%, 0.268555%)" offset="0.824219"/><stop stop-opacity="1" stop-color="rgb(99.346924%, 74.050903%, 0.256348%)" offset="0.832031"/><stop stop-opacity="1" stop-color="rgb(99.34082%, 74.240112%, 0.244141%)" offset="0.839844"/><stop stop-opacity="1" stop-color="rgb(99.331665%, 74.525452%, 0.22583%)" offset="0.847656"/><stop stop-opacity="1" stop-color="rgb(99.319458%, 74.905396%, 0.201416%)" offset="0.863281"/><stop stop-opacity="1" stop-color="rgb(99.308777%, 75.238037%, 0.180054%)" offset="0.878906"/><stop stop-opacity="1" stop-color="rgb(99.299622%, 75.521851%, 0.161743%)" offset="0.890625"/><stop stop-opacity="1" stop-color="rgb(99.290466%, 75.80719%, 0.143433%)" offset="0.902344"/><stop stop-opacity="1" stop-color="rgb(99.282837%, 76.045227%, 0.128174%)" offset="0.914062"/><stop stop-opacity="1" stop-color="rgb(99.276733%, 76.234436%, 0.115967%)" offset="0.921875"/><stop stop-opacity="1" stop-color="rgb(99.267578%, 76.519775%, 0.0976562%)" offset="0.929688"/><stop stop-opacity="1" stop-color="rgb(99.256897%, 76.852417%, 0.0762939%)" offset="0.945312"/><stop stop-opacity="1" stop-color="rgb(99.249268%, 77.088928%, 0.0610352%)" offset="0.957031"/><stop stop-opacity="1" stop-color="rgb(99.240112%, 77.374268%, 0.0427246%)" offset="0.964844"/><stop stop-opacity="1" stop-color="rgb(99.230957%, 77.659607%, 0.0244141%)" offset="0.980469"/><stop stop-opacity="1" stop-color="rgb(99.223328%, 77.896118%, 0.00915527%)" offset="0.988281"/><stop stop-opacity="1" stop-color="rgb(99.21875%, 78.039551%, 0%)" offset="1"/></radialGradient><clipPath id="6cffdd3ad1"><rect x="0" width="109" y="0" height="35"/></clipPath><clipPath id="cc7985c727"><path d="M 11.238281 7.628906 L 27.859375 7.628906 L 27.859375 27 L 11.238281 27 Z M 11.238281 7.628906 " clip-rule="nonzero"/></clipPath><clipPath id="5ad4092654"><rect x="0" width="62" y="0" height="23"/></clipPath><clipPath id="0c0d2fb420"><rect x="0" width="109" y="0" height="35"/></clipPath></defs><g transform="matrix(1, 0, 0, 1, 0, 2)"><g clip-path="url(#0c0d2fb420)"><g clip-path="url(#6023c12ed0)"><g clip-path="url(#404e72209b)"><g transform="matrix(1, 0, 0, 1, 0, -0.000000000000000444)"><g clip-path="url(#6cffdd3ad1)"><g clip-path="url(#049bf4b2aa)"><g clip-path="url(#8ef6989976)"><path fill="url(#1022fdf855)" d="M 0 0.910156 L 0 34.59375 L 108.546875 34.59375 L 108.546875 0.910156 Z M 0 0.910156 " fill-rule="nonzero"/></g></g></g></g></g></g><g clip-path="url(#cc7985c727)"><path fill="#fcffff" d="M 26.3125 13.902344 C 26.363281 13.867188 26.398438 13.820312 26.421875 13.765625 C 26.597656 13.347656 26.632812 12.917969 26.527344 12.480469 C 26.421875 12.039062 26.195312 11.671875 25.851562 11.382812 C 25.484375 11.101562 25.074219 10.957031 24.613281 10.949219 C 24.152344 10.945312 23.738281 11.078125 23.367188 11.351562 C 23.347656 11.363281 23.328125 11.378906 23.3125 11.398438 C 22.515625 11.011719 21.679688 10.769531 20.800781 10.664062 L 20.800781 9.445312 L 21.746094 9.445312 C 21.855469 9.445312 21.941406 9.402344 22.003906 9.316406 C 22.070312 9.230469 22.085938 9.136719 22.058594 9.03125 C 22.070312 8.996094 22.078125 8.960938 22.078125 8.921875 L 22.078125 7.960938 C 22.078125 7.871094 22.046875 7.792969 21.980469 7.730469 C 21.914062 7.664062 21.839844 7.632812 21.746094 7.628906 C 21.707031 7.632812 21.664062 7.640625 21.625 7.65625 C 21.582031 7.640625 21.539062 7.628906 21.492188 7.628906 L 18.101562 7.628906 C 17.988281 7.625 17.898438 7.671875 17.835938 7.769531 C 17.667969 7.808594 17.578125 7.914062 17.578125 8.089844 L 17.578125 9.050781 C 17.578125 9.078125 17.582031 9.105469 17.589844 9.132812 C 17.589844 9.21875 17.621094 9.292969 17.683594 9.355469 C 17.746094 9.417969 17.820312 9.449219 17.910156 9.445312 L 18.855469 9.445312 L 18.855469 10.667969 C 17.964844 10.78125 17.117188 11.035156 16.316406 11.4375 C 16.292969 11.402344 16.265625 11.375 16.234375 11.351562 C 15.863281 11.078125 15.449219 10.945312 14.988281 10.949219 C 14.527344 10.957031 14.117188 11.101562 13.75 11.382812 C 13.40625 11.671875 13.179688 12.039062 13.074219 12.480469 C 12.96875 12.917969 13.003906 13.347656 13.179688 13.765625 C 13.214844 13.855469 13.273438 13.914062 13.363281 13.941406 C 13.183594 14.199219 13.015625 14.460938 12.863281 14.738281 C 12.714844 15.011719 12.578125 15.292969 12.460938 15.582031 C 12.34375 15.875 12.242188 16.167969 12.160156 16.472656 C 12.074219 16.773438 12.011719 17.078125 11.960938 17.390625 C 11.914062 17.699219 11.886719 18.011719 11.875 18.324219 C 11.867188 18.636719 11.875 18.949219 11.898438 19.261719 C 11.925781 19.574219 11.96875 19.882812 12.03125 20.191406 C 12.097656 20.5 12.175781 20.800781 12.273438 21.097656 C 12.371094 21.394531 12.488281 21.6875 12.621094 21.96875 C 12.753906 22.253906 12.902344 22.527344 13.066406 22.796875 C 13.230469 23.0625 13.410156 23.316406 13.605469 23.5625 C 13.800781 23.808594 14.011719 24.042969 14.234375 24.261719 C 14.457031 24.484375 14.691406 24.6875 14.9375 24.882812 C 15.183594 25.074219 15.441406 25.253906 15.710938 25.417969 C 15.976562 25.578125 16.253906 25.726562 16.539062 25.855469 C 16.824219 25.984375 17.113281 26.097656 17.414062 26.195312 C 17.710938 26.289062 18.015625 26.367188 18.320312 26.429688 C 18.628906 26.488281 18.941406 26.53125 19.253906 26.554688 C 19.566406 26.578125 19.878906 26.582031 20.191406 26.570312 C 20.503906 26.558594 20.816406 26.527344 21.125 26.476562 C 21.433594 26.425781 21.738281 26.359375 22.039062 26.273438 C 22.339844 26.1875 22.636719 26.082031 22.925781 25.964844 C 23.214844 25.84375 23.496094 25.707031 23.769531 25.550781 C 24.042969 25.398438 24.304688 25.230469 24.558594 25.042969 C 24.8125 24.859375 25.054688 24.660156 25.285156 24.449219 C 25.511719 24.234375 25.730469 24.007812 25.933594 23.769531 C 26.136719 23.53125 26.324219 23.28125 26.5 23.023438 C 26.671875 22.761719 26.832031 22.492188 26.972656 22.210938 C 27.113281 21.933594 27.238281 21.644531 27.347656 21.351562 C 27.457031 21.058594 27.546875 20.757812 27.621094 20.453125 C 27.691406 20.148438 27.746094 19.839844 27.785156 19.53125 C 27.820312 19.21875 27.839844 18.90625 27.839844 18.59375 C 27.839844 16.863281 27.332031 15.300781 26.3125 13.902344 Z M 25.4375 11.902344 C 25.644531 12.078125 25.785156 12.296875 25.863281 12.558594 C 25.941406 12.820312 25.941406 13.082031 25.867188 13.347656 C 25.316406 12.71875 24.6875 12.1875 23.972656 11.757812 C 24.210938 11.636719 24.460938 11.59375 24.722656 11.617188 C 24.988281 11.644531 25.226562 11.738281 25.4375 11.898438 Z M 18.242188 8.78125 L 18.242188 8.292969 L 21.414062 8.292969 L 21.414062 8.78125 Z M 20.136719 9.445312 L 20.136719 10.613281 C 20.042969 10.609375 19.949219 10.605469 19.855469 10.605469 C 19.742188 10.605469 19.632812 10.609375 19.519531 10.613281 L 19.519531 9.445312 Z M 14.167969 11.898438 C 14.386719 11.730469 14.632812 11.636719 14.910156 11.617188 C 15.183594 11.59375 15.445312 11.652344 15.6875 11.785156 C 14.957031 12.234375 14.320312 12.78125 13.765625 13.433594 C 13.667969 13.160156 13.652344 12.882812 13.726562 12.605469 C 13.800781 12.324219 13.949219 12.089844 14.167969 11.898438 Z M 19.855469 25.914062 C 19.371094 25.914062 18.898438 25.867188 18.425781 25.773438 C 17.953125 25.679688 17.496094 25.542969 17.050781 25.359375 C 16.605469 25.175781 16.183594 24.949219 15.785156 24.683594 C 15.382812 24.414062 15.015625 24.109375 14.675781 23.769531 C 14.335938 23.429688 14.03125 23.0625 13.761719 22.660156 C 13.496094 22.261719 13.269531 21.839844 13.085938 21.394531 C 12.902344 20.949219 12.761719 20.492188 12.667969 20.019531 C 12.574219 19.550781 12.527344 19.074219 12.527344 18.59375 C 12.527344 18.113281 12.574219 17.636719 12.667969 17.164062 C 12.761719 16.691406 12.902344 16.234375 13.085938 15.789062 C 13.269531 15.34375 13.496094 14.921875 13.761719 14.523438 C 14.03125 14.125 14.335938 13.753906 14.675781 13.414062 C 15.015625 13.074219 15.382812 12.769531 15.785156 12.503906 C 16.183594 12.234375 16.605469 12.007812 17.050781 11.824219 C 17.496094 11.640625 17.953125 11.503906 18.425781 11.410156 C 18.894531 11.316406 19.371094 11.269531 19.851562 11.269531 C 20.335938 11.269531 20.808594 11.316406 21.28125 11.410156 C 21.753906 11.503906 22.210938 11.640625 22.65625 11.824219 C 23.101562 12.011719 23.523438 12.234375 23.921875 12.503906 C 24.320312 12.769531 24.691406 13.074219 25.03125 13.414062 C 25.371094 13.753906 25.675781 14.125 25.941406 14.523438 C 26.210938 14.925781 26.433594 15.347656 26.621094 15.789062 C 26.804688 16.234375 26.941406 16.691406 27.035156 17.164062 C 27.128906 17.636719 27.175781 18.113281 27.175781 18.59375 C 27.175781 19.074219 27.128906 19.550781 27.035156 20.019531 C 26.941406 20.492188 26.800781 20.949219 26.617188 21.394531 C 26.433594 21.839844 26.207031 22.261719 25.941406 22.660156 C 25.671875 23.058594 25.367188 23.429688 25.027344 23.769531 C 24.6875 24.109375 24.320312 24.410156 23.917969 24.679688 C 23.519531 24.945312 23.097656 25.171875 22.65625 25.355469 C 22.210938 25.539062 21.753906 25.679688 21.28125 25.773438 C 20.808594 25.867188 20.335938 25.914062 19.855469 25.914062 Z M 23.488281 15.980469 C 23.5625 16.054688 23.597656 16.144531 23.597656 16.246094 C 23.597656 16.351562 23.5625 16.441406 23.488281 16.511719 L 19.753906 20.25 C 19.683594 20.324219 19.59375 20.363281 19.488281 20.363281 C 19.382812 20.363281 19.296875 20.324219 19.222656 20.253906 C 19.207031 20.238281 19.191406 20.222656 19.179688 20.203125 L 17.644531 18.375 C 17.574219 18.292969 17.546875 18.195312 17.5625 18.089844 C 17.578125 17.980469 17.628906 17.894531 17.714844 17.832031 C 17.804688 17.769531 17.902344 17.746094 18.007812 17.769531 C 18.113281 17.789062 18.195312 17.84375 18.253906 17.9375 L 19.53125 19.410156 L 22.953125 15.980469 C 23.027344 15.910156 23.117188 15.875 23.21875 15.875 C 23.324219 15.875 23.414062 15.910156 23.488281 15.980469 Z M 19.855469 12.292969 C 19.441406 12.292969 19.03125 12.332031 18.625 12.414062 C 18.222656 12.492188 17.828125 12.613281 17.445312 12.769531 C 17.066406 12.929688 16.703125 13.121094 16.359375 13.351562 C 16.015625 13.582031 15.699219 13.839844 15.40625 14.132812 C 15.113281 14.425781 14.855469 14.742188 14.625 15.085938 C 14.394531 15.429688 14.203125 15.792969 14.042969 16.171875 C 13.886719 16.554688 13.765625 16.949219 13.683594 17.351562 C 13.605469 17.757812 13.5625 18.167969 13.5625 18.578125 C 13.5625 18.992188 13.605469 19.402344 13.683594 19.804688 C 13.765625 20.210938 13.882812 20.605469 14.042969 20.984375 C 14.199219 21.367188 14.394531 21.730469 14.625 22.074219 C 14.851562 22.417969 15.113281 22.734375 15.40625 23.027344 C 15.699219 23.316406 16.015625 23.578125 16.359375 23.808594 C 16.703125 24.039062 17.0625 24.230469 17.445312 24.390625 C 17.828125 24.546875 18.21875 24.667969 18.625 24.746094 C 19.03125 24.828125 19.4375 24.867188 19.851562 24.867188 C 20.265625 24.867188 20.671875 24.828125 21.078125 24.75 C 21.484375 24.667969 21.875 24.546875 22.257812 24.390625 C 22.640625 24.234375 23.003906 24.039062 23.34375 23.808594 C 23.6875 23.582031 24.007812 23.320312 24.296875 23.027344 C 24.589844 22.734375 24.851562 22.417969 25.082031 22.074219 C 25.308594 21.730469 25.503906 21.371094 25.664062 20.988281 C 25.820312 20.605469 25.941406 20.214844 26.019531 19.808594 C 26.101562 19.402344 26.140625 18.996094 26.140625 18.582031 C 26.140625 18.167969 26.101562 17.757812 26.019531 17.355469 C 25.9375 16.949219 25.820312 16.558594 25.660156 16.175781 C 25.503906 15.792969 25.308594 15.433594 25.078125 15.089844 C 24.851562 14.746094 24.589844 14.429688 24.296875 14.136719 C 24.007812 13.84375 23.6875 13.582031 23.34375 13.355469 C 23.003906 13.125 22.640625 12.929688 22.257812 12.773438 C 21.878906 12.613281 21.484375 12.496094 21.078125 12.414062 C 20.675781 12.332031 20.265625 12.292969 19.855469 12.292969 Z M 20.09375 24.179688 C 20.09375 24.167969 20.097656 24.15625 20.097656 24.140625 L 20.097656 23.117188 C 20.097656 23.027344 20.0625 22.949219 20 22.882812 C 19.933594 22.820312 19.855469 22.785156 19.765625 22.785156 C 19.671875 22.785156 19.59375 22.820312 19.53125 22.882812 C 19.464844 22.949219 19.433594 23.027344 19.433594 23.117188 L 19.433594 24.140625 C 19.433594 24.152344 19.433594 24.160156 19.4375 24.167969 C 18.773438 24.121094 18.144531 23.957031 17.539062 23.683594 C 16.9375 23.410156 16.398438 23.039062 15.925781 22.574219 C 15.453125 22.113281 15.074219 21.582031 14.792969 20.980469 C 14.507812 20.382812 14.332031 19.753906 14.273438 19.097656 C 14.289062 19.097656 14.308594 19.101562 14.328125 19.101562 L 15.097656 19.101562 C 15.1875 19.101562 15.265625 19.066406 15.332031 19.003906 C 15.433594 18.898438 15.460938 18.777344 15.402344 18.640625 C 15.347656 18.503906 15.242188 18.4375 15.097656 18.4375 L 14.328125 18.4375 C 14.300781 18.4375 14.277344 18.441406 14.25 18.449219 C 14.257812 18.105469 14.296875 17.769531 14.367188 17.433594 C 14.4375 17.097656 14.539062 16.773438 14.667969 16.457031 C 14.800781 16.140625 14.957031 15.839844 15.140625 15.550781 C 15.324219 15.261719 15.535156 14.996094 15.769531 14.746094 C 16.003906 14.496094 16.257812 14.269531 16.535156 14.066406 C 16.808594 13.863281 17.101562 13.6875 17.40625 13.539062 C 17.714844 13.390625 18.035156 13.269531 18.363281 13.179688 C 18.691406 13.085938 19.027344 13.027344 19.367188 12.996094 L 19.367188 14.039062 C 19.367188 14.128906 19.402344 14.207031 19.464844 14.273438 C 19.53125 14.335938 19.609375 14.371094 19.699219 14.371094 C 19.792969 14.371094 19.871094 14.335938 19.933594 14.273438 C 20 14.207031 20.03125 14.128906 20.03125 14.039062 L 20.03125 12.976562 C 20.378906 12.988281 20.722656 13.03125 21.058594 13.105469 C 21.398438 13.183594 21.726562 13.289062 22.042969 13.421875 C 22.363281 13.558594 22.667969 13.722656 22.957031 13.914062 C 23.242188 14.105469 23.511719 14.324219 23.761719 14.5625 C 24.007812 14.804688 24.234375 15.066406 24.433594 15.351562 C 24.632812 15.632812 24.804688 15.933594 24.949219 16.246094 C 25.09375 16.5625 25.207031 16.886719 25.292969 17.222656 C 25.375 17.558594 25.429688 17.902344 25.449219 18.246094 L 24.625 18.246094 C 24.53125 18.246094 24.453125 18.277344 24.390625 18.34375 C 24.324219 18.410156 24.292969 18.488281 24.292969 18.578125 C 24.292969 18.667969 24.324219 18.746094 24.390625 18.8125 C 24.453125 18.878906 24.53125 18.910156 24.625 18.910156 L 25.449219 18.910156 C 25.429688 19.253906 25.378906 19.59375 25.292969 19.925781 C 25.210938 20.261719 25.097656 20.582031 24.957031 20.898438 C 24.8125 21.210938 24.644531 21.507812 24.445312 21.789062 C 24.25 22.070312 24.027344 22.332031 23.785156 22.574219 C 23.539062 22.816406 23.273438 23.03125 22.988281 23.226562 C 22.703125 23.417969 22.402344 23.582031 22.085938 23.71875 C 21.769531 23.859375 21.445312 23.964844 21.109375 24.042969 C 20.777344 24.121094 20.4375 24.167969 20.09375 24.179688 Z M 20.09375 24.179688 " fill-opacity="1" fill-rule="nonzero"/></g><g transform="matrix(1, 0, 0, 1, 36, 6)"><g clip-path="url(#5ad4092654)"><g fill="#fcffff" fill-opacity="1"><g transform="translate(0.86809, 17.570849)"><g><path d="M 6.375 -5.921875 L 10.328125 -5.921875 L 10.328125 -0.4375 C 9.742188 -0.238281 9.132812 -0.09375 8.5 0 C 7.875 0.101562 7.175781 0.15625 6.40625 0.15625 C 5.226562 0.15625 4.234375 -0.078125 3.421875 -0.546875 C 2.617188 -1.015625 2.007812 -1.679688 1.59375 -2.546875 C 1.175781 -3.421875 0.96875 -4.457031 0.96875 -5.65625 C 0.96875 -6.820312 1.195312 -7.84375 1.65625 -8.71875 C 2.125 -9.59375 2.789062 -10.269531 3.65625 -10.75 C 4.53125 -11.226562 5.582031 -11.46875 6.8125 -11.46875 C 7.445312 -11.46875 8.046875 -11.410156 8.609375 -11.296875 C 9.171875 -11.179688 9.695312 -11.019531 10.1875 -10.8125 L 9.671875 -9.65625 C 9.253906 -9.84375 8.796875 -10 8.296875 -10.125 C 7.796875 -10.25 7.273438 -10.3125 6.734375 -10.3125 C 5.816406 -10.3125 5.023438 -10.117188 4.359375 -9.734375 C 3.703125 -9.359375 3.203125 -8.820312 2.859375 -8.125 C 2.515625 -7.4375 2.34375 -6.613281 2.34375 -5.65625 C 2.34375 -4.707031 2.492188 -3.882812 2.796875 -3.1875 C 3.097656 -2.488281 3.570312 -1.945312 4.21875 -1.5625 C 4.863281 -1.175781 5.691406 -0.984375 6.703125 -0.984375 C 7.210938 -0.984375 7.648438 -1.007812 8.015625 -1.0625 C 8.390625 -1.125 8.722656 -1.195312 9.015625 -1.28125 L 9.015625 -4.75 L 6.375 -4.75 Z M 6.375 -5.921875 "/></g></g></g><g fill="#fcffff" fill-opacity="1"><g transform="translate(12.378111, 17.570849)"><g><path d="M 2.640625 -8.484375 L 2.640625 0 L 1.359375 0 L 1.359375 -8.484375 Z M 2.015625 -11.65625 C 2.222656 -11.65625 2.398438 -11.582031 2.546875 -11.4375 C 2.703125 -11.300781 2.78125 -11.09375 2.78125 -10.8125 C 2.78125 -10.519531 2.703125 -10.304688 2.546875 -10.171875 C 2.398438 -10.035156 2.222656 -9.96875 2.015625 -9.96875 C 1.785156 -9.96875 1.597656 -10.035156 1.453125 -10.171875 C 1.304688 -10.304688 1.234375 -10.519531 1.234375 -10.8125 C 1.234375 -11.09375 1.304688 -11.300781 1.453125 -11.4375 C 1.597656 -11.582031 1.785156 -11.65625 2.015625 -11.65625 Z M 2.015625 -11.65625 "/></g></g></g><g fill="#fcffff" fill-opacity="1"><g transform="translate(16.374539, 17.570849)"><g><path d="M 5.375 -8.640625 C 6.375 -8.640625 7.128906 -8.390625 7.640625 -7.890625 C 8.160156 -7.398438 8.421875 -6.613281 8.421875 -5.53125 L 8.421875 0 L 7.15625 0 L 7.15625 -5.4375 C 7.15625 -6.144531 6.992188 -6.671875 6.671875 -7.015625 C 6.347656 -7.367188 5.851562 -7.546875 5.1875 -7.546875 C 4.25 -7.546875 3.585938 -7.28125 3.203125 -6.75 C 2.828125 -6.21875 2.640625 -5.445312 2.640625 -4.4375 L 2.640625 0 L 1.359375 0 L 1.359375 -8.484375 L 2.390625 -8.484375 L 2.578125 -7.25 L 2.65625 -7.25 C 2.832031 -7.550781 3.0625 -7.800781 3.34375 -8 C 3.625 -8.207031 3.9375 -8.363281 4.28125 -8.46875 C 4.625 -8.582031 4.988281 -8.640625 5.375 -8.640625 Z M 5.375 -8.640625 "/></g></g></g><g fill="#fcffff" fill-opacity="1"><g transform="translate(26.083463, 17.570849)"><g><path d="M 4.75 0.15625 C 3.988281 0.15625 3.316406 0 2.734375 -0.3125 C 2.148438 -0.632812 1.691406 -1.113281 1.359375 -1.75 C 1.035156 -2.394531 0.875 -3.207031 0.875 -4.1875 C 0.875 -5.21875 1.046875 -6.054688 1.390625 -6.703125 C 1.734375 -7.359375 2.207031 -7.84375 2.8125 -8.15625 C 3.414062 -8.476562 4.101562 -8.640625 4.875 -8.640625 C 5.300781 -8.640625 5.707031 -8.59375 6.09375 -8.5 C 6.488281 -8.414062 6.816406 -8.3125 7.078125 -8.1875 L 6.6875 -7.109375 C 6.425781 -7.210938 6.125 -7.304688 5.78125 -7.390625 C 5.445312 -7.472656 5.132812 -7.515625 4.84375 -7.515625 C 4.257812 -7.515625 3.769531 -7.382812 3.375 -7.125 C 2.988281 -6.875 2.695312 -6.503906 2.5 -6.015625 C 2.3125 -5.523438 2.21875 -4.921875 2.21875 -4.203125 C 2.21875 -3.515625 2.3125 -2.925781 2.5 -2.4375 C 2.6875 -1.957031 2.96875 -1.585938 3.34375 -1.328125 C 3.71875 -1.078125 4.1875 -0.953125 4.75 -0.953125 C 5.195312 -0.953125 5.597656 -1 5.953125 -1.09375 C 6.316406 -1.195312 6.644531 -1.3125 6.9375 -1.4375 L 6.9375 -0.296875 C 6.65625 -0.148438 6.335938 -0.0390625 5.984375 0.03125 C 5.640625 0.113281 5.226562 0.15625 4.75 0.15625 Z M 4.75 0.15625 "/></g></g></g><g fill="#fcffff" fill-opacity="1"><g transform="translate(33.666627, 17.570849)"><g><path d="M 4.53125 -8.625 C 5.539062 -8.625 6.289062 -8.394531 6.78125 -7.9375 C 7.269531 -7.476562 7.515625 -6.753906 7.515625 -5.765625 L 7.515625 0 L 6.578125 0 L 6.328125 -1.25 L 6.265625 -1.25 C 6.023438 -0.945312 5.773438 -0.6875 5.515625 -0.46875 C 5.265625 -0.257812 4.96875 -0.101562 4.625 0 C 4.289062 0.101562 3.878906 0.15625 3.390625 0.15625 C 2.867188 0.15625 2.410156 0.0664062 2.015625 -0.109375 C 1.617188 -0.296875 1.304688 -0.570312 1.078125 -0.9375 C 0.847656 -1.300781 0.734375 -1.765625 0.734375 -2.328125 C 0.734375 -3.171875 1.066406 -3.816406 1.734375 -4.265625 C 2.398438 -4.722656 3.421875 -4.972656 4.796875 -5.015625 L 6.265625 -5.078125 L 6.265625 -5.59375 C 6.265625 -6.332031 6.101562 -6.847656 5.78125 -7.140625 C 5.46875 -7.429688 5.023438 -7.578125 4.453125 -7.578125 C 4.015625 -7.578125 3.59375 -7.507812 3.1875 -7.375 C 2.78125 -7.25 2.398438 -7.101562 2.046875 -6.9375 L 1.640625 -7.90625 C 2.023438 -8.101562 2.460938 -8.269531 2.953125 -8.40625 C 3.453125 -8.550781 3.976562 -8.625 4.53125 -8.625 Z M 6.25 -4.171875 L 4.953125 -4.125 C 3.890625 -4.082031 3.140625 -3.910156 2.703125 -3.609375 C 2.273438 -3.304688 2.0625 -2.875 2.0625 -2.3125 C 2.0625 -1.820312 2.207031 -1.460938 2.5 -1.234375 C 2.800781 -1.003906 3.191406 -0.890625 3.671875 -0.890625 C 4.421875 -0.890625 5.035156 -1.097656 5.515625 -1.515625 C 6.003906 -1.929688 6.25 -2.554688 6.25 -3.390625 Z M 6.25 -4.171875 "/></g></g></g><g fill="#fcffff" fill-opacity="1"><g transform="translate(42.463407, 17.570849)"><g><path d="M 5.375 -8.640625 C 6.375 -8.640625 7.128906 -8.390625 7.640625 -7.890625 C 8.160156 -7.398438 8.421875 -6.613281 8.421875 -5.53125 L 8.421875 0 L 7.15625 0 L 7.15625 -5.4375 C 7.15625 -6.144531 6.992188 -6.671875 6.671875 -7.015625 C 6.347656 -7.367188 5.851562 -7.546875 5.1875 -7.546875 C 4.25 -7.546875 3.585938 -7.28125 3.203125 -6.75 C 2.828125 -6.21875 2.640625 -5.445312 2.640625 -4.4375 L 2.640625 0 L 1.359375 0 L 1.359375 -8.484375 L 2.390625 -8.484375 L 2.578125 -7.25 L 2.65625 -7.25 C 2.832031 -7.550781 3.0625 -7.800781 3.34375 -8 C 3.625 -8.207031 3.9375 -8.363281 4.28125 -8.46875 C 4.625 -8.582031 4.988281 -8.640625 5.375 -8.640625 Z M 5.375 -8.640625 "/></g></g></g><g fill="#fcffff" fill-opacity="1"><g transform="translate(52.172331, 17.570849)"><g><path d="M 4.53125 -8.625 C 5.539062 -8.625 6.289062 -8.394531 6.78125 -7.9375 C 7.269531 -7.476562 7.515625 -6.753906 7.515625 -5.765625 L 7.515625 0 L 6.578125 0 L 6.328125 -1.25 L 6.265625 -1.25 C 6.023438 -0.945312 5.773438 -0.6875 5.515625 -0.46875 C 5.265625 -0.257812 4.96875 -0.101562 4.625 0 C 4.289062 0.101562 3.878906 0.15625 3.390625 0.15625 C 2.867188 0.15625 2.410156 0.0664062 2.015625 -0.109375 C 1.617188 -0.296875 1.304688 -0.570312 1.078125 -0.9375 C 0.847656 -1.300781 0.734375 -1.765625 0.734375 -2.328125 C 0.734375 -3.171875 1.066406 -3.816406 1.734375 -4.265625 C 2.398438 -4.722656 3.421875 -4.972656 4.796875 -5.015625 L 6.265625 -5.078125 L 6.265625 -5.59375 C 6.265625 -6.332031 6.101562 -6.847656 5.78125 -7.140625 C 5.46875 -7.429688 5.023438 -7.578125 4.453125 -7.578125 C 4.015625 -7.578125 3.59375 -7.507812 3.1875 -7.375 C 2.78125 -7.25 2.398438 -7.101562 2.046875 -6.9375 L 1.640625 -7.90625 C 2.023438 -8.101562 2.460938 -8.269531 2.953125 -8.40625 C 3.453125 -8.550781 3.976562 -8.625 4.53125 -8.625 Z M 6.25 -4.171875 L 4.953125 -4.125 C 3.890625 -4.082031 3.140625 -3.910156 2.703125 -3.609375 C 2.273438 -3.304688 2.0625 -2.875 2.0625 -2.3125 C 2.0625 -1.820312 2.207031 -1.460938 2.5 -1.234375 C 2.800781 -1.003906 3.191406 -0.890625 3.671875 -0.890625 C 4.421875 -0.890625 5.035156 -1.097656 5.515625 -1.515625 C 6.003906 -1.929688 6.25 -2.554688 6.25 -3.390625 Z M 6.25 -4.171875 "/></g></g></g></g></g></g></g></svg>