<svg xmlns="http://www.w3.org/2000/svg" xmlns:xlink="http://www.w3.org/1999/xlink" width="155" zoomAndPan="magnify" viewBox="0 0 116.25 39.749999" height="53" preserveAspectRatio="xMidYMid meet" version="1.0"><defs><g/><clipPath id="498a305000"><path d="M 0 2 L 115.503906 2 L 115.503906 37 L 0 37 Z M 0 2 " clip-rule="nonzero"/></clipPath><clipPath id="c3818928bb"><path d="M 0 0.910156 L 115.503906 0.910156 L 115.503906 34.589844 L 0 34.589844 Z M 0 0.910156 " clip-rule="nonzero"/></clipPath><clipPath id="fe12cc5718"><path d="M 5.214844 0.910156 L 110.289062 0.910156 C 111.671875 0.910156 113 1.460938 113.976562 2.4375 C 114.957031 3.417969 115.503906 4.742188 115.503906 6.128906 L 115.503906 29.375 C 115.503906 30.757812 114.957031 32.085938 113.976562 33.0625 C 113 34.039062 111.671875 34.589844 110.289062 34.589844 L 5.214844 34.589844 C 3.832031 34.589844 2.507812 34.039062 1.527344 33.0625 C 0.550781 32.085938 0 30.757812 0 29.375 L 0 6.128906 C 0 4.742188 0.550781 3.417969 1.527344 2.4375 C 2.507812 1.460938 3.832031 0.910156 5.214844 0.910156 Z M 5.214844 0.910156 " clip-rule="nonzero"/></clipPath><clipPath id="909d37ad8b"><path d="M 0 0.910156 L 115.503906 0.910156 L 115.503906 34.589844 L 0 34.589844 Z M 0 0.910156 " clip-rule="nonzero"/></clipPath><clipPath id="b9d63c4344"><path d="M 5.214844 0.910156 L 110.289062 0.910156 C 111.671875 0.910156 113 1.460938 113.976562 2.4375 C 114.957031 3.417969 115.503906 4.742188 115.503906 6.128906 L 115.503906 29.375 C 115.503906 30.757812 114.957031 32.085938 113.976562 33.0625 C 113 34.039062 111.671875 34.589844 110.289062 34.589844 L 5.214844 34.589844 C 3.832031 34.589844 2.507812 34.039062 1.527344 33.0625 C 0.550781 32.085938 0 30.757812 0 29.375 L 0 6.128906 C 0 4.742188 0.550781 3.417969 1.527344 2.4375 C 2.507812 1.460938 3.832031 0.910156 5.214844 0.910156 Z M 5.214844 0.910156 " clip-rule="nonzero"/></clipPath><radialGradient gradientTransform="matrix(1, 0, 0, 1, -0.000782902, 0.911172)" gradientUnits="userSpaceOnUse" r="120.314862" cx="0" id="46748d68d7" cy="0" fx="0" fy="0"><stop stop-opacity="1" stop-color="rgb(75.971985%, 47.857666%, 100%)" offset="0"/><stop stop-opacity="1" stop-color="rgb(75.70343%, 47.903442%, 100%)" offset="0.0078125"/><stop stop-opacity="1" stop-color="rgb(75.38147%, 47.958374%, 100%)" offset="0.0195312"/><stop stop-opacity="1" stop-color="rgb(75.059509%, 48.013306%, 100%)" offset="0.03125"/><stop stop-opacity="1" stop-color="rgb(74.737549%, 48.069763%, 100%)" offset="0.0429688"/><stop stop-opacity="1" stop-color="rgb(74.417114%, 48.124695%, 100%)" offset="0.0546875"/><stop stop-opacity="1" stop-color="rgb(74.095154%, 48.179626%, 100%)" offset="0.0664062"/><stop stop-opacity="1" stop-color="rgb(73.773193%, 48.234558%, 100%)" offset="0.078125"/><stop stop-opacity="1" stop-color="rgb(73.451233%, 48.28949%, 100%)" offset="0.0898438"/><stop stop-opacity="1" stop-color="rgb(73.129272%, 48.344421%, 100%)" offset="0.101562"/><stop stop-opacity="1" stop-color="rgb(72.808838%, 48.400879%, 100%)" offset="0.113281"/><stop stop-opacity="1" stop-color="rgb(72.486877%, 48.455811%, 100%)" offset="0.125"/><stop stop-opacity="1" stop-color="rgb(72.164917%, 48.510742%, 100%)" offset="0.136719"/><stop stop-opacity="1" stop-color="rgb(71.842957%, 48.565674%, 100%)" offset="0.148438"/><stop stop-opacity="1" stop-color="rgb(71.520996%, 48.620605%, 100%)" offset="0.160156"/><stop stop-opacity="1" stop-color="rgb(71.200562%, 48.675537%, 100%)" offset="0.171875"/><stop stop-opacity="1" stop-color="rgb(70.878601%, 48.731995%, 100%)" offset="0.183594"/><stop stop-opacity="1" stop-color="rgb(70.556641%, 48.786926%, 100%)" offset="0.195312"/><stop stop-opacity="1" stop-color="rgb(70.23468%, 48.841858%, 100%)" offset="0.207031"/><stop stop-opacity="1" stop-color="rgb(69.91272%, 48.89679%, 100%)" offset="0.21875"/><stop stop-opacity="1" stop-color="rgb(69.590759%, 48.951721%, 100%)" offset="0.230469"/><stop stop-opacity="1" stop-color="rgb(69.270325%, 49.006653%, 100%)" offset="0.242188"/><stop stop-opacity="1" stop-color="rgb(69.00177%, 49.053955%, 100%)" offset="0.253906"/><stop stop-opacity="1" stop-color="rgb(68.788147%, 49.090576%, 100%)" offset="0.261719"/><stop stop-opacity="1" stop-color="rgb(68.572998%, 49.127197%, 100%)" offset="0.269531"/><stop stop-opacity="1" stop-color="rgb(68.357849%, 49.163818%, 100%)" offset="0.277344"/><stop stop-opacity="1" stop-color="rgb(68.144226%, 49.200439%, 100%)" offset="0.285156"/><stop stop-opacity="1" stop-color="rgb(67.929077%, 49.237061%, 100%)" offset="0.292969"/><stop stop-opacity="1" stop-color="rgb(67.715454%, 49.273682%, 100%)" offset="0.300781"/><stop stop-opacity="1" stop-color="rgb(67.500305%, 49.310303%, 100%)" offset="0.308594"/><stop stop-opacity="1" stop-color="rgb(67.286682%, 49.34845%, 100%)" offset="0.316406"/><stop stop-opacity="1" stop-color="rgb(67.071533%, 49.385071%, 100%)" offset="0.324219"/><stop stop-opacity="1" stop-color="rgb(66.85791%, 49.421692%, 100%)" offset="0.332031"/><stop stop-opacity="1" stop-color="rgb(66.642761%, 49.458313%, 100%)" offset="0.339844"/><stop stop-opacity="1" stop-color="rgb(66.429138%, 49.494934%, 100%)" offset="0.347656"/><stop stop-opacity="1" stop-color="rgb(66.213989%, 49.531555%, 100%)" offset="0.355469"/><stop stop-opacity="1" stop-color="rgb(65.99884%, 49.568176%, 100%)" offset="0.363281"/><stop stop-opacity="1" stop-color="rgb(65.785217%, 49.604797%, 100%)" offset="0.371094"/><stop stop-opacity="1" stop-color="rgb(65.570068%, 49.642944%, 100%)" offset="0.378906"/><stop stop-opacity="1" stop-color="rgb(65.356445%, 49.679565%, 100%)" offset="0.386719"/><stop stop-opacity="1" stop-color="rgb(65.141296%, 49.716187%, 100%)" offset="0.394531"/><stop stop-opacity="1" stop-color="rgb(64.927673%, 49.752808%, 100%)" offset="0.402344"/><stop stop-opacity="1" stop-color="rgb(64.712524%, 49.789429%, 100%)" offset="0.410156"/><stop stop-opacity="1" stop-color="rgb(64.498901%, 49.82605%, 100%)" offset="0.417969"/><stop stop-opacity="1" stop-color="rgb(64.283752%, 49.862671%, 100%)" offset="0.425781"/><stop stop-opacity="1" stop-color="rgb(64.070129%, 49.899292%, 100%)" offset="0.433594"/><stop stop-opacity="1" stop-color="rgb(63.85498%, 49.935913%, 100%)" offset="0.441406"/><stop stop-opacity="1" stop-color="rgb(63.639832%, 49.97406%, 100%)" offset="0.449219"/><stop stop-opacity="1" stop-color="rgb(63.426208%, 50.010681%, 100%)" offset="0.457031"/><stop stop-opacity="1" stop-color="rgb(63.21106%, 50.047302%, 100%)" offset="0.464844"/><stop stop-opacity="1" stop-color="rgb(62.997437%, 50.083923%, 100%)" offset="0.472656"/><stop stop-opacity="1" stop-color="rgb(62.782288%, 50.120544%, 100%)" offset="0.480469"/><stop stop-opacity="1" stop-color="rgb(62.568665%, 50.157166%, 100%)" offset="0.488281"/><stop stop-opacity="1" stop-color="rgb(62.353516%, 50.193787%, 100%)" offset="0.496094"/><stop stop-opacity="1" stop-color="rgb(62.084961%, 50.239563%, 100%)" offset="0.503906"/><stop stop-opacity="1" stop-color="rgb(61.764526%, 50.296021%, 100%)" offset="0.515625"/><stop stop-opacity="1" stop-color="rgb(61.442566%, 50.350952%, 100%)" offset="0.527344"/><stop stop-opacity="1" stop-color="rgb(61.120605%, 50.405884%, 100%)" offset="0.539062"/><stop stop-opacity="1" stop-color="rgb(60.798645%, 50.460815%, 100%)" offset="0.550781"/><stop stop-opacity="1" stop-color="rgb(60.476685%, 50.515747%, 100%)" offset="0.5625"/><stop stop-opacity="1" stop-color="rgb(60.154724%, 50.570679%, 100%)" offset="0.574219"/><stop stop-opacity="1" stop-color="rgb(59.83429%, 50.627136%, 100%)" offset="0.585938"/><stop stop-opacity="1" stop-color="rgb(59.512329%, 50.682068%, 100%)" offset="0.597656"/><stop stop-opacity="1" stop-color="rgb(59.190369%, 50.737%, 100%)" offset="0.609375"/><stop stop-opacity="1" stop-color="rgb(58.868408%, 50.791931%, 100%)" offset="0.621094"/><stop stop-opacity="1" stop-color="rgb(58.601379%, 50.837708%, 100%)" offset="0.632812"/><stop stop-opacity="1" stop-color="rgb(58.38623%, 50.874329%, 100%)" offset="0.640625"/><stop stop-opacity="1" stop-color="rgb(58.172607%, 50.91095%, 100%)" offset="0.648438"/><stop stop-opacity="1" stop-color="rgb(57.957458%, 50.949097%, 100%)" offset="0.65625"/><stop stop-opacity="1" stop-color="rgb(57.743835%, 50.985718%, 100%)" offset="0.664062"/><stop stop-opacity="1" stop-color="rgb(57.528687%, 51.022339%, 100%)" offset="0.671875"/><stop stop-opacity="1" stop-color="rgb(57.313538%, 51.05896%, 100%)" offset="0.679688"/><stop stop-opacity="1" stop-color="rgb(57.099915%, 51.095581%, 100%)" offset="0.6875"/><stop stop-opacity="1" stop-color="rgb(56.884766%, 51.132202%, 100%)" offset="0.695312"/><stop stop-opacity="1" stop-color="rgb(56.671143%, 51.168823%, 100%)" offset="0.703125"/><stop stop-opacity="1" stop-color="rgb(56.455994%, 51.205444%, 100%)" offset="0.710938"/><stop stop-opacity="1" stop-color="rgb(56.242371%, 51.243591%, 100%)" offset="0.71875"/><stop stop-opacity="1" stop-color="rgb(56.027222%, 51.280212%, 100%)" offset="0.726562"/><stop stop-opacity="1" stop-color="rgb(55.813599%, 51.316833%, 100%)" offset="0.734375"/><stop stop-opacity="1" stop-color="rgb(55.59845%, 51.353455%, 100%)" offset="0.742188"/><stop stop-opacity="1" stop-color="rgb(55.384827%, 51.390076%, 100%)" offset="0.75"/><stop stop-opacity="1" stop-color="rgb(55.116272%, 51.435852%, 100%)" offset="0.757812"/><stop stop-opacity="1" stop-color="rgb(54.794312%, 51.490784%, 100%)" offset="0.769531"/><stop stop-opacity="1" stop-color="rgb(54.472351%, 51.545715%, 100%)" offset="0.78125"/><stop stop-opacity="1" stop-color="rgb(54.150391%, 51.602173%, 100%)" offset="0.792969"/><stop stop-opacity="1" stop-color="rgb(53.82843%, 51.657104%, 100%)" offset="0.804688"/><stop stop-opacity="1" stop-color="rgb(53.561401%, 51.702881%, 100%)" offset="0.816406"/><stop stop-opacity="1" stop-color="rgb(53.346252%, 51.739502%, 100%)" offset="0.824219"/><stop stop-opacity="1" stop-color="rgb(53.132629%, 51.776123%, 100%)" offset="0.832031"/><stop stop-opacity="1" stop-color="rgb(52.91748%, 51.812744%, 100%)" offset="0.839844"/><stop stop-opacity="1" stop-color="rgb(52.703857%, 51.849365%, 100%)" offset="0.847656"/><stop stop-opacity="1" stop-color="rgb(52.488708%, 51.887512%, 100%)" offset="0.855469"/><stop stop-opacity="1" stop-color="rgb(52.275085%, 51.924133%, 100%)" offset="0.863281"/><stop stop-opacity="1" stop-color="rgb(52.059937%, 51.960754%, 100%)" offset="0.871094"/><stop stop-opacity="1" stop-color="rgb(51.791382%, 52.006531%, 100%)" offset="0.878906"/><stop stop-opacity="1" stop-color="rgb(51.469421%, 52.061462%, 100%)" offset="0.890625"/><stop stop-opacity="1" stop-color="rgb(51.148987%, 52.116394%, 100%)" offset="0.902344"/><stop stop-opacity="1" stop-color="rgb(50.880432%, 52.16217%, 100%)" offset="0.914062"/><stop stop-opacity="1" stop-color="rgb(50.666809%, 52.200317%, 100%)" offset="0.921875"/><stop stop-opacity="1" stop-color="rgb(50.45166%, 52.236938%, 100%)" offset="0.929688"/><stop stop-opacity="1" stop-color="rgb(50.236511%, 52.27356%, 100%)" offset="0.9375"/><stop stop-opacity="1" stop-color="rgb(49.969482%, 52.319336%, 100%)" offset="0.945312"/><stop stop-opacity="1" stop-color="rgb(49.700928%, 52.365112%, 100%)" offset="0.957031"/><stop stop-opacity="1" stop-color="rgb(49.487305%, 52.401733%, 100%)" offset="0.964844"/><stop stop-opacity="1" stop-color="rgb(49.21875%, 52.44751%, 100%)" offset="0.972656"/><stop stop-opacity="1" stop-color="rgb(48.950195%, 52.493286%, 100%)" offset="0.984375"/><stop stop-opacity="1" stop-color="rgb(48.736572%, 52.531433%, 100%)" offset="0.992188"/><stop stop-opacity="1" stop-color="rgb(48.629761%, 52.549744%, 100%)" offset="1"/></radialGradient><clipPath id="94b0b67901"><rect x="0" width="116" y="0" height="35"/></clipPath><clipPath id="ab44caa080"><path d="M 12 10.703125 L 20 10.703125 L 20 25.242188 L 12 25.242188 Z M 12 10.703125 " clip-rule="nonzero"/></clipPath><clipPath id="22a89d0c38"><path d="M 19 10.703125 L 26.492188 10.703125 L 26.492188 25.242188 L 19 25.242188 Z M 19 10.703125 " clip-rule="nonzero"/></clipPath><clipPath id="f2e287e61d"><rect x="0" width="69" y="0" height="23"/></clipPath><clipPath id="a8b4261bf1"><rect x="0" width="116" y="0" height="35"/></clipPath></defs><g clip-path="url(#498a305000)"><g transform="matrix(1, 0, 0, 1, 0, 2)"><g clip-path="url(#a8b4261bf1)"><g clip-path="url(#c3818928bb)"><g clip-path="url(#fe12cc5718)"><g transform="matrix(1, 0, 0, 1, 0, -0.000000000000000444)"><g clip-path="url(#94b0b67901)"><g clip-path="url(#909d37ad8b)"><g clip-path="url(#b9d63c4344)"><path fill="url(#46748d68d7)" d="M 0 0.910156 L 0 34.589844 L 115.503906 34.589844 L 115.503906 0.910156 Z M 0 0.910156 " fill-rule="nonzero"/></g></g></g></g></g></g><path fill="#fcffff" d="M 15.570312 22.757812 C 15.527344 22.878906 15.585938 23.015625 15.707031 23.058594 C 15.828125 23.101562 15.960938 23.039062 16.003906 22.917969 C 16.242188 22.289062 16.945312 21.96875 17.578125 22.203125 C 17.699219 22.25 17.832031 22.183594 17.878906 22.0625 C 17.921875 21.945312 17.863281 21.808594 17.742188 21.765625 C 16.871094 21.441406 15.898438 21.886719 15.570312 22.757812 Z M 15.570312 22.757812 " fill-opacity="1" fill-rule="nonzero"/><g clip-path="url(#ab44caa080)"><path fill="#fcffff" d="M 18.574219 10.921875 C 18.253906 10.710938 17.847656 10.699219 17.378906 10.875 C 17.34375 10.886719 16.5625 11.167969 16.054688 11.644531 C 16.023438 11.644531 15.992188 11.640625 15.960938 11.640625 C 15.027344 11.640625 14.273438 12.394531 14.273438 13.328125 C 14.273438 13.550781 14.320312 13.765625 14.402344 13.96875 C 13.578125 14.195312 12.972656 14.9375 12.972656 15.832031 C 12.972656 16 13.003906 16.167969 13.046875 16.328125 C 12.457031 16.675781 12.082031 17.308594 12.082031 18 C 12.082031 18.5 12.277344 18.949219 12.589844 19.292969 C 12.476562 19.542969 12.410156 19.816406 12.410156 20.097656 C 12.410156 20.878906 12.882812 21.574219 13.585938 21.878906 C 13.515625 22.0625 13.476562 22.261719 13.476562 22.464844 C 13.476562 23.394531 14.234375 24.152344 15.167969 24.152344 C 15.207031 24.152344 15.253906 24.140625 15.300781 24.136719 C 15.554688 24.835938 16.308594 25.328125 17.1875 25.328125 C 18.28125 25.328125 19.171875 24.570312 19.171875 23.640625 L 19.171875 21.988281 C 19.171875 21.988281 19.171875 21.988281 19.171875 21.984375 L 19.171875 15.742188 L 19.167969 12.09375 C 19.167969 12.058594 19.117188 11.277344 18.574219 10.921875 Z M 18.703125 14.585938 C 18.398438 14.261719 17.964844 14.054688 17.480469 14.054688 C 17.351562 14.054688 17.246094 14.160156 17.246094 14.289062 C 17.246094 14.414062 17.351562 14.519531 17.480469 14.519531 C 18.15625 14.519531 18.703125 15.070312 18.703125 15.742188 L 18.703125 20.832031 C 18.398438 20.507812 17.964844 20.300781 17.480469 20.300781 C 17.351562 20.300781 17.246094 20.402344 17.246094 20.53125 C 17.246094 20.660156 17.351562 20.761719 17.480469 20.761719 C 18.15625 20.761719 18.703125 21.316406 18.703125 21.984375 L 18.703125 23.640625 C 18.703125 24.3125 18.027344 24.863281 17.1875 24.863281 C 16.445312 24.863281 15.816406 24.429688 15.691406 23.84375 C 15.664062 23.71875 15.539062 23.640625 15.414062 23.660156 C 15.414062 23.660156 15.414062 23.660156 15.410156 23.660156 C 15.332031 23.679688 15.25 23.6875 15.167969 23.6875 C 14.492188 23.6875 13.941406 23.140625 13.941406 22.464844 C 13.941406 22.25 14 22.042969 14.101562 21.859375 C 14.109375 21.847656 14.113281 21.835938 14.113281 21.824219 C 14.117188 21.816406 14.121094 21.8125 14.128906 21.808594 C 14.128906 21.800781 14.128906 21.789062 14.128906 21.78125 C 14.128906 21.769531 14.128906 21.761719 14.128906 21.75 C 14.128906 21.730469 14.128906 21.710938 14.128906 21.695312 C 14.121094 21.683594 14.121094 21.671875 14.113281 21.664062 C 14.109375 21.644531 14.101562 21.632812 14.089844 21.617188 C 14.085938 21.605469 14.074219 21.597656 14.066406 21.589844 C 14.054688 21.574219 14.042969 21.566406 14.03125 21.550781 C 14.023438 21.550781 14.023438 21.546875 14.015625 21.542969 C 14.007812 21.535156 13.996094 21.535156 13.984375 21.53125 C 13.976562 21.527344 13.972656 21.523438 13.964844 21.523438 C 13.324219 21.34375 12.878906 20.761719 12.878906 20.097656 C 12.878906 19.933594 12.914062 19.773438 12.964844 19.625 C 13.269531 19.820312 13.632812 19.941406 14.023438 19.941406 C 14.152344 19.941406 14.257812 19.835938 14.257812 19.707031 C 14.257812 19.578125 14.152344 19.472656 14.023438 19.472656 C 13.207031 19.472656 12.550781 18.8125 12.550781 18 C 12.550781 17.425781 12.882812 16.90625 13.402344 16.660156 C 13.40625 16.660156 13.410156 16.65625 13.414062 16.65625 C 13.605469 16.570312 13.8125 16.523438 14.023438 16.523438 C 14.152344 16.523438 14.257812 16.421875 14.257812 16.292969 C 14.257812 16.164062 14.152344 16.0625 14.023438 16.0625 C 13.835938 16.0625 13.65625 16.097656 13.476562 16.148438 C 13.453125 16.042969 13.4375 15.9375 13.4375 15.832031 C 13.4375 15.015625 14.101562 14.355469 14.914062 14.355469 C 15.476562 14.355469 15.980469 14.667969 16.230469 15.171875 C 16.292969 15.289062 16.429688 15.332031 16.546875 15.273438 C 16.660156 15.21875 16.707031 15.078125 16.648438 14.964844 C 16.316406 14.300781 15.652344 13.890625 14.914062 13.890625 C 14.90625 13.890625 14.898438 13.890625 14.890625 13.890625 C 14.796875 13.71875 14.738281 13.527344 14.738281 13.328125 C 14.738281 12.652344 15.285156 12.105469 15.960938 12.105469 C 16.40625 12.105469 16.8125 12.34375 17.03125 12.734375 C 17.128906 12.914062 17.183594 13.121094 17.183594 13.328125 C 17.183594 13.453125 17.289062 13.558594 17.414062 13.558594 C 17.542969 13.558594 17.652344 13.453125 17.652344 13.328125 C 17.652344 13.039062 17.578125 12.757812 17.4375 12.507812 C 17.25 12.175781 16.964844 11.925781 16.628906 11.777344 C 17.042969 11.492188 17.527344 11.316406 17.535156 11.3125 C 17.867188 11.1875 18.132812 11.1875 18.320312 11.308594 C 18.660156 11.535156 18.703125 12.105469 18.703125 12.105469 Z M 18.703125 14.585938 " fill-opacity="1" fill-rule="nonzero"/></g><path fill="#fcffff" d="M 16.1875 16.859375 C 16.164062 16.734375 16.042969 16.652344 15.917969 16.675781 C 15.789062 16.699219 15.710938 16.820312 15.734375 16.945312 C 15.820312 17.414062 16.070312 17.824219 16.421875 18.136719 C 16.414062 18.164062 16.410156 18.195312 16.410156 18.226562 C 16.449219 18.898438 15.9375 19.480469 15.265625 19.519531 C 15.132812 19.527344 15.039062 19.636719 15.042969 19.765625 C 15.050781 19.890625 15.15625 19.984375 15.277344 19.984375 C 15.28125 19.984375 15.285156 19.984375 15.292969 19.984375 C 16.136719 19.933594 16.792969 19.265625 16.863281 18.441406 C 17.160156 18.589844 17.484375 18.667969 17.8125 18.667969 C 17.949219 18.667969 18.085938 18.65625 18.214844 18.632812 C 18.339844 18.609375 18.421875 18.484375 18.402344 18.359375 C 18.378906 18.234375 18.25 18.148438 18.128906 18.175781 C 17.691406 18.257812 17.25 18.167969 16.886719 17.917969 C 16.519531 17.667969 16.269531 17.292969 16.1875 16.859375 Z M 16.1875 16.859375 " fill-opacity="1" fill-rule="nonzero"/><path fill="#fcffff" d="M 20.992188 21.765625 C 20.875 21.808594 20.8125 21.945312 20.855469 22.066406 C 20.898438 22.1875 21.035156 22.25 21.15625 22.207031 C 21.789062 21.96875 22.492188 22.292969 22.730469 22.921875 C 22.773438 23.039062 22.90625 23.101562 23.027344 23.058594 C 23.152344 23.015625 23.210938 22.878906 23.164062 22.753906 C 22.839844 21.886719 21.863281 21.441406 20.992188 21.765625 Z M 20.992188 21.765625 " fill-opacity="1" fill-rule="nonzero"/><g clip-path="url(#22a89d0c38)"><path fill="#fcffff" d="M 26.652344 18 C 26.652344 17.308594 26.277344 16.675781 25.6875 16.328125 C 25.730469 16.167969 25.761719 16 25.761719 15.832031 C 25.761719 14.9375 25.15625 14.195312 24.335938 13.96875 C 24.414062 13.765625 24.460938 13.550781 24.460938 13.328125 C 24.460938 12.398438 23.707031 11.640625 22.773438 11.640625 C 22.742188 11.640625 22.714844 11.644531 22.679688 11.644531 C 22.171875 11.167969 21.390625 10.886719 21.355469 10.875 C 20.886719 10.699219 20.480469 10.710938 20.160156 10.921875 C 19.617188 11.277344 19.566406 12.058594 19.566406 12.09375 L 19.566406 21.984375 C 19.566406 21.988281 19.566406 21.988281 19.566406 21.988281 L 19.566406 23.640625 C 19.566406 24.570312 20.457031 25.328125 21.546875 25.328125 C 22.425781 25.328125 23.183594 24.835938 23.433594 24.136719 C 23.480469 24.140625 23.527344 24.152344 23.566406 24.152344 C 24.5 24.152344 25.257812 23.394531 25.257812 22.464844 C 25.257812 22.261719 25.21875 22.0625 25.148438 21.878906 C 25.855469 21.574219 26.324219 20.878906 26.324219 20.097656 C 26.324219 19.816406 26.261719 19.542969 26.148438 19.292969 C 26.460938 18.949219 26.652344 18.5 26.652344 18 Z M 24.769531 21.523438 C 24.761719 21.523438 24.757812 21.527344 24.75 21.53125 C 24.742188 21.535156 24.726562 21.535156 24.71875 21.542969 C 24.710938 21.546875 24.710938 21.550781 24.703125 21.550781 C 24.691406 21.566406 24.679688 21.574219 24.667969 21.589844 C 24.660156 21.597656 24.648438 21.605469 24.644531 21.617188 C 24.632812 21.632812 24.628906 21.644531 24.621094 21.664062 C 24.617188 21.671875 24.613281 21.683594 24.609375 21.695312 C 24.605469 21.710938 24.605469 21.730469 24.605469 21.75 C 24.605469 21.761719 24.605469 21.773438 24.609375 21.78125 C 24.609375 21.792969 24.605469 21.800781 24.609375 21.808594 C 24.613281 21.816406 24.617188 21.816406 24.621094 21.824219 C 24.625 21.835938 24.625 21.847656 24.632812 21.859375 C 24.734375 22.042969 24.792969 22.25 24.792969 22.464844 C 24.792969 23.140625 24.242188 23.6875 23.566406 23.6875 C 23.484375 23.6875 23.402344 23.679688 23.324219 23.660156 L 23.320312 23.660156 C 23.195312 23.636719 23.070312 23.71875 23.042969 23.839844 C 22.921875 24.429688 22.289062 24.863281 21.546875 24.863281 C 20.707031 24.863281 20.03125 24.3125 20.03125 23.640625 L 20.03125 21.984375 C 20.03125 21.316406 20.578125 20.761719 21.253906 20.761719 C 21.382812 20.761719 21.488281 20.660156 21.488281 20.53125 C 21.488281 20.402344 21.382812 20.296875 21.253906 20.296875 C 20.769531 20.296875 20.335938 20.503906 20.03125 20.828125 L 20.03125 15.742188 C 20.03125 15.066406 20.578125 14.519531 21.253906 14.519531 C 21.382812 14.519531 21.488281 14.414062 21.488281 14.285156 C 21.488281 14.15625 21.382812 14.050781 21.253906 14.050781 C 20.769531 14.050781 20.335938 14.257812 20.03125 14.582031 L 20.03125 12.105469 C 20.03125 12.105469 20.070312 11.535156 20.417969 11.308594 C 20.601562 11.1875 20.867188 11.1875 21.199219 11.3125 C 21.210938 11.316406 21.695312 11.492188 22.109375 11.777344 C 21.769531 11.925781 21.480469 12.175781 21.296875 12.507812 C 21.160156 12.757812 21.085938 13.042969 21.085938 13.328125 C 21.085938 13.453125 21.191406 13.558594 21.320312 13.558594 C 21.449219 13.558594 21.554688 13.453125 21.554688 13.328125 C 21.554688 13.121094 21.605469 12.914062 21.707031 12.734375 C 21.921875 12.347656 22.328125 12.105469 22.773438 12.105469 C 23.449219 12.105469 23.996094 12.652344 23.996094 13.328125 C 23.996094 13.527344 23.9375 13.71875 23.847656 13.894531 C 23.835938 13.894531 23.828125 13.890625 23.820312 13.890625 C 23.082031 13.890625 22.417969 14.300781 22.085938 14.964844 C 22.03125 15.078125 22.074219 15.21875 22.191406 15.273438 C 22.304688 15.332031 22.445312 15.285156 22.503906 15.171875 C 22.753906 14.667969 23.257812 14.355469 23.820312 14.355469 C 24.632812 14.355469 25.296875 15.015625 25.296875 15.832031 C 25.296875 15.9375 25.277344 16.042969 25.257812 16.148438 C 25.082031 16.097656 24.902344 16.0625 24.710938 16.0625 C 24.582031 16.0625 24.476562 16.164062 24.476562 16.292969 C 24.476562 16.421875 24.582031 16.527344 24.710938 16.527344 C 24.925781 16.527344 25.128906 16.570312 25.320312 16.65625 C 25.324219 16.660156 25.328125 16.660156 25.332031 16.664062 C 25.851562 16.90625 26.183594 17.429688 26.183594 18 C 26.183594 18.8125 25.523438 19.472656 24.710938 19.472656 C 24.582031 19.472656 24.476562 19.578125 24.476562 19.710938 C 24.476562 19.835938 24.582031 19.945312 24.710938 19.945312 C 25.101562 19.945312 25.464844 19.824219 25.765625 19.625 C 25.824219 19.773438 25.855469 19.933594 25.855469 20.097656 C 25.855469 20.761719 25.410156 21.34375 24.769531 21.523438 Z M 24.769531 21.523438 " fill-opacity="1" fill-rule="nonzero"/></g><path fill="#fcffff" d="M 23.472656 19.519531 C 22.800781 19.480469 22.285156 18.898438 22.324219 18.226562 C 22.328125 18.195312 22.324219 18.164062 22.3125 18.136719 C 22.667969 17.824219 22.914062 17.417969 23.003906 16.945312 C 23.027344 16.820312 22.945312 16.699219 22.820312 16.675781 C 22.691406 16.652344 22.570312 16.734375 22.546875 16.859375 C 22.460938 17.292969 22.214844 17.667969 21.847656 17.917969 C 21.480469 18.167969 21.042969 18.257812 20.609375 18.175781 C 20.484375 18.148438 20.355469 18.234375 20.332031 18.359375 C 20.3125 18.484375 20.394531 18.609375 20.519531 18.632812 C 20.65625 18.65625 20.789062 18.671875 20.921875 18.671875 C 21.25 18.671875 21.574219 18.59375 21.871094 18.441406 C 21.941406 19.265625 22.597656 19.9375 23.445312 19.988281 C 23.449219 19.988281 23.453125 19.988281 23.457031 19.988281 C 23.582031 19.988281 23.683594 19.890625 23.691406 19.765625 C 23.695312 19.636719 23.601562 19.527344 23.472656 19.519531 Z M 23.472656 19.519531 " fill-opacity="1" fill-rule="nonzero"/><g transform="matrix(1, 0, 0, 1, 36, 6)"><g clip-path="url(#f2e287e61d)"><g fill="#fcffff" fill-opacity="1"><g transform="translate(0.864349, 17.570268)"><g><path d="M 6.515625 0 L 2.71875 -10.015625 L 2.65625 -10.015625 C 2.675781 -9.796875 2.691406 -9.535156 2.703125 -9.234375 C 2.722656 -8.929688 2.738281 -8.597656 2.75 -8.234375 C 2.757812 -7.878906 2.765625 -7.515625 2.765625 -7.140625 L 2.765625 0 L 1.546875 0 L 1.546875 -11.3125 L 3.5 -11.3125 L 7.078125 -1.90625 L 7.125 -1.90625 L 10.765625 -11.3125 L 12.703125 -11.3125 L 12.703125 0 L 11.40625 0 L 11.40625 -7.234375 C 11.40625 -7.578125 11.410156 -7.914062 11.421875 -8.25 C 11.429688 -8.582031 11.441406 -8.898438 11.453125 -9.203125 C 11.472656 -9.503906 11.488281 -9.769531 11.5 -10 L 11.4375 -10 L 7.59375 0 Z M 6.515625 0 "/></g></g></g><g fill="#fcffff" fill-opacity="1"><g transform="translate(15.101628, 17.570268)"><g><path d="M 4.625 -8.640625 C 5.34375 -8.640625 5.957031 -8.476562 6.46875 -8.15625 C 6.988281 -7.832031 7.382812 -7.382812 7.65625 -6.8125 C 7.925781 -6.238281 8.0625 -5.566406 8.0625 -4.796875 L 8.0625 -4 L 2.21875 -4 C 2.226562 -3 2.472656 -2.238281 2.953125 -1.71875 C 3.429688 -1.195312 4.109375 -0.9375 4.984375 -0.9375 C 5.515625 -0.9375 5.988281 -0.984375 6.40625 -1.078125 C 6.820312 -1.179688 7.25 -1.332031 7.6875 -1.53125 L 7.6875 -0.390625 C 7.257812 -0.203125 6.832031 -0.0664062 6.40625 0.015625 C 5.988281 0.109375 5.492188 0.15625 4.921875 0.15625 C 4.109375 0.15625 3.398438 -0.0078125 2.796875 -0.34375 C 2.191406 -0.675781 1.71875 -1.164062 1.375 -1.8125 C 1.039062 -2.457031 0.875 -3.242188 0.875 -4.171875 C 0.875 -5.085938 1.023438 -5.878906 1.328125 -6.546875 C 1.640625 -7.210938 2.078125 -7.726562 2.640625 -8.09375 C 3.203125 -8.457031 3.863281 -8.640625 4.625 -8.640625 Z M 4.609375 -7.578125 C 3.921875 -7.578125 3.375 -7.351562 2.96875 -6.90625 C 2.5625 -6.457031 2.316406 -5.832031 2.234375 -5.03125 L 6.71875 -5.03125 C 6.71875 -5.53125 6.640625 -5.972656 6.484375 -6.359375 C 6.335938 -6.742188 6.109375 -7.039062 5.796875 -7.25 C 5.484375 -7.46875 5.085938 -7.578125 4.609375 -7.578125 Z M 4.609375 -7.578125 "/></g></g></g><g fill="#fcffff" fill-opacity="1"><g transform="translate(23.990266, 17.570268)"><g><path d="M 10.5625 -8.640625 C 11.488281 -8.640625 12.191406 -8.394531 12.671875 -7.90625 C 13.148438 -7.414062 13.390625 -6.628906 13.390625 -5.546875 L 13.390625 0 L 12.109375 0 L 12.109375 -5.5 C 12.109375 -6.175781 11.957031 -6.6875 11.65625 -7.03125 C 11.363281 -7.375 10.925781 -7.546875 10.34375 -7.546875 C 9.53125 -7.546875 8.9375 -7.304688 8.5625 -6.828125 C 8.1875 -6.359375 8 -5.664062 8 -4.75 L 8 0 L 6.734375 0 L 6.734375 -5.5 C 6.734375 -5.957031 6.664062 -6.335938 6.53125 -6.640625 C 6.40625 -6.941406 6.207031 -7.164062 5.9375 -7.3125 C 5.675781 -7.46875 5.347656 -7.546875 4.953125 -7.546875 C 4.390625 -7.546875 3.9375 -7.429688 3.59375 -7.203125 C 3.257812 -6.972656 3.015625 -6.628906 2.859375 -6.171875 C 2.710938 -5.710938 2.640625 -5.148438 2.640625 -4.484375 L 2.640625 0 L 1.359375 0 L 1.359375 -8.484375 L 2.390625 -8.484375 L 2.578125 -7.28125 L 2.65625 -7.28125 C 2.820312 -7.570312 3.035156 -7.816406 3.296875 -8.015625 C 3.554688 -8.222656 3.84375 -8.378906 4.15625 -8.484375 C 4.476562 -8.585938 4.820312 -8.640625 5.1875 -8.640625 C 5.832031 -8.640625 6.367188 -8.519531 6.796875 -8.28125 C 7.234375 -8.039062 7.550781 -7.671875 7.75 -7.171875 L 7.828125 -7.171875 C 8.097656 -7.671875 8.472656 -8.039062 8.953125 -8.28125 C 9.441406 -8.519531 9.976562 -8.640625 10.5625 -8.640625 Z M 10.5625 -8.640625 "/></g></g></g><g fill="#fcffff" fill-opacity="1"><g transform="translate(38.644925, 17.570268)"><g><path d="M 8.671875 -4.25 C 8.671875 -3.550781 8.578125 -2.929688 8.390625 -2.390625 C 8.210938 -1.847656 7.953125 -1.382812 7.609375 -1 C 7.273438 -0.625 6.863281 -0.335938 6.375 -0.140625 C 5.894531 0.0546875 5.351562 0.15625 4.75 0.15625 C 4.175781 0.15625 3.648438 0.0546875 3.171875 -0.140625 C 2.703125 -0.335938 2.296875 -0.625 1.953125 -1 C 1.617188 -1.382812 1.351562 -1.847656 1.15625 -2.390625 C 0.96875 -2.929688 0.875 -3.550781 0.875 -4.25 C 0.875 -5.175781 1.03125 -5.96875 1.34375 -6.625 C 1.664062 -7.28125 2.117188 -7.78125 2.703125 -8.125 C 3.285156 -8.46875 3.984375 -8.640625 4.796875 -8.640625 C 5.566406 -8.640625 6.242188 -8.460938 6.828125 -8.109375 C 7.410156 -7.765625 7.863281 -7.265625 8.1875 -6.609375 C 8.507812 -5.960938 8.671875 -5.175781 8.671875 -4.25 Z M 2.21875 -4.25 C 2.21875 -3.570312 2.304688 -2.984375 2.484375 -2.484375 C 2.660156 -1.984375 2.9375 -1.59375 3.3125 -1.3125 C 3.695312 -1.039062 4.179688 -0.90625 4.765625 -0.90625 C 5.359375 -0.90625 5.84375 -1.039062 6.21875 -1.3125 C 6.601562 -1.59375 6.882812 -1.984375 7.0625 -2.484375 C 7.238281 -2.984375 7.328125 -3.570312 7.328125 -4.25 C 7.328125 -4.925781 7.238281 -5.507812 7.0625 -6 C 6.882812 -6.5 6.601562 -6.878906 6.21875 -7.140625 C 5.84375 -7.410156 5.359375 -7.546875 4.765625 -7.546875 C 3.878906 -7.546875 3.234375 -7.253906 2.828125 -6.671875 C 2.421875 -6.085938 2.21875 -5.28125 2.21875 -4.25 Z M 7.015625 -12.140625 L 7.015625 -11.984375 C 6.910156 -11.835938 6.769531 -11.65625 6.59375 -11.4375 C 6.414062 -11.226562 6.21875 -11.007812 6 -10.78125 C 5.78125 -10.550781 5.5625 -10.332031 5.34375 -10.125 C 5.125 -9.925781 4.925781 -9.75 4.75 -9.59375 L 3.890625 -9.59375 L 3.890625 -9.78125 C 4.046875 -9.976562 4.222656 -10.210938 4.421875 -10.484375 C 4.617188 -10.765625 4.8125 -11.050781 5 -11.34375 C 5.1875 -11.632812 5.34375 -11.898438 5.46875 -12.140625 Z M 7.015625 -12.140625 "/></g></g></g><g fill="#fcffff" fill-opacity="1"><g transform="translate(48.167361, 17.570268)"><g><path d="M 5.203125 -8.640625 C 5.378906 -8.640625 5.554688 -8.628906 5.734375 -8.609375 C 5.921875 -8.585938 6.085938 -8.5625 6.234375 -8.53125 L 6.078125 -7.34375 C 5.929688 -7.375 5.773438 -7.398438 5.609375 -7.421875 C 5.441406 -7.441406 5.28125 -7.453125 5.125 -7.453125 C 4.789062 -7.453125 4.472656 -7.382812 4.171875 -7.25 C 3.867188 -7.113281 3.601562 -6.914062 3.375 -6.65625 C 3.144531 -6.40625 2.960938 -6.097656 2.828125 -5.734375 C 2.703125 -5.378906 2.640625 -4.984375 2.640625 -4.546875 L 2.640625 0 L 1.359375 0 L 1.359375 -8.484375 L 2.421875 -8.484375 L 2.5625 -6.921875 L 2.609375 -6.921875 C 2.785156 -7.234375 3 -7.519531 3.25 -7.78125 C 3.5 -8.039062 3.785156 -8.25 4.109375 -8.40625 C 4.441406 -8.5625 4.804688 -8.640625 5.203125 -8.640625 Z M 5.203125 -8.640625 "/></g></g></g><g fill="#fcffff" fill-opacity="1"><g transform="translate(54.636744, 17.570268)"><g><path d="M 2.640625 -8.484375 L 2.640625 0 L 1.359375 0 L 1.359375 -8.484375 Z M 2.015625 -11.65625 C 2.222656 -11.65625 2.398438 -11.582031 2.546875 -11.4375 C 2.703125 -11.300781 2.78125 -11.09375 2.78125 -10.8125 C 2.78125 -10.519531 2.703125 -10.304688 2.546875 -10.171875 C 2.398438 -10.035156 2.222656 -9.96875 2.015625 -9.96875 C 1.785156 -9.96875 1.597656 -10.035156 1.453125 -10.171875 C 1.304688 -10.304688 1.234375 -10.519531 1.234375 -10.8125 C 1.234375 -11.09375 1.304688 -11.300781 1.453125 -11.4375 C 1.597656 -11.582031 1.785156 -11.65625 2.015625 -11.65625 Z M 2.015625 -11.65625 "/></g></g></g><g fill="#fcffff" fill-opacity="1"><g transform="translate(58.632766, 17.570268)"><g><path d="M 4.53125 -8.625 C 5.539062 -8.625 6.289062 -8.394531 6.78125 -7.9375 C 7.269531 -7.476562 7.515625 -6.753906 7.515625 -5.765625 L 7.515625 0 L 6.578125 0 L 6.328125 -1.25 L 6.265625 -1.25 C 6.023438 -0.945312 5.773438 -0.6875 5.515625 -0.46875 C 5.265625 -0.257812 4.96875 -0.101562 4.625 0 C 4.289062 0.101562 3.878906 0.15625 3.390625 0.15625 C 2.867188 0.15625 2.410156 0.0664062 2.015625 -0.109375 C 1.617188 -0.296875 1.304688 -0.570312 1.078125 -0.9375 C 0.847656 -1.300781 0.734375 -1.765625 0.734375 -2.328125 C 0.734375 -3.171875 1.066406 -3.816406 1.734375 -4.265625 C 2.398438 -4.722656 3.421875 -4.972656 4.796875 -5.015625 L 6.265625 -5.078125 L 6.265625 -5.59375 C 6.265625 -6.332031 6.101562 -6.847656 5.78125 -7.140625 C 5.46875 -7.429688 5.023438 -7.578125 4.453125 -7.578125 C 4.015625 -7.578125 3.59375 -7.507812 3.1875 -7.375 C 2.78125 -7.25 2.398438 -7.101562 2.046875 -6.9375 L 1.640625 -7.90625 C 2.023438 -8.101562 2.460938 -8.269531 2.953125 -8.40625 C 3.453125 -8.550781 3.976562 -8.625 4.53125 -8.625 Z M 6.25 -4.171875 L 4.953125 -4.125 C 3.890625 -4.082031 3.140625 -3.910156 2.703125 -3.609375 C 2.273438 -3.304688 2.0625 -2.875 2.0625 -2.3125 C 2.0625 -1.820312 2.207031 -1.460938 2.5 -1.234375 C 2.800781 -1.003906 3.191406 -0.890625 3.671875 -0.890625 C 4.421875 -0.890625 5.035156 -1.097656 5.515625 -1.515625 C 6.003906 -1.929688 6.25 -2.554688 6.25 -3.390625 Z M 6.25 -4.171875 "/></g></g></g></g></g></g></g></g></svg>