<svg xmlns="http://www.w3.org/2000/svg" xmlns:xlink="http://www.w3.org/1999/xlink" width="155" zoomAndPan="magnify" viewBox="0 0 116.25 39.749999" height="53" preserveAspectRatio="xMidYMid meet" version="1.0"><defs><g/><clipPath id="e638f5ec49"><path d="M 0 0.910156 L 107.757812 0.910156 L 107.757812 34.59375 L 0 34.59375 Z M 0 0.910156 " clip-rule="nonzero"/></clipPath><clipPath id="1de3ef4a0e"><path d="M 5.214844 0.910156 L 102.464844 0.910156 C 103.847656 0.910156 105.175781 1.460938 106.152344 2.4375 C 107.132812 3.414062 107.679688 4.742188 107.679688 6.125 L 107.679688 29.375 C 107.679688 30.757812 107.132812 32.085938 106.152344 33.0625 C 105.175781 34.042969 103.847656 34.59375 102.464844 34.59375 L 5.214844 34.59375 C 3.832031 34.59375 2.507812 34.042969 1.527344 33.0625 C 0.550781 32.085938 0 30.757812 0 29.375 L 0 6.125 C 0 4.742188 0.550781 3.414062 1.527344 2.4375 C 2.507812 1.460938 3.832031 0.910156 5.214844 0.910156 Z M 5.214844 0.910156 " clip-rule="nonzero"/></clipPath><clipPath id="d2c7ea18e2"><path d="M 0 0.910156 L 107.625 0.910156 L 107.625 34.59375 L 0 34.59375 Z M 0 0.910156 " clip-rule="nonzero"/></clipPath><clipPath id="7531c16672"><path d="M 5.214844 0.910156 L 102.464844 0.910156 C 103.847656 0.910156 105.175781 1.460938 106.152344 2.4375 C 107.132812 3.414062 107.679688 4.742188 107.679688 6.125 L 107.679688 29.375 C 107.679688 30.757812 107.132812 32.085938 106.152344 33.0625 C 105.175781 34.042969 103.847656 34.59375 102.464844 34.59375 L 5.214844 34.59375 C 3.832031 34.59375 2.507812 34.042969 1.527344 33.0625 C 0.550781 32.085938 0 30.757812 0 29.375 L 0 6.125 C 0 4.742188 0.550781 3.414062 1.527344 2.4375 C 2.507812 1.460938 3.832031 0.910156 5.214844 0.910156 Z M 5.214844 0.910156 " clip-rule="nonzero"/></clipPath><radialGradient gradientTransform="matrix(1, 0, 0, 1, -0.000180688, 0.909455)" gradientUnits="userSpaceOnUse" r="112.825696" cx="0" id="875f1aa369" cy="0" fx="0" fy="0"><stop stop-opacity="1" stop-color="rgb(100%, 53.672791%, 1.332092%)" offset="0"/><stop stop-opacity="1" stop-color="rgb(100%, 53.587341%, 1.5625%)" offset="0.0078125"/><stop stop-opacity="1" stop-color="rgb(100%, 53.530884%, 1.715088%)" offset="0.0117188"/><stop stop-opacity="1" stop-color="rgb(100%, 53.4729%, 1.867676%)" offset="0.015625"/><stop stop-opacity="1" stop-color="rgb(100%, 53.416443%, 2.02179%)" offset="0.0195312"/><stop stop-opacity="1" stop-color="rgb(100%, 53.359985%, 2.174377%)" offset="0.0234375"/><stop stop-opacity="1" stop-color="rgb(100%, 53.303528%, 2.326965%)" offset="0.0273438"/><stop stop-opacity="1" stop-color="rgb(100%, 53.24707%, 2.481079%)" offset="0.03125"/><stop stop-opacity="1" stop-color="rgb(100%, 53.190613%, 2.633667%)" offset="0.0351562"/><stop stop-opacity="1" stop-color="rgb(100%, 53.134155%, 2.787781%)" offset="0.0390625"/><stop stop-opacity="1" stop-color="rgb(100%, 53.076172%, 2.940369%)" offset="0.0429688"/><stop stop-opacity="1" stop-color="rgb(100%, 53.019714%, 3.092957%)" offset="0.046875"/><stop stop-opacity="1" stop-color="rgb(100%, 52.963257%, 3.24707%)" offset="0.0507812"/><stop stop-opacity="1" stop-color="rgb(100%, 52.906799%, 3.399658%)" offset="0.0546875"/><stop stop-opacity="1" stop-color="rgb(100%, 52.850342%, 3.552246%)" offset="0.0585938"/><stop stop-opacity="1" stop-color="rgb(100%, 52.793884%, 3.70636%)" offset="0.0625"/><stop stop-opacity="1" stop-color="rgb(100%, 52.737427%, 3.858948%)" offset="0.0664062"/><stop stop-opacity="1" stop-color="rgb(100%, 52.679443%, 4.013062%)" offset="0.0703125"/><stop stop-opacity="1" stop-color="rgb(100%, 52.622986%, 4.165649%)" offset="0.0742188"/><stop stop-opacity="1" stop-color="rgb(100%, 52.566528%, 4.318237%)" offset="0.078125"/><stop stop-opacity="1" stop-color="rgb(100%, 52.510071%, 4.472351%)" offset="0.0820312"/><stop stop-opacity="1" stop-color="rgb(100%, 52.453613%, 4.624939%)" offset="0.0859375"/><stop stop-opacity="1" stop-color="rgb(100%, 52.397156%, 4.779053%)" offset="0.0898438"/><stop stop-opacity="1" stop-color="rgb(100%, 52.339172%, 4.931641%)" offset="0.09375"/><stop stop-opacity="1" stop-color="rgb(100%, 52.282715%, 5.084229%)" offset="0.0976562"/><stop stop-opacity="1" stop-color="rgb(100%, 52.226257%, 5.238342%)" offset="0.101562"/><stop stop-opacity="1" stop-color="rgb(100%, 52.1698%, 5.39093%)" offset="0.105469"/><stop stop-opacity="1" stop-color="rgb(100%, 52.113342%, 5.543518%)" offset="0.109375"/><stop stop-opacity="1" stop-color="rgb(100%, 52.056885%, 5.697632%)" offset="0.113281"/><stop stop-opacity="1" stop-color="rgb(100%, 52.000427%, 5.85022%)" offset="0.117188"/><stop stop-opacity="1" stop-color="rgb(100%, 51.942444%, 6.004333%)" offset="0.121094"/><stop stop-opacity="1" stop-color="rgb(100%, 51.885986%, 6.156921%)" offset="0.125"/><stop stop-opacity="1" stop-color="rgb(100%, 51.829529%, 6.309509%)" offset="0.128906"/><stop stop-opacity="1" stop-color="rgb(100%, 51.773071%, 6.463623%)" offset="0.132812"/><stop stop-opacity="1" stop-color="rgb(100%, 51.716614%, 6.616211%)" offset="0.136719"/><stop stop-opacity="1" stop-color="rgb(100%, 51.660156%, 6.768799%)" offset="0.140625"/><stop stop-opacity="1" stop-color="rgb(100%, 51.603699%, 6.922913%)" offset="0.144531"/><stop stop-opacity="1" stop-color="rgb(100%, 51.545715%, 7.0755%)" offset="0.148438"/><stop stop-opacity="1" stop-color="rgb(100%, 51.489258%, 7.229614%)" offset="0.152344"/><stop stop-opacity="1" stop-color="rgb(100%, 51.4328%, 7.382202%)" offset="0.15625"/><stop stop-opacity="1" stop-color="rgb(100%, 51.376343%, 7.53479%)" offset="0.160156"/><stop stop-opacity="1" stop-color="rgb(100%, 51.319885%, 7.688904%)" offset="0.164062"/><stop stop-opacity="1" stop-color="rgb(100%, 51.263428%, 7.841492%)" offset="0.167969"/><stop stop-opacity="1" stop-color="rgb(100%, 51.20697%, 7.99408%)" offset="0.171875"/><stop stop-opacity="1" stop-color="rgb(100%, 51.148987%, 8.148193%)" offset="0.175781"/><stop stop-opacity="1" stop-color="rgb(100%, 51.092529%, 8.300781%)" offset="0.179688"/><stop stop-opacity="1" stop-color="rgb(100%, 51.036072%, 8.454895%)" offset="0.183594"/><stop stop-opacity="1" stop-color="rgb(100%, 50.979614%, 8.607483%)" offset="0.1875"/><stop stop-opacity="1" stop-color="rgb(100%, 50.923157%, 8.760071%)" offset="0.191406"/><stop stop-opacity="1" stop-color="rgb(100%, 50.866699%, 8.914185%)" offset="0.195312"/><stop stop-opacity="1" stop-color="rgb(100%, 50.810242%, 9.066772%)" offset="0.199219"/><stop stop-opacity="1" stop-color="rgb(100%, 50.752258%, 9.21936%)" offset="0.203125"/><stop stop-opacity="1" stop-color="rgb(100%, 50.695801%, 9.373474%)" offset="0.207031"/><stop stop-opacity="1" stop-color="rgb(100%, 50.639343%, 9.526062%)" offset="0.210938"/><stop stop-opacity="1" stop-color="rgb(100%, 50.582886%, 9.680176%)" offset="0.214844"/><stop stop-opacity="1" stop-color="rgb(100%, 50.526428%, 9.832764%)" offset="0.21875"/><stop stop-opacity="1" stop-color="rgb(100%, 50.469971%, 9.985352%)" offset="0.222656"/><stop stop-opacity="1" stop-color="rgb(100%, 50.413513%, 10.139465%)" offset="0.226562"/><stop stop-opacity="1" stop-color="rgb(100%, 50.35553%, 10.292053%)" offset="0.230469"/><stop stop-opacity="1" stop-color="rgb(100%, 50.299072%, 10.444641%)" offset="0.234375"/><stop stop-opacity="1" stop-color="rgb(100%, 50.242615%, 10.598755%)" offset="0.238281"/><stop stop-opacity="1" stop-color="rgb(100%, 50.186157%, 10.751343%)" offset="0.242188"/><stop stop-opacity="1" stop-color="rgb(100%, 50.1297%, 10.905457%)" offset="0.246094"/><stop stop-opacity="1" stop-color="rgb(100%, 50.073242%, 11.058044%)" offset="0.25"/><stop stop-opacity="1" stop-color="rgb(100%, 49.987793%, 11.286926%)" offset="0.253906"/><stop stop-opacity="1" stop-color="rgb(100%, 49.874878%, 11.593628%)" offset="0.261719"/><stop stop-opacity="1" stop-color="rgb(100%, 49.761963%, 11.90033%)" offset="0.269531"/><stop stop-opacity="1" stop-color="rgb(100%, 49.647522%, 12.207031%)" offset="0.277344"/><stop stop-opacity="1" stop-color="rgb(100%, 49.534607%, 12.512207%)" offset="0.285156"/><stop stop-opacity="1" stop-color="rgb(100%, 49.421692%, 12.818909%)" offset="0.292969"/><stop stop-opacity="1" stop-color="rgb(100%, 49.307251%, 13.12561%)" offset="0.300781"/><stop stop-opacity="1" stop-color="rgb(100%, 49.194336%, 13.432312%)" offset="0.308594"/><stop stop-opacity="1" stop-color="rgb(100%, 49.081421%, 13.737488%)" offset="0.316406"/><stop stop-opacity="1" stop-color="rgb(100%, 48.968506%, 14.044189%)" offset="0.324219"/><stop stop-opacity="1" stop-color="rgb(100%, 48.854065%, 14.350891%)" offset="0.332031"/><stop stop-opacity="1" stop-color="rgb(100%, 48.74115%, 14.657593%)" offset="0.339844"/><stop stop-opacity="1" stop-color="rgb(100%, 48.628235%, 14.962769%)" offset="0.347656"/><stop stop-opacity="1" stop-color="rgb(100%, 48.513794%, 15.26947%)" offset="0.355469"/><stop stop-opacity="1" stop-color="rgb(100%, 48.400879%, 15.576172%)" offset="0.363281"/><stop stop-opacity="1" stop-color="rgb(100%, 48.287964%, 15.882874%)" offset="0.371094"/><stop stop-opacity="1" stop-color="rgb(100%, 48.175049%, 16.188049%)" offset="0.378906"/><stop stop-opacity="1" stop-color="rgb(100%, 48.060608%, 16.494751%)" offset="0.386719"/><stop stop-opacity="1" stop-color="rgb(100%, 47.947693%, 16.801453%)" offset="0.394531"/><stop stop-opacity="1" stop-color="rgb(100%, 47.834778%, 17.108154%)" offset="0.402344"/><stop stop-opacity="1" stop-color="rgb(100%, 47.720337%, 17.41333%)" offset="0.410156"/><stop stop-opacity="1" stop-color="rgb(100%, 47.607422%, 17.720032%)" offset="0.417969"/><stop stop-opacity="1" stop-color="rgb(100%, 47.494507%, 18.026733%)" offset="0.425781"/><stop stop-opacity="1" stop-color="rgb(100%, 47.381592%, 18.333435%)" offset="0.433594"/><stop stop-opacity="1" stop-color="rgb(100%, 47.267151%, 18.638611%)" offset="0.441406"/><stop stop-opacity="1" stop-color="rgb(100%, 47.154236%, 18.945312%)" offset="0.449219"/><stop stop-opacity="1" stop-color="rgb(100%, 47.041321%, 19.252014%)" offset="0.457031"/><stop stop-opacity="1" stop-color="rgb(100%, 46.92688%, 19.558716%)" offset="0.464844"/><stop stop-opacity="1" stop-color="rgb(100%, 46.813965%, 19.865417%)" offset="0.472656"/><stop stop-opacity="1" stop-color="rgb(100%, 46.70105%, 20.170593%)" offset="0.480469"/><stop stop-opacity="1" stop-color="rgb(100%, 46.588135%, 20.477295%)" offset="0.488281"/><stop stop-opacity="1" stop-color="rgb(100%, 46.473694%, 20.783997%)" offset="0.496094"/><stop stop-opacity="1" stop-color="rgb(100%, 46.388245%, 21.014404%)" offset="0.503906"/><stop stop-opacity="1" stop-color="rgb(100%, 46.331787%, 21.166992%)" offset="0.507812"/><stop stop-opacity="1" stop-color="rgb(100%, 46.27533%, 21.31958%)" offset="0.511719"/><stop stop-opacity="1" stop-color="rgb(100%, 46.218872%, 21.473694%)" offset="0.515625"/><stop stop-opacity="1" stop-color="rgb(100%, 46.162415%, 21.626282%)" offset="0.519531"/><stop stop-opacity="1" stop-color="rgb(100%, 46.104431%, 21.77887%)" offset="0.523438"/><stop stop-opacity="1" stop-color="rgb(100%, 46.047974%, 21.932983%)" offset="0.527344"/><stop stop-opacity="1" stop-color="rgb(100%, 45.991516%, 22.085571%)" offset="0.53125"/><stop stop-opacity="1" stop-color="rgb(100%, 45.935059%, 22.239685%)" offset="0.535156"/><stop stop-opacity="1" stop-color="rgb(100%, 45.878601%, 22.392273%)" offset="0.539062"/><stop stop-opacity="1" stop-color="rgb(100%, 45.822144%, 22.544861%)" offset="0.542969"/><stop stop-opacity="1" stop-color="rgb(100%, 45.765686%, 22.698975%)" offset="0.546875"/><stop stop-opacity="1" stop-color="rgb(100%, 45.707703%, 22.851562%)" offset="0.550781"/><stop stop-opacity="1" stop-color="rgb(100%, 45.651245%, 23.00415%)" offset="0.554688"/><stop stop-opacity="1" stop-color="rgb(100%, 45.594788%, 23.158264%)" offset="0.558594"/><stop stop-opacity="1" stop-color="rgb(100%, 45.53833%, 23.310852%)" offset="0.5625"/><stop stop-opacity="1" stop-color="rgb(100%, 45.481873%, 23.464966%)" offset="0.566406"/><stop stop-opacity="1" stop-color="rgb(100%, 45.425415%, 23.617554%)" offset="0.570312"/><stop stop-opacity="1" stop-color="rgb(100%, 45.368958%, 23.770142%)" offset="0.574219"/><stop stop-opacity="1" stop-color="rgb(100%, 45.310974%, 23.924255%)" offset="0.578125"/><stop stop-opacity="1" stop-color="rgb(100%, 45.254517%, 24.076843%)" offset="0.582031"/><stop stop-opacity="1" stop-color="rgb(100%, 45.198059%, 24.229431%)" offset="0.585938"/><stop stop-opacity="1" stop-color="rgb(100%, 45.141602%, 24.383545%)" offset="0.589844"/><stop stop-opacity="1" stop-color="rgb(100%, 45.085144%, 24.536133%)" offset="0.59375"/><stop stop-opacity="1" stop-color="rgb(100%, 45.028687%, 24.690247%)" offset="0.597656"/><stop stop-opacity="1" stop-color="rgb(100%, 44.972229%, 24.842834%)" offset="0.601562"/><stop stop-opacity="1" stop-color="rgb(100%, 44.914246%, 24.995422%)" offset="0.605469"/><stop stop-opacity="1" stop-color="rgb(100%, 44.857788%, 25.149536%)" offset="0.609375"/><stop stop-opacity="1" stop-color="rgb(100%, 44.801331%, 25.302124%)" offset="0.613281"/><stop stop-opacity="1" stop-color="rgb(100%, 44.744873%, 25.454712%)" offset="0.617188"/><stop stop-opacity="1" stop-color="rgb(100%, 44.688416%, 25.608826%)" offset="0.621094"/><stop stop-opacity="1" stop-color="rgb(100%, 44.631958%, 25.761414%)" offset="0.625"/><stop stop-opacity="1" stop-color="rgb(100%, 44.546509%, 25.991821%)" offset="0.628906"/><stop stop-opacity="1" stop-color="rgb(100%, 44.433594%, 26.296997%)" offset="0.636719"/><stop stop-opacity="1" stop-color="rgb(100%, 44.320679%, 26.603699%)" offset="0.644531"/><stop stop-opacity="1" stop-color="rgb(100%, 44.206238%, 26.9104%)" offset="0.652344"/><stop stop-opacity="1" stop-color="rgb(100%, 44.093323%, 27.217102%)" offset="0.660156"/><stop stop-opacity="1" stop-color="rgb(100%, 43.980408%, 27.522278%)" offset="0.667969"/><stop stop-opacity="1" stop-color="rgb(100%, 43.867493%, 27.828979%)" offset="0.675781"/><stop stop-opacity="1" stop-color="rgb(100%, 43.753052%, 28.135681%)" offset="0.683594"/><stop stop-opacity="1" stop-color="rgb(100%, 43.640137%, 28.442383%)" offset="0.691406"/><stop stop-opacity="1" stop-color="rgb(100%, 43.527222%, 28.747559%)" offset="0.699219"/><stop stop-opacity="1" stop-color="rgb(100%, 43.412781%, 29.05426%)" offset="0.707031"/><stop stop-opacity="1" stop-color="rgb(100%, 43.299866%, 29.360962%)" offset="0.714844"/><stop stop-opacity="1" stop-color="rgb(100%, 43.186951%, 29.667664%)" offset="0.722656"/><stop stop-opacity="1" stop-color="rgb(100%, 43.07251%, 29.972839%)" offset="0.730469"/><stop stop-opacity="1" stop-color="rgb(100%, 42.959595%, 30.279541%)" offset="0.738281"/><stop stop-opacity="1" stop-color="rgb(100%, 42.84668%, 30.586243%)" offset="0.746094"/><stop stop-opacity="1" stop-color="rgb(100%, 42.76123%, 30.81665%)" offset="0.753906"/><stop stop-opacity="1" stop-color="rgb(100%, 42.704773%, 30.969238%)" offset="0.757812"/><stop stop-opacity="1" stop-color="rgb(100%, 42.648315%, 31.121826%)" offset="0.761719"/><stop stop-opacity="1" stop-color="rgb(100%, 42.590332%, 31.27594%)" offset="0.765625"/><stop stop-opacity="1" stop-color="rgb(100%, 42.533875%, 31.428528%)" offset="0.769531"/><stop stop-opacity="1" stop-color="rgb(100%, 42.477417%, 31.582642%)" offset="0.773438"/><stop stop-opacity="1" stop-color="rgb(100%, 42.420959%, 31.735229%)" offset="0.777344"/><stop stop-opacity="1" stop-color="rgb(100%, 42.364502%, 31.887817%)" offset="0.78125"/><stop stop-opacity="1" stop-color="rgb(100%, 42.308044%, 32.041931%)" offset="0.785156"/><stop stop-opacity="1" stop-color="rgb(100%, 42.251587%, 32.194519%)" offset="0.789062"/><stop stop-opacity="1" stop-color="rgb(100%, 42.193604%, 32.347107%)" offset="0.792969"/><stop stop-opacity="1" stop-color="rgb(100%, 42.137146%, 32.501221%)" offset="0.796875"/><stop stop-opacity="1" stop-color="rgb(100%, 42.080688%, 32.653809%)" offset="0.800781"/><stop stop-opacity="1" stop-color="rgb(100%, 42.024231%, 32.807922%)" offset="0.804688"/><stop stop-opacity="1" stop-color="rgb(100%, 41.967773%, 32.96051%)" offset="0.808594"/><stop stop-opacity="1" stop-color="rgb(100%, 41.911316%, 33.113098%)" offset="0.8125"/><stop stop-opacity="1" stop-color="rgb(100%, 41.825867%, 33.343506%)" offset="0.816406"/><stop stop-opacity="1" stop-color="rgb(100%, 41.712952%, 33.648682%)" offset="0.824219"/><stop stop-opacity="1" stop-color="rgb(100%, 41.600037%, 33.955383%)" offset="0.832031"/><stop stop-opacity="1" stop-color="rgb(100%, 41.485596%, 34.262085%)" offset="0.839844"/><stop stop-opacity="1" stop-color="rgb(100%, 41.372681%, 34.568787%)" offset="0.847656"/><stop stop-opacity="1" stop-color="rgb(100%, 41.259766%, 34.875488%)" offset="0.855469"/><stop stop-opacity="1" stop-color="rgb(100%, 41.146851%, 35.180664%)" offset="0.863281"/><stop stop-opacity="1" stop-color="rgb(100%, 41.03241%, 35.487366%)" offset="0.871094"/><stop stop-opacity="1" stop-color="rgb(100%, 40.94696%, 35.717773%)" offset="0.878906"/><stop stop-opacity="1" stop-color="rgb(100%, 40.890503%, 35.870361%)" offset="0.882812"/><stop stop-opacity="1" stop-color="rgb(100%, 40.834045%, 36.024475%)" offset="0.886719"/><stop stop-opacity="1" stop-color="rgb(100%, 40.777588%, 36.177063%)" offset="0.890625"/><stop stop-opacity="1" stop-color="rgb(100%, 40.72113%, 36.329651%)" offset="0.894531"/><stop stop-opacity="1" stop-color="rgb(100%, 40.664673%, 36.483765%)" offset="0.898438"/><stop stop-opacity="1" stop-color="rgb(100%, 40.606689%, 36.636353%)" offset="0.902344"/><stop stop-opacity="1" stop-color="rgb(100%, 40.550232%, 36.78894%)" offset="0.90625"/><stop stop-opacity="1" stop-color="rgb(100%, 40.466309%, 37.019348%)" offset="0.910156"/><stop stop-opacity="1" stop-color="rgb(100%, 40.351868%, 37.32605%)" offset="0.917969"/><stop stop-opacity="1" stop-color="rgb(100%, 40.238953%, 37.631226%)" offset="0.925781"/><stop stop-opacity="1" stop-color="rgb(100%, 40.126038%, 37.937927%)" offset="0.933594"/><stop stop-opacity="1" stop-color="rgb(100%, 40.040588%, 38.168335%)" offset="0.941406"/><stop stop-opacity="1" stop-color="rgb(100%, 39.984131%, 38.320923%)" offset="0.945312"/><stop stop-opacity="1" stop-color="rgb(100%, 39.927673%, 38.475037%)" offset="0.949219"/><stop stop-opacity="1" stop-color="rgb(100%, 39.86969%, 38.627625%)" offset="0.953125"/><stop stop-opacity="1" stop-color="rgb(100%, 39.785767%, 38.856506%)" offset="0.957031"/><stop stop-opacity="1" stop-color="rgb(100%, 39.672852%, 39.163208%)" offset="0.964844"/><stop stop-opacity="1" stop-color="rgb(100%, 39.587402%, 39.393616%)" offset="0.972656"/><stop stop-opacity="1" stop-color="rgb(100%, 39.530945%, 39.546204%)" offset="0.976562"/><stop stop-opacity="1" stop-color="rgb(100%, 39.445496%, 39.776611%)" offset="0.980469"/><stop stop-opacity="1" stop-color="rgb(100%, 39.360046%, 40.005493%)" offset="0.988281"/><stop stop-opacity="1" stop-color="rgb(100%, 39.276123%, 40.235901%)" offset="0.992188"/><stop stop-opacity="1" stop-color="rgb(100%, 39.219666%, 40.388489%)" offset="1"/></radialGradient><clipPath id="6dc8ebeab0"><rect x="0" width="108" y="0" height="35"/></clipPath><clipPath id="061e478105"><path d="M 14 9.816406 L 22.984375 9.816406 L 22.984375 25.054688 L 14 25.054688 Z M 14 9.816406 " clip-rule="nonzero"/></clipPath><clipPath id="0338386a67"><path d="M 13.980469 14.246094 L 13.980469 20.710938 C 13.980469 21.882812 14.449219 23.011719 15.28125 23.839844 C 16.109375 24.671875 17.238281 25.136719 18.410156 25.136719 C 19.585938 25.136719 20.710938 24.671875 21.542969 23.839844 C 22.375 23.011719 22.839844 21.882812 22.839844 20.710938 L 22.839844 14.246094 C 22.839844 13.074219 22.375 11.945312 21.542969 11.113281 C 20.710938 10.285156 19.585938 9.816406 18.410156 9.816406 C 17.238281 9.816406 16.109375 10.285156 15.28125 11.113281 C 14.449219 11.945312 13.980469 13.074219 13.980469 14.246094 Z M 13.980469 14.246094 " clip-rule="nonzero"/></clipPath><clipPath id="011d8a23a8"><rect x="0" width="62" y="0" height="23"/></clipPath><clipPath id="ef0a7f0fe7"><rect x="0" width="108" y="0" height="35"/></clipPath></defs><g transform="matrix(1, 0, 0, 1, 0, 2)"><g clip-path="url(#ef0a7f0fe7)"><g clip-path="url(#e638f5ec49)"><g clip-path="url(#1de3ef4a0e)"><g transform="matrix(1, 0, 0, 1, 0, -0.000000000000000444)"><g clip-path="url(#6dc8ebeab0)"><g clip-path="url(#d2c7ea18e2)"><g clip-path="url(#7531c16672)"><path fill="url(#875f1aa369)" d="M 0 0.910156 L 0 34.59375 L 107.625 34.59375 L 107.625 0.910156 Z M 0 0.910156 " fill-rule="nonzero"/></g></g></g></g></g></g><g clip-path="url(#061e478105)"><g clip-path="url(#0338386a67)"><path fill="#fcffff" d="M 14.910156 25.125 C 14.785156 25.121094 14.671875 25.082031 14.570312 25.007812 C 14.460938 24.925781 14.390625 24.816406 14.363281 24.683594 C 14.335938 24.546875 14.355469 24.421875 14.421875 24.300781 L 14.421875 24.296875 L 17.742188 18.421875 L 14.578125 18.421875 C 14.332031 18.421875 14.164062 18.308594 14.066406 18.082031 C 13.972656 17.855469 14.007812 17.65625 14.179688 17.480469 L 20.921875 10.050781 L 20.933594 10.039062 C 21.027344 9.945312 21.140625 9.890625 21.273438 9.878906 C 21.40625 9.867188 21.527344 9.898438 21.636719 9.972656 C 21.746094 10.046875 21.820312 10.152344 21.859375 10.277344 C 21.894531 10.40625 21.886719 10.53125 21.832031 10.65625 L 21.828125 10.664062 L 19.207031 16.144531 L 21.992188 16.144531 C 22.335938 16.144531 22.574219 16.304688 22.710938 16.621094 C 22.84375 16.941406 22.792969 17.222656 22.554688 17.46875 L 15.300781 24.957031 L 15.292969 24.964844 C 15.1875 25.070312 15.058594 25.121094 14.910156 25.125 Z M 14.894531 24.554688 Z M 14.617188 17.847656 L 17.769531 17.847656 C 17.867188 17.847656 17.960938 17.871094 18.046875 17.921875 C 18.128906 17.96875 18.199219 18.035156 18.246094 18.117188 C 18.296875 18.203125 18.324219 18.292969 18.324219 18.390625 C 18.328125 18.488281 18.304688 18.582031 18.257812 18.667969 L 18.257812 18.671875 L 14.988281 24.460938 L 22.140625 17.074219 C 22.207031 17.007812 22.21875 16.929688 22.183594 16.84375 C 22.148438 16.757812 22.082031 16.71875 21.992188 16.71875 L 19.179688 16.71875 C 19.085938 16.71875 19 16.695312 18.914062 16.648438 C 18.832031 16.605469 18.765625 16.542969 18.714844 16.464844 C 18.664062 16.386719 18.632812 16.300781 18.625 16.207031 C 18.617188 16.113281 18.632812 16.023438 18.671875 15.9375 L 18.675781 15.929688 L 21.257812 10.527344 Z M 21.570312 10.539062 Z M 21.570312 10.539062 " fill-opacity="1" fill-rule="nonzero"/></g></g><g transform="matrix(1, 0, 0, 1, 36, 6)"><g clip-path="url(#011d8a23a8)"><g fill="#fcffff" fill-opacity="1"><g transform="translate(0.86809, 17.570849)"><g><path d="M 4.5 -11.3125 C 5.957031 -11.3125 7.023438 -11.023438 7.703125 -10.453125 C 8.378906 -9.878906 8.71875 -9.0625 8.71875 -8 C 8.71875 -7.519531 8.632812 -7.066406 8.46875 -6.640625 C 8.3125 -6.210938 8.054688 -5.832031 7.703125 -5.5 C 7.359375 -5.175781 6.898438 -4.921875 6.328125 -4.734375 C 5.765625 -4.546875 5.066406 -4.453125 4.234375 -4.453125 L 2.859375 -4.453125 L 2.859375 0 L 1.546875 0 L 1.546875 -11.3125 Z M 4.375 -10.1875 L 2.859375 -10.1875 L 2.859375 -5.578125 L 4.09375 -5.578125 C 4.8125 -5.578125 5.410156 -5.65625 5.890625 -5.8125 C 6.378906 -5.96875 6.742188 -6.21875 6.984375 -6.5625 C 7.222656 -6.914062 7.34375 -7.378906 7.34375 -7.953125 C 7.34375 -8.703125 7.101562 -9.257812 6.625 -9.625 C 6.144531 -10 5.394531 -10.1875 4.375 -10.1875 Z M 4.375 -10.1875 "/></g></g></g><g fill="#fcffff" fill-opacity="1"><g transform="translate(10.391492, 17.570849)"><g><path d="M 8.671875 -4.25 C 8.671875 -3.550781 8.578125 -2.929688 8.390625 -2.390625 C 8.210938 -1.847656 7.953125 -1.382812 7.609375 -1 C 7.273438 -0.625 6.863281 -0.335938 6.375 -0.140625 C 5.894531 0.0546875 5.351562 0.15625 4.75 0.15625 C 4.175781 0.15625 3.648438 0.0546875 3.171875 -0.140625 C 2.703125 -0.335938 2.296875 -0.625 1.953125 -1 C 1.617188 -1.382812 1.351562 -1.847656 1.15625 -2.390625 C 0.96875 -2.929688 0.875 -3.550781 0.875 -4.25 C 0.875 -5.175781 1.03125 -5.96875 1.34375 -6.625 C 1.664062 -7.28125 2.117188 -7.78125 2.703125 -8.125 C 3.285156 -8.46875 3.984375 -8.640625 4.796875 -8.640625 C 5.566406 -8.640625 6.242188 -8.460938 6.828125 -8.109375 C 7.410156 -7.765625 7.863281 -7.265625 8.1875 -6.609375 C 8.507812 -5.960938 8.671875 -5.175781 8.671875 -4.25 Z M 2.21875 -4.25 C 2.21875 -3.570312 2.304688 -2.984375 2.484375 -2.484375 C 2.660156 -1.984375 2.9375 -1.59375 3.3125 -1.3125 C 3.695312 -1.039062 4.179688 -0.90625 4.765625 -0.90625 C 5.359375 -0.90625 5.84375 -1.039062 6.21875 -1.3125 C 6.601562 -1.59375 6.882812 -1.984375 7.0625 -2.484375 C 7.238281 -2.984375 7.328125 -3.570312 7.328125 -4.25 C 7.328125 -4.925781 7.238281 -5.507812 7.0625 -6 C 6.882812 -6.5 6.601562 -6.878906 6.21875 -7.140625 C 5.84375 -7.410156 5.359375 -7.546875 4.765625 -7.546875 C 3.878906 -7.546875 3.234375 -7.253906 2.828125 -6.671875 C 2.421875 -6.085938 2.21875 -5.28125 2.21875 -4.25 Z M 2.21875 -4.25 "/></g></g></g><g fill="#fcffff" fill-opacity="1"><g transform="translate(19.914895, 17.570849)"><g><path d="M 4.375 0.15625 C 3.300781 0.15625 2.445312 -0.207031 1.8125 -0.9375 C 1.1875 -1.675781 0.875 -2.765625 0.875 -4.203125 C 0.875 -5.660156 1.191406 -6.765625 1.828125 -7.515625 C 2.472656 -8.265625 3.328125 -8.640625 4.390625 -8.640625 C 4.835938 -8.640625 5.226562 -8.578125 5.5625 -8.453125 C 5.90625 -8.335938 6.195312 -8.179688 6.4375 -7.984375 C 6.675781 -7.785156 6.878906 -7.554688 7.046875 -7.296875 L 7.140625 -7.296875 C 7.117188 -7.460938 7.097656 -7.679688 7.078125 -7.953125 C 7.054688 -8.234375 7.046875 -8.460938 7.046875 -8.640625 L 7.046875 -12.03125 L 8.328125 -12.03125 L 8.328125 0 L 7.296875 0 L 7.109375 -1.203125 L 7.046875 -1.203125 C 6.890625 -0.953125 6.6875 -0.722656 6.4375 -0.515625 C 6.195312 -0.304688 5.90625 -0.140625 5.5625 -0.015625 C 5.226562 0.0976562 4.832031 0.15625 4.375 0.15625 Z M 4.578125 -0.90625 C 5.484375 -0.90625 6.125 -1.160156 6.5 -1.671875 C 6.875 -2.191406 7.0625 -2.960938 7.0625 -3.984375 L 7.0625 -4.21875 C 7.0625 -5.289062 6.878906 -6.113281 6.515625 -6.6875 C 6.160156 -7.269531 5.515625 -7.5625 4.578125 -7.5625 C 3.785156 -7.5625 3.191406 -7.257812 2.796875 -6.65625 C 2.410156 -6.050781 2.21875 -5.222656 2.21875 -4.171875 C 2.21875 -3.128906 2.410156 -2.320312 2.796875 -1.75 C 3.179688 -1.1875 3.773438 -0.90625 4.578125 -0.90625 Z M 4.578125 -0.90625 "/></g></g></g><g fill="#fcffff" fill-opacity="1"><g transform="translate(29.600629, 17.570849)"><g><path d="M 4.625 -8.640625 C 5.34375 -8.640625 5.957031 -8.476562 6.46875 -8.15625 C 6.988281 -7.832031 7.382812 -7.382812 7.65625 -6.8125 C 7.925781 -6.238281 8.0625 -5.566406 8.0625 -4.796875 L 8.0625 -4 L 2.21875 -4 C 2.226562 -3 2.472656 -2.238281 2.953125 -1.71875 C 3.429688 -1.195312 4.109375 -0.9375 4.984375 -0.9375 C 5.515625 -0.9375 5.988281 -0.984375 6.40625 -1.078125 C 6.820312 -1.179688 7.25 -1.332031 7.6875 -1.53125 L 7.6875 -0.390625 C 7.257812 -0.203125 6.832031 -0.0664062 6.40625 0.015625 C 5.988281 0.109375 5.492188 0.15625 4.921875 0.15625 C 4.109375 0.15625 3.398438 -0.0078125 2.796875 -0.34375 C 2.191406 -0.675781 1.71875 -1.164062 1.375 -1.8125 C 1.039062 -2.457031 0.875 -3.242188 0.875 -4.171875 C 0.875 -5.085938 1.023438 -5.878906 1.328125 -6.546875 C 1.640625 -7.210938 2.078125 -7.726562 2.640625 -8.09375 C 3.203125 -8.457031 3.863281 -8.640625 4.625 -8.640625 Z M 4.609375 -7.578125 C 3.921875 -7.578125 3.375 -7.351562 2.96875 -6.90625 C 2.5625 -6.457031 2.316406 -5.832031 2.234375 -5.03125 L 6.71875 -5.03125 C 6.71875 -5.53125 6.640625 -5.972656 6.484375 -6.359375 C 6.335938 -6.742188 6.109375 -7.039062 5.796875 -7.25 C 5.484375 -7.46875 5.085938 -7.578125 4.609375 -7.578125 Z M 4.609375 -7.578125 "/></g></g></g><g fill="#fcffff" fill-opacity="1"><g transform="translate(38.490169, 17.570849)"><g><path d="M 5.203125 -8.640625 C 5.378906 -8.640625 5.554688 -8.628906 5.734375 -8.609375 C 5.921875 -8.585938 6.085938 -8.5625 6.234375 -8.53125 L 6.078125 -7.34375 C 5.929688 -7.375 5.773438 -7.398438 5.609375 -7.421875 C 5.441406 -7.441406 5.28125 -7.453125 5.125 -7.453125 C 4.789062 -7.453125 4.472656 -7.382812 4.171875 -7.25 C 3.867188 -7.113281 3.601562 -6.914062 3.375 -6.65625 C 3.144531 -6.40625 2.960938 -6.097656 2.828125 -5.734375 C 2.703125 -5.378906 2.640625 -4.984375 2.640625 -4.546875 L 2.640625 0 L 1.359375 0 L 1.359375 -8.484375 L 2.421875 -8.484375 L 2.5625 -6.921875 L 2.609375 -6.921875 C 2.785156 -7.234375 3 -7.519531 3.25 -7.78125 C 3.5 -8.039062 3.785156 -8.25 4.109375 -8.40625 C 4.441406 -8.5625 4.804688 -8.640625 5.203125 -8.640625 Z M 5.203125 -8.640625 "/></g></g></g><g fill="#fcffff" fill-opacity="1"><g transform="translate(44.960208, 17.570849)"><g><path d="M 4.625 -8.640625 C 5.34375 -8.640625 5.957031 -8.476562 6.46875 -8.15625 C 6.988281 -7.832031 7.382812 -7.382812 7.65625 -6.8125 C 7.925781 -6.238281 8.0625 -5.566406 8.0625 -4.796875 L 8.0625 -4 L 2.21875 -4 C 2.226562 -3 2.472656 -2.238281 2.953125 -1.71875 C 3.429688 -1.195312 4.109375 -0.9375 4.984375 -0.9375 C 5.515625 -0.9375 5.988281 -0.984375 6.40625 -1.078125 C 6.820312 -1.179688 7.25 -1.332031 7.6875 -1.53125 L 7.6875 -0.390625 C 7.257812 -0.203125 6.832031 -0.0664062 6.40625 0.015625 C 5.988281 0.109375 5.492188 0.15625 4.921875 0.15625 C 4.109375 0.15625 3.398438 -0.0078125 2.796875 -0.34375 C 2.191406 -0.675781 1.71875 -1.164062 1.375 -1.8125 C 1.039062 -2.457031 0.875 -3.242188 0.875 -4.171875 C 0.875 -5.085938 1.023438 -5.878906 1.328125 -6.546875 C 1.640625 -7.210938 2.078125 -7.726562 2.640625 -8.09375 C 3.203125 -8.457031 3.863281 -8.640625 4.625 -8.640625 Z M 4.609375 -7.578125 C 3.921875 -7.578125 3.375 -7.351562 2.96875 -6.90625 C 2.5625 -6.457031 2.316406 -5.832031 2.234375 -5.03125 L 6.71875 -5.03125 C 6.71875 -5.53125 6.640625 -5.972656 6.484375 -6.359375 C 6.335938 -6.742188 6.109375 -7.039062 5.796875 -7.25 C 5.484375 -7.46875 5.085938 -7.578125 4.609375 -7.578125 Z M 4.609375 -7.578125 "/></g></g></g><g fill="#fcffff" fill-opacity="1"><g transform="translate(53.849748, 17.570849)"><g><path d="M 6.84375 -2.328125 C 6.84375 -1.785156 6.707031 -1.328125 6.4375 -0.953125 C 6.164062 -0.585938 5.773438 -0.3125 5.265625 -0.125 C 4.765625 0.0625 4.164062 0.15625 3.46875 0.15625 C 2.875 0.15625 2.359375 0.109375 1.921875 0.015625 C 1.492188 -0.078125 1.117188 -0.207031 0.796875 -0.375 L 0.796875 -1.5625 C 1.140625 -1.394531 1.550781 -1.238281 2.03125 -1.09375 C 2.507812 -0.957031 3 -0.890625 3.5 -0.890625 C 4.238281 -0.890625 4.769531 -1.003906 5.09375 -1.234375 C 5.425781 -1.472656 5.59375 -1.800781 5.59375 -2.21875 C 5.59375 -2.445312 5.523438 -2.648438 5.390625 -2.828125 C 5.265625 -3.003906 5.046875 -3.175781 4.734375 -3.34375 C 4.421875 -3.507812 3.992188 -3.695312 3.453125 -3.90625 C 2.910156 -4.101562 2.441406 -4.300781 2.046875 -4.5 C 1.648438 -4.707031 1.34375 -4.957031 1.125 -5.25 C 0.914062 -5.550781 0.8125 -5.9375 0.8125 -6.40625 C 0.8125 -7.125 1.097656 -7.675781 1.671875 -8.0625 C 2.253906 -8.445312 3.019531 -8.640625 3.96875 -8.640625 C 4.476562 -8.640625 4.957031 -8.585938 5.40625 -8.484375 C 5.851562 -8.378906 6.269531 -8.242188 6.65625 -8.078125 L 6.21875 -7.046875 C 5.863281 -7.191406 5.488281 -7.316406 5.09375 -7.421875 C 4.695312 -7.523438 4.296875 -7.578125 3.890625 -7.578125 C 3.296875 -7.578125 2.835938 -7.476562 2.515625 -7.28125 C 2.203125 -7.09375 2.046875 -6.828125 2.046875 -6.484375 C 2.046875 -6.222656 2.117188 -6.003906 2.265625 -5.828125 C 2.410156 -5.660156 2.644531 -5.5 2.96875 -5.34375 C 3.289062 -5.195312 3.71875 -5.023438 4.25 -4.828125 C 4.78125 -4.628906 5.238281 -4.425781 5.625 -4.21875 C 6.019531 -4.007812 6.320312 -3.753906 6.53125 -3.453125 C 6.738281 -3.160156 6.84375 -2.785156 6.84375 -2.328125 Z M 6.84375 -2.328125 "/></g></g></g></g></g></g></g></svg>