<svg xmlns="http://www.w3.org/2000/svg" xmlns:xlink="http://www.w3.org/1999/xlink" width="155" zoomAndPan="magnify" viewBox="0 0 116.25 39.749999" height="53" preserveAspectRatio="xMidYMid meet" version="1.0"><defs><g/><clipPath id="7c857b4bdc"><path d="M 0 0.910156 L 98.546875 0.910156 L 98.546875 34.59375 L 0 34.59375 Z M 0 0.910156 " clip-rule="nonzero"/></clipPath><clipPath id="7b1c2f7ce2"><path d="M 5.214844 0.910156 L 93.304688 0.910156 C 94.6875 0.910156 96.015625 1.460938 96.992188 2.4375 C 97.972656 3.414062 98.519531 4.742188 98.519531 6.125 L 98.519531 29.375 C 98.519531 30.757812 97.972656 32.085938 96.992188 33.0625 C 96.015625 34.042969 94.6875 34.59375 93.304688 34.59375 L 5.214844 34.59375 C 3.832031 34.59375 2.507812 34.042969 1.527344 33.0625 C 0.550781 32.085938 0 30.757812 0 29.375 L 0 6.125 C 0 4.742188 0.550781 3.414062 1.527344 2.4375 C 2.507812 1.460938 3.832031 0.910156 5.214844 0.910156 Z M 5.214844 0.910156 " clip-rule="nonzero"/></clipPath><clipPath id="3bb83a67ed"><path d="M 0 0.910156 L 98.519531 0.910156 L 98.519531 34.59375 L 0 34.59375 Z M 0 0.910156 " clip-rule="nonzero"/></clipPath><clipPath id="0045b12a55"><path d="M 5.214844 0.910156 L 93.304688 0.910156 C 94.6875 0.910156 96.015625 1.460938 96.992188 2.4375 C 97.972656 3.414062 98.519531 4.742188 98.519531 6.125 L 98.519531 29.375 C 98.519531 30.757812 97.972656 32.085938 96.992188 33.0625 C 96.015625 34.042969 94.6875 34.59375 93.304688 34.59375 L 5.214844 34.59375 C 3.832031 34.59375 2.507812 34.042969 1.527344 33.0625 C 0.550781 32.085938 0 30.757812 0 29.375 L 0 6.125 C 0 4.742188 0.550781 3.414062 1.527344 2.4375 C 2.507812 1.460938 3.832031 0.910156 5.214844 0.910156 Z M 5.214844 0.910156 " clip-rule="nonzero"/></clipPath><radialGradient gradientTransform="matrix(1, 0, 0, 1, -0.000706691, 0.909447)" gradientUnits="userSpaceOnUse" r="104.119511" cx="0" id="d0181247a0" cy="0" fx="0" fy="0"><stop stop-opacity="1" stop-color="rgb(31.634521%, 63.604736%, 99.978638%)" offset="0"/><stop stop-opacity="1" stop-color="rgb(31.324768%, 63.792419%, 99.928284%)" offset="0.0078125"/><stop stop-opacity="1" stop-color="rgb(30.952454%, 64.016724%, 99.868774%)" offset="0.0195312"/><stop stop-opacity="1" stop-color="rgb(30.580139%, 64.242554%, 99.809265%)" offset="0.03125"/><stop stop-opacity="1" stop-color="rgb(30.207825%, 64.466858%, 99.749756%)" offset="0.0429688"/><stop stop-opacity="1" stop-color="rgb(29.83551%, 64.692688%, 99.690247%)" offset="0.0546875"/><stop stop-opacity="1" stop-color="rgb(29.464722%, 64.918518%, 99.630737%)" offset="0.0664062"/><stop stop-opacity="1" stop-color="rgb(29.092407%, 65.142822%, 99.569702%)" offset="0.078125"/><stop stop-opacity="1" stop-color="rgb(28.720093%, 65.368652%, 99.510193%)" offset="0.0898438"/><stop stop-opacity="1" stop-color="rgb(28.347778%, 65.592957%, 99.450684%)" offset="0.101562"/><stop stop-opacity="1" stop-color="rgb(27.975464%, 65.818787%, 99.391174%)" offset="0.113281"/><stop stop-opacity="1" stop-color="rgb(27.603149%, 66.044617%, 99.331665%)" offset="0.125"/><stop stop-opacity="1" stop-color="rgb(27.230835%, 66.268921%, 99.272156%)" offset="0.136719"/><stop stop-opacity="1" stop-color="rgb(26.858521%, 66.494751%, 99.211121%)" offset="0.148438"/><stop stop-opacity="1" stop-color="rgb(26.486206%, 66.719055%, 99.151611%)" offset="0.160156"/><stop stop-opacity="1" stop-color="rgb(26.113892%, 66.944885%, 99.092102%)" offset="0.171875"/><stop stop-opacity="1" stop-color="rgb(25.741577%, 67.170715%, 99.032593%)" offset="0.183594"/><stop stop-opacity="1" stop-color="rgb(25.369263%, 67.39502%, 98.973083%)" offset="0.195312"/><stop stop-opacity="1" stop-color="rgb(24.998474%, 67.62085%, 98.913574%)" offset="0.207031"/><stop stop-opacity="1" stop-color="rgb(24.62616%, 67.84668%, 98.852539%)" offset="0.21875"/><stop stop-opacity="1" stop-color="rgb(24.253845%, 68.070984%, 98.79303%)" offset="0.230469"/><stop stop-opacity="1" stop-color="rgb(23.881531%, 68.296814%, 98.733521%)" offset="0.242188"/><stop stop-opacity="1" stop-color="rgb(23.570251%, 68.484497%, 98.684692%)" offset="0.253906"/><stop stop-opacity="1" stop-color="rgb(23.323059%, 68.634033%, 98.64502%)" offset="0.261719"/><stop stop-opacity="1" stop-color="rgb(23.074341%, 68.785095%, 98.605347%)" offset="0.269531"/><stop stop-opacity="1" stop-color="rgb(22.825623%, 68.934631%, 98.564148%)" offset="0.277344"/><stop stop-opacity="1" stop-color="rgb(22.57843%, 69.084167%, 98.524475%)" offset="0.285156"/><stop stop-opacity="1" stop-color="rgb(22.329712%, 69.235229%, 98.484802%)" offset="0.292969"/><stop stop-opacity="1" stop-color="rgb(22.08252%, 69.384766%, 98.445129%)" offset="0.300781"/><stop stop-opacity="1" stop-color="rgb(21.833801%, 69.535828%, 98.405457%)" offset="0.308594"/><stop stop-opacity="1" stop-color="rgb(21.585083%, 69.685364%, 98.365784%)" offset="0.316406"/><stop stop-opacity="1" stop-color="rgb(21.337891%, 69.8349%, 98.326111%)" offset="0.324219"/><stop stop-opacity="1" stop-color="rgb(21.089172%, 69.985962%, 98.286438%)" offset="0.332031"/><stop stop-opacity="1" stop-color="rgb(20.84198%, 70.135498%, 98.246765%)" offset="0.339844"/><stop stop-opacity="1" stop-color="rgb(20.593262%, 70.28656%, 98.205566%)" offset="0.347656"/><stop stop-opacity="1" stop-color="rgb(20.344543%, 70.436096%, 98.165894%)" offset="0.355469"/><stop stop-opacity="1" stop-color="rgb(20.097351%, 70.585632%, 98.126221%)" offset="0.363281"/><stop stop-opacity="1" stop-color="rgb(19.848633%, 70.736694%, 98.086548%)" offset="0.371094"/><stop stop-opacity="1" stop-color="rgb(19.599915%, 70.88623%, 98.046875%)" offset="0.378906"/><stop stop-opacity="1" stop-color="rgb(19.352722%, 71.037292%, 98.007202%)" offset="0.386719"/><stop stop-opacity="1" stop-color="rgb(19.104004%, 71.186829%, 97.967529%)" offset="0.394531"/><stop stop-opacity="1" stop-color="rgb(18.856812%, 71.336365%, 97.927856%)" offset="0.402344"/><stop stop-opacity="1" stop-color="rgb(18.608093%, 71.487427%, 97.888184%)" offset="0.410156"/><stop stop-opacity="1" stop-color="rgb(18.359375%, 71.636963%, 97.846985%)" offset="0.417969"/><stop stop-opacity="1" stop-color="rgb(18.112183%, 71.788025%, 97.807312%)" offset="0.425781"/><stop stop-opacity="1" stop-color="rgb(17.863464%, 71.937561%, 97.767639%)" offset="0.433594"/><stop stop-opacity="1" stop-color="rgb(17.616272%, 72.087097%, 97.727966%)" offset="0.441406"/><stop stop-opacity="1" stop-color="rgb(17.367554%, 72.238159%, 97.688293%)" offset="0.449219"/><stop stop-opacity="1" stop-color="rgb(17.118835%, 72.387695%, 97.648621%)" offset="0.457031"/><stop stop-opacity="1" stop-color="rgb(16.871643%, 72.538757%, 97.608948%)" offset="0.464844"/><stop stop-opacity="1" stop-color="rgb(16.622925%, 72.688293%, 97.569275%)" offset="0.472656"/><stop stop-opacity="1" stop-color="rgb(16.375732%, 72.839355%, 97.529602%)" offset="0.480469"/><stop stop-opacity="1" stop-color="rgb(16.127014%, 72.988892%, 97.488403%)" offset="0.488281"/><stop stop-opacity="1" stop-color="rgb(15.878296%, 73.138428%, 97.44873%)" offset="0.496094"/><stop stop-opacity="1" stop-color="rgb(15.568542%, 73.326111%, 97.398376%)" offset="0.503906"/><stop stop-opacity="1" stop-color="rgb(15.196228%, 73.551941%, 97.338867%)" offset="0.515625"/><stop stop-opacity="1" stop-color="rgb(14.823914%, 73.777771%, 97.279358%)" offset="0.527344"/><stop stop-opacity="1" stop-color="rgb(14.453125%, 74.002075%, 97.219849%)" offset="0.539062"/><stop stop-opacity="1" stop-color="rgb(14.080811%, 74.227905%, 97.160339%)" offset="0.550781"/><stop stop-opacity="1" stop-color="rgb(13.708496%, 74.452209%, 97.099304%)" offset="0.5625"/><stop stop-opacity="1" stop-color="rgb(13.336182%, 74.67804%, 97.039795%)" offset="0.574219"/><stop stop-opacity="1" stop-color="rgb(12.963867%, 74.90387%, 96.980286%)" offset="0.585938"/><stop stop-opacity="1" stop-color="rgb(12.591553%, 75.128174%, 96.920776%)" offset="0.597656"/><stop stop-opacity="1" stop-color="rgb(12.219238%, 75.354004%, 96.861267%)" offset="0.609375"/><stop stop-opacity="1" stop-color="rgb(11.846924%, 75.578308%, 96.801758%)" offset="0.621094"/><stop stop-opacity="1" stop-color="rgb(11.53717%, 75.765991%, 96.751404%)" offset="0.632812"/><stop stop-opacity="1" stop-color="rgb(11.288452%, 75.917053%, 96.711731%)" offset="0.640625"/><stop stop-opacity="1" stop-color="rgb(11.039734%, 76.066589%, 96.672058%)" offset="0.648438"/><stop stop-opacity="1" stop-color="rgb(10.792542%, 76.217651%, 96.632385%)" offset="0.65625"/><stop stop-opacity="1" stop-color="rgb(10.543823%, 76.367188%, 96.592712%)" offset="0.664062"/><stop stop-opacity="1" stop-color="rgb(10.296631%, 76.516724%, 96.55304%)" offset="0.671875"/><stop stop-opacity="1" stop-color="rgb(10.047913%, 76.667786%, 96.513367%)" offset="0.679688"/><stop stop-opacity="1" stop-color="rgb(9.799194%, 76.817322%, 96.473694%)" offset="0.6875"/><stop stop-opacity="1" stop-color="rgb(9.552002%, 76.968384%, 96.432495%)" offset="0.695312"/><stop stop-opacity="1" stop-color="rgb(9.303284%, 77.11792%, 96.392822%)" offset="0.703125"/><stop stop-opacity="1" stop-color="rgb(9.056091%, 77.268982%, 96.353149%)" offset="0.710938"/><stop stop-opacity="1" stop-color="rgb(8.807373%, 77.418518%, 96.313477%)" offset="0.71875"/><stop stop-opacity="1" stop-color="rgb(8.558655%, 77.568054%, 96.273804%)" offset="0.726562"/><stop stop-opacity="1" stop-color="rgb(8.311462%, 77.719116%, 96.234131%)" offset="0.734375"/><stop stop-opacity="1" stop-color="rgb(8.062744%, 77.868652%, 96.194458%)" offset="0.742188"/><stop stop-opacity="1" stop-color="rgb(7.814026%, 78.019714%, 96.154785%)" offset="0.75"/><stop stop-opacity="1" stop-color="rgb(7.504272%, 78.207397%, 96.104431%)" offset="0.757812"/><stop stop-opacity="1" stop-color="rgb(7.133484%, 78.431702%, 96.043396%)" offset="0.769531"/><stop stop-opacity="1" stop-color="rgb(6.761169%, 78.657532%, 95.983887%)" offset="0.78125"/><stop stop-opacity="1" stop-color="rgb(6.388855%, 78.881836%, 95.924377%)" offset="0.792969"/><stop stop-opacity="1" stop-color="rgb(6.016541%, 79.107666%, 95.864868%)" offset="0.804688"/><stop stop-opacity="1" stop-color="rgb(5.705261%, 79.295349%, 95.81604%)" offset="0.816406"/><stop stop-opacity="1" stop-color="rgb(5.458069%, 79.444885%, 95.776367%)" offset="0.824219"/><stop stop-opacity="1" stop-color="rgb(5.209351%, 79.595947%, 95.735168%)" offset="0.832031"/><stop stop-opacity="1" stop-color="rgb(4.960632%, 79.745483%, 95.695496%)" offset="0.839844"/><stop stop-opacity="1" stop-color="rgb(4.71344%, 79.896545%, 95.655823%)" offset="0.847656"/><stop stop-opacity="1" stop-color="rgb(4.464722%, 80.046082%, 95.61615%)" offset="0.855469"/><stop stop-opacity="1" stop-color="rgb(4.217529%, 80.195618%, 95.576477%)" offset="0.863281"/><stop stop-opacity="1" stop-color="rgb(3.968811%, 80.34668%, 95.536804%)" offset="0.871094"/><stop stop-opacity="1" stop-color="rgb(3.659058%, 80.534363%, 95.48645%)" offset="0.878906"/><stop stop-opacity="1" stop-color="rgb(3.286743%, 80.758667%, 95.426941%)" offset="0.890625"/><stop stop-opacity="1" stop-color="rgb(2.914429%, 80.984497%, 95.367432%)" offset="0.902344"/><stop stop-opacity="1" stop-color="rgb(2.604675%, 81.17218%, 95.317078%)" offset="0.914062"/><stop stop-opacity="1" stop-color="rgb(2.355957%, 81.321716%, 95.277405%)" offset="0.921875"/><stop stop-opacity="1" stop-color="rgb(2.107239%, 81.472778%, 95.237732%)" offset="0.929688"/><stop stop-opacity="1" stop-color="rgb(1.860046%, 81.622314%, 95.198059%)" offset="0.9375"/><stop stop-opacity="1" stop-color="rgb(1.550293%, 81.809998%, 95.147705%)" offset="0.945312"/><stop stop-opacity="1" stop-color="rgb(1.239014%, 81.997681%, 95.098877%)" offset="0.957031"/><stop stop-opacity="1" stop-color="rgb(0.991821%, 82.148743%, 95.059204%)" offset="0.964844"/><stop stop-opacity="1" stop-color="rgb(0.682068%, 82.336426%, 95.00885%)" offset="0.972656"/><stop stop-opacity="1" stop-color="rgb(0.370789%, 82.524109%, 94.958496%)" offset="0.984375"/><stop stop-opacity="1" stop-color="rgb(0.123596%, 82.673645%, 94.918823%)" offset="0.992188"/><stop stop-opacity="1" stop-color="rgb(0%, 82.749939%, 94.898987%)" offset="1"/></radialGradient><clipPath id="3e0342b4c0"><rect x="0" width="99" y="0" height="35"/></clipPath><clipPath id="e5f53a84e5"><path d="M 11.21875 10.121094 L 23 10.121094 L 23 25 L 11.21875 25 Z M 11.21875 10.121094 " clip-rule="nonzero"/></clipPath><clipPath id="b4af6a1a7f"><path d="M 11.21875 17.574219 L 11.21875 17.925781 C 11.21875 19.902344 12.003906 21.796875 13.402344 23.195312 C 14.796875 24.59375 16.695312 25.378906 18.667969 25.378906 L 19.910156 25.378906 C 21.886719 25.378906 23.78125 24.59375 25.179688 23.195312 C 26.578125 21.796875 27.363281 19.902344 27.363281 17.925781 L 27.363281 17.574219 C 27.363281 15.597656 26.578125 13.703125 25.179688 12.304688 C 23.78125 10.90625 21.886719 10.121094 19.910156 10.121094 L 18.667969 10.121094 C 16.695312 10.121094 14.796875 10.90625 13.402344 12.304688 C 12.003906 13.703125 11.21875 15.597656 11.21875 17.574219 Z M 11.21875 17.574219 " clip-rule="nonzero"/></clipPath><clipPath id="13bd68ead9"><path d="M 17 11 L 27.144531 11 L 27.144531 25.359375 L 17 25.359375 Z M 17 11 " clip-rule="nonzero"/></clipPath><clipPath id="f3dd96f9e9"><path d="M 11.21875 17.574219 L 11.21875 17.925781 C 11.21875 19.902344 12.003906 21.796875 13.402344 23.195312 C 14.796875 24.59375 16.695312 25.378906 18.667969 25.378906 L 19.910156 25.378906 C 21.886719 25.378906 23.78125 24.59375 25.179688 23.195312 C 26.578125 21.796875 27.363281 19.902344 27.363281 17.925781 L 27.363281 17.574219 C 27.363281 15.597656 26.578125 13.703125 25.179688 12.304688 C 23.78125 10.90625 21.886719 10.121094 19.910156 10.121094 L 18.667969 10.121094 C 16.695312 10.121094 14.796875 10.90625 13.402344 12.304688 C 12.003906 13.703125 11.21875 15.597656 11.21875 17.574219 Z M 11.21875 17.574219 " clip-rule="nonzero"/></clipPath><clipPath id="958fc43c3a"><path d="M 0.722656 6 L 11 6 L 11 18 L 0.722656 18 Z M 0.722656 6 " clip-rule="nonzero"/></clipPath><clipPath id="fa1142a6a1"><rect x="0" width="51" y="0" height="23"/></clipPath><clipPath id="59938ffefd"><rect x="0" width="99" y="0" height="35"/></clipPath></defs><g transform="matrix(1, 0, 0, 1, 0, 2)"><g clip-path="url(#59938ffefd)"><g clip-path="url(#7c857b4bdc)"><g clip-path="url(#7b1c2f7ce2)"><g transform="matrix(1, 0, 0, 1, 0, -0.000000000000000444)"><g clip-path="url(#3e0342b4c0)"><g clip-path="url(#3bb83a67ed)"><g clip-path="url(#0045b12a55)"><path fill="url(#d0181247a0)" d="M 0 0.910156 L 0 34.59375 L 98.519531 34.59375 L 98.519531 0.910156 Z M 0 0.910156 " fill-rule="nonzero"/></g></g></g></g></g></g><g clip-path="url(#e5f53a84e5)"><g clip-path="url(#b4af6a1a7f)"><path fill="#fcffff" d="M 22.867188 10.125 L 19.433594 10.125 L 15.820312 15.882812 L 14.554688 10.125 L 11.21875 10.125 L 13.511719 20.214844 L 14.972656 20.214844 L 14.925781 20.308594 L 14.089844 21.90625 L 15.089844 20.308594 L 15.148438 20.214844 L 15.441406 20.214844 L 15.394531 20.308594 L 13.09375 24.703125 L 15.851562 20.308594 L 15.910156 20.214844 L 16.25 20.214844 L 16.203125 20.308594 L 14.804688 22.984375 L 16.484375 20.308594 L 17.554688 18.597656 Z M 13.953125 19.660156 L 11.914062 10.679688 L 14.109375 10.679688 L 15.566406 17.324219 L 19.742188 10.679688 L 21.867188 10.679688 L 16.96875 18.492188 L 16.234375 19.660156 Z M 13.953125 19.660156 " fill-opacity="1" fill-rule="nonzero"/></g></g><g clip-path="url(#13bd68ead9)"><g clip-path="url(#f3dd96f9e9)"><path fill="#fcffff" d="M 25.457031 19.65625 C 24.835938 19.261719 24.0625 19.058594 23.375 18.878906 C 22.949219 18.765625 22.550781 18.660156 22.277344 18.53125 C 21.957031 18.375 21.957031 18.25 21.957031 18.199219 L 21.957031 18.195312 C 21.957031 17.8125 22.546875 17.546875 23.394531 17.546875 C 24.300781 17.546875 25.175781 17.789062 25.863281 18.226562 L 26.125 18.390625 L 27.351562 15.886719 L 27.136719 15.753906 C 26.242188 15.199219 24.972656 14.894531 23.558594 14.894531 C 23.296875 14.894531 23.042969 14.90625 22.792969 14.929688 L 24.28125 12.648438 L 22.5 14.960938 C 22.375 14.976562 22.257812 14.996094 22.136719 15.019531 L 24.75 11.015625 L 21.5625 15.152344 C 21.445312 15.1875 21.332031 15.222656 21.222656 15.261719 L 22.210938 13.742188 L 20.964844 15.363281 C 20.625 15.503906 20.320312 15.675781 20.046875 15.882812 C 19.617188 16.207031 19.28125 16.597656 19.054688 17.054688 C 18.820312 17.511719 18.707031 18.027344 18.707031 18.578125 C 18.707031 19.054688 18.8125 19.480469 19.03125 19.84375 C 19.21875 20.160156 19.492188 20.4375 19.84375 20.667969 C 20.472656 21.078125 21.253906 21.289062 21.941406 21.476562 C 22.359375 21.589844 22.753906 21.695312 23.019531 21.824219 C 23.335938 21.980469 23.335938 22.097656 23.335938 22.144531 C 23.335938 22.492188 22.804688 22.714844 21.980469 22.714844 C 20.941406 22.714844 19.867188 22.394531 18.953125 21.816406 L 18.699219 21.65625 L 17.382812 24.15625 L 17.585938 24.296875 C 18.050781 24.613281 18.664062 24.878906 19.367188 25.066406 C 20.105469 25.261719 20.917969 25.367188 21.71875 25.367188 C 23.148438 25.367188 24.359375 25.027344 25.226562 24.382812 C 25.664062 24.058594 26.003906 23.664062 26.234375 23.214844 C 26.46875 22.753906 26.589844 22.246094 26.589844 21.695312 C 26.589844 21.230469 26.480469 20.8125 26.265625 20.460938 C 26.082031 20.152344 25.808594 19.878906 25.457031 19.65625 Z M 21.722656 24.8125 C 20.355469 24.8125 19 24.492188 18.109375 23.96875 L 18.914062 22.441406 C 19.34375 22.683594 19.792969 22.875 20.269531 23.015625 C 20.832031 23.183594 21.410156 23.269531 21.980469 23.269531 C 22.535156 23.269531 22.984375 23.179688 23.3125 23.007812 C 23.6875 22.8125 23.890625 22.507812 23.890625 22.144531 C 23.890625 21.957031 23.824219 21.785156 23.695312 21.636719 C 23.59375 21.519531 23.453125 21.417969 23.265625 21.328125 C 22.949219 21.171875 22.53125 21.058594 22.085938 20.941406 C 21.4375 20.765625 20.703125 20.566406 20.148438 20.203125 C 19.542969 19.808594 19.261719 19.292969 19.261719 18.578125 C 19.261719 18.136719 19.347656 17.734375 19.519531 17.367188 C 19.707031 16.964844 19.996094 16.613281 20.378906 16.324219 C 20.464844 16.261719 20.550781 16.203125 20.644531 16.144531 C 20.730469 16.09375 20.820312 16.042969 20.910156 15.996094 C 21.152344 15.875 21.414062 15.773438 21.699219 15.691406 C 21.796875 15.660156 21.894531 15.636719 21.996094 15.613281 C 22.128906 15.582031 22.261719 15.558594 22.398438 15.535156 C 22.761719 15.476562 23.148438 15.449219 23.558594 15.449219 C 24.757812 15.449219 25.835938 15.679688 26.628906 16.101562 L 25.894531 17.601562 C 25.570312 17.425781 25.222656 17.285156 24.847656 17.183594 C 24.371094 17.054688 23.890625 16.992188 23.394531 16.992188 C 22.816406 16.992188 22.328125 17.097656 21.980469 17.296875 C 21.609375 17.511719 21.402344 17.832031 21.402344 18.195312 C 21.402344 18.386719 21.464844 18.5625 21.597656 18.714844 C 21.699219 18.832031 21.84375 18.9375 22.035156 19.03125 C 22.355469 19.183594 22.785156 19.296875 23.238281 19.414062 C 24.546875 19.757812 26.035156 20.144531 26.035156 21.695312 C 26.035156 23.589844 24.339844 24.8125 21.71875 24.8125 Z M 21.722656 24.8125 " fill-opacity="1" fill-rule="nonzero"/></g></g><g transform="matrix(1, 0, 0, 1, 36, 6)"><g clip-path="url(#fa1142a6a1)"><g clip-path="url(#958fc43c3a)"><g fill="#fcffff" fill-opacity="1"><g transform="translate(0.86809, 17.570842)"><g><path d="M 9.453125 -11.3125 L 5.390625 0 L 4.0625 0 L 0 -11.3125 L 1.375 -11.3125 L 4.015625 -3.859375 C 4.128906 -3.554688 4.226562 -3.269531 4.3125 -3 C 4.394531 -2.726562 4.46875 -2.460938 4.53125 -2.203125 C 4.601562 -1.953125 4.664062 -1.710938 4.71875 -1.484375 C 4.769531 -1.710938 4.828125 -1.953125 4.890625 -2.203125 C 4.960938 -2.460938 5.039062 -2.726562 5.125 -3 C 5.21875 -3.28125 5.316406 -3.578125 5.421875 -3.890625 L 8.046875 -11.3125 Z M 9.453125 -11.3125 "/></g></g></g></g><g fill="#fcffff" fill-opacity="1"><g transform="translate(10.306462, 17.570842)"><g><path d="M 4.625 -8.640625 C 5.34375 -8.640625 5.957031 -8.476562 6.46875 -8.15625 C 6.988281 -7.832031 7.382812 -7.382812 7.65625 -6.8125 C 7.925781 -6.238281 8.0625 -5.566406 8.0625 -4.796875 L 8.0625 -4 L 2.21875 -4 C 2.226562 -3 2.472656 -2.238281 2.953125 -1.71875 C 3.429688 -1.195312 4.109375 -0.9375 4.984375 -0.9375 C 5.515625 -0.9375 5.988281 -0.984375 6.40625 -1.078125 C 6.820312 -1.179688 7.25 -1.332031 7.6875 -1.53125 L 7.6875 -0.390625 C 7.257812 -0.203125 6.832031 -0.0664062 6.40625 0.015625 C 5.988281 0.109375 5.492188 0.15625 4.921875 0.15625 C 4.109375 0.15625 3.398438 -0.0078125 2.796875 -0.34375 C 2.191406 -0.675781 1.71875 -1.164062 1.375 -1.8125 C 1.039062 -2.457031 0.875 -3.242188 0.875 -4.171875 C 0.875 -5.085938 1.023438 -5.878906 1.328125 -6.546875 C 1.640625 -7.210938 2.078125 -7.726562 2.640625 -8.09375 C 3.203125 -8.457031 3.863281 -8.640625 4.625 -8.640625 Z M 4.609375 -7.578125 C 3.921875 -7.578125 3.375 -7.351562 2.96875 -6.90625 C 2.5625 -6.457031 2.316406 -5.832031 2.234375 -5.03125 L 6.71875 -5.03125 C 6.71875 -5.53125 6.640625 -5.972656 6.484375 -6.359375 C 6.335938 -6.742188 6.109375 -7.039062 5.796875 -7.25 C 5.484375 -7.46875 5.085938 -7.578125 4.609375 -7.578125 Z M 4.609375 -7.578125 "/></g></g></g><g fill="#fcffff" fill-opacity="1"><g transform="translate(19.196002, 17.570842)"><g><path d="M 5.203125 -8.640625 C 5.378906 -8.640625 5.554688 -8.628906 5.734375 -8.609375 C 5.921875 -8.585938 6.085938 -8.5625 6.234375 -8.53125 L 6.078125 -7.34375 C 5.929688 -7.375 5.773438 -7.398438 5.609375 -7.421875 C 5.441406 -7.441406 5.28125 -7.453125 5.125 -7.453125 C 4.789062 -7.453125 4.472656 -7.382812 4.171875 -7.25 C 3.867188 -7.113281 3.601562 -6.914062 3.375 -6.65625 C 3.144531 -6.40625 2.960938 -6.097656 2.828125 -5.734375 C 2.703125 -5.378906 2.640625 -4.984375 2.640625 -4.546875 L 2.640625 0 L 1.359375 0 L 1.359375 -8.484375 L 2.421875 -8.484375 L 2.5625 -6.921875 L 2.609375 -6.921875 C 2.785156 -7.234375 3 -7.519531 3.25 -7.78125 C 3.5 -8.039062 3.785156 -8.25 4.109375 -8.40625 C 4.441406 -8.5625 4.804688 -8.640625 5.203125 -8.640625 Z M 5.203125 -8.640625 "/></g></g></g><g fill="#fcffff" fill-opacity="1"><g transform="translate(25.666041, 17.570842)"><g><path d="M 6.84375 -2.328125 C 6.84375 -1.785156 6.707031 -1.328125 6.4375 -0.953125 C 6.164062 -0.585938 5.773438 -0.3125 5.265625 -0.125 C 4.765625 0.0625 4.164062 0.15625 3.46875 0.15625 C 2.875 0.15625 2.359375 0.109375 1.921875 0.015625 C 1.492188 -0.078125 1.117188 -0.207031 0.796875 -0.375 L 0.796875 -1.5625 C 1.140625 -1.394531 1.550781 -1.238281 2.03125 -1.09375 C 2.507812 -0.957031 3 -0.890625 3.5 -0.890625 C 4.238281 -0.890625 4.769531 -1.003906 5.09375 -1.234375 C 5.425781 -1.472656 5.59375 -1.800781 5.59375 -2.21875 C 5.59375 -2.445312 5.523438 -2.648438 5.390625 -2.828125 C 5.265625 -3.003906 5.046875 -3.175781 4.734375 -3.34375 C 4.421875 -3.507812 3.992188 -3.695312 3.453125 -3.90625 C 2.910156 -4.101562 2.441406 -4.300781 2.046875 -4.5 C 1.648438 -4.707031 1.34375 -4.957031 1.125 -5.25 C 0.914062 -5.550781 0.8125 -5.9375 0.8125 -6.40625 C 0.8125 -7.125 1.097656 -7.675781 1.671875 -8.0625 C 2.253906 -8.445312 3.019531 -8.640625 3.96875 -8.640625 C 4.476562 -8.640625 4.957031 -8.585938 5.40625 -8.484375 C 5.851562 -8.378906 6.269531 -8.242188 6.65625 -8.078125 L 6.21875 -7.046875 C 5.863281 -7.191406 5.488281 -7.316406 5.09375 -7.421875 C 4.695312 -7.523438 4.296875 -7.578125 3.890625 -7.578125 C 3.296875 -7.578125 2.835938 -7.476562 2.515625 -7.28125 C 2.203125 -7.09375 2.046875 -6.828125 2.046875 -6.484375 C 2.046875 -6.222656 2.117188 -6.003906 2.265625 -5.828125 C 2.410156 -5.660156 2.644531 -5.5 2.96875 -5.34375 C 3.289062 -5.195312 3.71875 -5.023438 4.25 -4.828125 C 4.78125 -4.628906 5.238281 -4.425781 5.625 -4.21875 C 6.019531 -4.007812 6.320312 -3.753906 6.53125 -3.453125 C 6.738281 -3.160156 6.84375 -2.785156 6.84375 -2.328125 Z M 6.84375 -2.328125 "/></g></g></g><g fill="#fcffff" fill-opacity="1"><g transform="translate(33.210555, 17.570842)"><g><path d="M 8.359375 -8.484375 L 8.359375 0 L 7.296875 0 L 7.125 -1.1875 L 7.046875 -1.1875 C 6.867188 -0.894531 6.640625 -0.644531 6.359375 -0.4375 C 6.085938 -0.238281 5.773438 -0.09375 5.421875 0 C 5.078125 0.101562 4.707031 0.15625 4.3125 0.15625 C 3.644531 0.15625 3.082031 0.046875 2.625 -0.171875 C 2.175781 -0.390625 1.835938 -0.722656 1.609375 -1.171875 C 1.378906 -1.628906 1.265625 -2.210938 1.265625 -2.921875 L 1.265625 -8.484375 L 2.5625 -8.484375 L 2.5625 -3.015625 C 2.5625 -2.304688 2.71875 -1.773438 3.03125 -1.421875 C 3.351562 -1.078125 3.84375 -0.90625 4.5 -0.90625 C 5.132812 -0.90625 5.632812 -1.023438 6 -1.265625 C 6.375 -1.503906 6.644531 -1.851562 6.8125 -2.3125 C 6.976562 -2.78125 7.0625 -3.347656 7.0625 -4.015625 L 7.0625 -8.484375 Z M 8.359375 -8.484375 "/></g></g></g><g fill="#fcffff" fill-opacity="1"><g transform="translate(42.919479, 17.570842)"><g><path d="M 6.84375 -2.328125 C 6.84375 -1.785156 6.707031 -1.328125 6.4375 -0.953125 C 6.164062 -0.585938 5.773438 -0.3125 5.265625 -0.125 C 4.765625 0.0625 4.164062 0.15625 3.46875 0.15625 C 2.875 0.15625 2.359375 0.109375 1.921875 0.015625 C 1.492188 -0.078125 1.117188 -0.207031 0.796875 -0.375 L 0.796875 -1.5625 C 1.140625 -1.394531 1.550781 -1.238281 2.03125 -1.09375 C 2.507812 -0.957031 3 -0.890625 3.5 -0.890625 C 4.238281 -0.890625 4.769531 -1.003906 5.09375 -1.234375 C 5.425781 -1.472656 5.59375 -1.800781 5.59375 -2.21875 C 5.59375 -2.445312 5.523438 -2.648438 5.390625 -2.828125 C 5.265625 -3.003906 5.046875 -3.175781 4.734375 -3.34375 C 4.421875 -3.507812 3.992188 -3.695312 3.453125 -3.90625 C 2.910156 -4.101562 2.441406 -4.300781 2.046875 -4.5 C 1.648438 -4.707031 1.34375 -4.957031 1.125 -5.25 C 0.914062 -5.550781 0.8125 -5.9375 0.8125 -6.40625 C 0.8125 -7.125 1.097656 -7.675781 1.671875 -8.0625 C 2.253906 -8.445312 3.019531 -8.640625 3.96875 -8.640625 C 4.476562 -8.640625 4.957031 -8.585938 5.40625 -8.484375 C 5.851562 -8.378906 6.269531 -8.242188 6.65625 -8.078125 L 6.21875 -7.046875 C 5.863281 -7.191406 5.488281 -7.316406 5.09375 -7.421875 C 4.695312 -7.523438 4.296875 -7.578125 3.890625 -7.578125 C 3.296875 -7.578125 2.835938 -7.476562 2.515625 -7.28125 C 2.203125 -7.09375 2.046875 -6.828125 2.046875 -6.484375 C 2.046875 -6.222656 2.117188 -6.003906 2.265625 -5.828125 C 2.410156 -5.660156 2.644531 -5.5 2.96875 -5.34375 C 3.289062 -5.195312 3.71875 -5.023438 4.25 -4.828125 C 4.78125 -4.628906 5.238281 -4.425781 5.625 -4.21875 C 6.019531 -4.007812 6.320312 -3.753906 6.53125 -3.453125 C 6.738281 -3.160156 6.84375 -2.785156 6.84375 -2.328125 Z M 6.84375 -2.328125 "/></g></g></g></g></g></g></g></svg>