<svg xmlns="http://www.w3.org/2000/svg" xmlns:xlink="http://www.w3.org/1999/xlink" width="82" zoomAndPan="magnify" viewBox="0 0 61.5 61.499996" height="82" preserveAspectRatio="xMidYMid meet" version="1.0"><defs><clipPath id="f45c4473b0"><path d="M 0 13.253906 L 61 13.253906 L 61 47.476562 L 0 47.476562 Z M 0 13.253906 " clip-rule="nonzero"/></clipPath></defs><g clip-path="url(#f45c4473b0)"><path fill="#fcffff" d="M 30.402344 13.402344 C 18.765625 13.402344 8.058594 18.707031 1.023438 27.953125 C -0.0742188 29.394531 -0.0742188 31.402344 1.019531 32.84375 C 8.058594 42.089844 18.765625 47.394531 30.402344 47.394531 C 42.035156 47.394531 52.746094 42.089844 59.78125 32.84375 C 60.878906 31.402344 60.878906 29.394531 59.78125 27.953125 C 52.746094 18.707031 42.035156 13.402344 30.402344 13.402344 Z M 56.578125 30.40625 C 50.308594 38.644531 40.769531 43.367188 30.402344 43.367188 C 20.035156 43.367188 10.492188 38.644531 4.226562 30.390625 C 10.492188 22.152344 20.035156 17.429688 30.402344 17.429688 C 40.769531 17.429688 50.308594 22.152344 56.578125 30.390625 C 56.578125 30.394531 56.578125 30.402344 56.578125 30.40625 Z M 56.578125 30.40625 " fill-opacity="1" fill-rule="nonzero"/></g><path fill="#fcffff" d="M 30.402344 18.613281 C 23.902344 18.613281 18.617188 23.898438 18.617188 30.398438 C 18.617188 36.898438 23.902344 42.183594 30.402344 42.183594 C 36.902344 42.183594 42.1875 36.898438 42.1875 30.398438 C 42.1875 23.898438 36.902344 18.613281 30.402344 18.613281 Z M 30.402344 38.15625 C 26.121094 38.15625 22.640625 34.675781 22.640625 30.398438 C 22.640625 26.121094 26.121094 22.640625 30.402344 22.640625 C 34.679688 22.640625 38.160156 26.121094 38.160156 30.398438 C 38.160156 34.675781 34.679688 38.15625 30.402344 38.15625 Z M 30.402344 38.15625 " fill-opacity="1" fill-rule="nonzero"/></svg>