<svg xmlns="http://www.w3.org/2000/svg" xmlns:xlink="http://www.w3.org/1999/xlink" width="82" zoomAndPan="magnify" viewBox="0 0 61.5 61.499996" height="82" preserveAspectRatio="xMidYMid meet" version="1.0"><path fill="#fcffff" d="M 30.496094 33.882812 C 31.058594 33.882812 31.605469 34.128906 32.003906 34.5625 L 48.714844 52.921875 L 48.714844 4.609375 L 12.28125 4.609375 L 12.28125 52.925781 L 28.996094 34.570312 C 29.386719 34.128906 29.929688 33.882812 30.496094 33.882812 M 10.160156 60.832031 C 9.886719 60.832031 9.613281 60.777344 9.355469 60.660156 C 8.5625 60.300781 8.046875 59.460938 8.046875 58.527344 L 8.046875 2.300781 C 8.046875 1.03125 8.996094 0 10.160156 0 L 50.832031 0 C 52.003906 0 52.945312 1.03125 52.945312 2.300781 L 52.945312 58.527344 C 52.945312 59.460938 52.429688 60.300781 51.636719 60.660156 C 50.839844 61.015625 49.929688 60.8125 49.324219 60.148438 L 30.496094 39.460938 L 11.667969 60.148438 C 11.261719 60.597656 10.71875 60.832031 10.160156 60.832031 " fill-opacity="1" fill-rule="nonzero"/></svg>