<svg xmlns="http://www.w3.org/2000/svg" xmlns:xlink="http://www.w3.org/1999/xlink" width="82" zoomAndPan="magnify" viewBox="0 0 61.5 61.499996" height="82" preserveAspectRatio="xMidYMid meet" version="1.0"><defs><clipPath id="df7dd401b9"><path d="M 1 1.773438 L 60 1.773438 L 60 59.058594 L 1 59.058594 Z M 1 1.773438 " clip-rule="nonzero"/></clipPath></defs><g clip-path="url(#df7dd401b9)"><path fill="#fcffff" d="M 56.46875 8.851562 C 54.90625 7.53125 52.75 7.171875 50.351562 7.652344 C 50.589844 5.972656 50.710938 4.414062 50.710938 2.972656 C 50.710938 2.253906 50.230469 1.773438 49.511719 1.773438 L 11.371094 1.773438 C 10.652344 1.773438 10.171875 2.253906 10.171875 2.972656 C 10.171875 4.414062 10.292969 5.972656 10.535156 7.652344 C 8.136719 7.171875 6.097656 7.652344 4.417969 8.851562 C 0.21875 12.328125 0.9375 20.605469 6.214844 27.679688 C 9.8125 32.71875 14.730469 35.714844 18.929688 35.714844 C 19.648438 35.714844 20.246094 35.59375 20.847656 35.476562 C 22.527344 37.632812 24.445312 39.433594 26.484375 40.390625 C 25.285156 44.828125 23.246094 47.707031 21.085938 47.707031 C 20.367188 47.707031 19.886719 48.1875 19.886719 48.90625 C 19.886719 48.90625 19.886719 49.027344 19.886719 49.027344 L 19.886719 58.023438 C 19.886719 58.742188 20.367188 59.222656 21.085938 59.222656 L 39.917969 59.222656 C 40.636719 59.222656 41.117188 58.742188 41.117188 58.023438 L 41.117188 49.027344 C 41.117188 49.027344 41.117188 48.90625 41.117188 48.90625 C 41.117188 48.1875 40.636719 47.707031 39.917969 47.707031 C 37.878906 47.707031 35.71875 44.828125 34.519531 40.390625 C 36.558594 39.433594 38.359375 37.632812 40.15625 35.476562 C 40.757812 35.59375 41.355469 35.714844 42.074219 35.714844 C 46.273438 35.714844 51.191406 32.597656 54.789062 27.679688 C 59.945312 20.484375 60.785156 12.207031 56.46875 8.851562 Z M 8.136719 26.242188 C 3.816406 20.363281 2.859375 13.167969 5.976562 10.648438 C 6.695312 10.050781 7.535156 9.808594 8.734375 9.808594 C 9.335938 9.808594 10.054688 9.808594 10.773438 10.050781 C 10.773438 10.167969 10.773438 10.289062 10.894531 10.410156 C 12.09375 18.207031 14.851562 25.878906 19.289062 33.316406 C 15.808594 33.554688 11.371094 30.679688 8.136719 26.242188 Z M 38.597656 50.226562 L 38.597656 56.824219 L 22.285156 56.824219 L 22.285156 50.226562 Z M 35.359375 47.828125 L 25.40625 47.828125 C 26.722656 46.269531 27.804688 44.109375 28.644531 41.230469 C 30.082031 41.589844 31.160156 41.472656 32.242188 41.230469 C 32.960938 43.992188 34.039062 46.269531 35.359375 47.828125 Z M 38.71875 33.4375 C 38.71875 33.4375 38.597656 33.4375 38.71875 33.4375 C 36.199219 36.914062 33.320312 39.074219 30.441406 39.074219 C 27.5625 39.074219 24.804688 36.914062 22.285156 33.4375 C 22.285156 33.4375 22.285156 33.4375 22.285156 33.316406 C 18.089844 27.558594 14.492188 17.964844 13.171875 8.96875 C 13.171875 8.96875 13.171875 8.851562 13.171875 8.851562 C 12.8125 7.171875 12.574219 5.613281 12.574219 4.054688 L 48.3125 4.054688 C 48.3125 5.613281 48.070312 7.171875 47.832031 8.851562 C 47.832031 8.851562 47.832031 8.96875 47.832031 8.96875 C 46.511719 17.964844 43.515625 26 38.71875 33.4375 Z M 52.75 26.242188 C 49.511719 30.679688 44.953125 33.554688 41.59375 33.316406 C 45.792969 25.878906 48.910156 18.324219 49.992188 10.53125 C 49.992188 10.410156 50.109375 10.167969 50.109375 10.050781 C 52.03125 9.449219 53.828125 9.691406 55.027344 10.648438 C 58.144531 13.167969 57.1875 20.363281 52.75 26.242188 Z M 52.75 26.242188 " fill-opacity="1" fill-rule="nonzero"/></g></svg>