<svg xmlns="http://www.w3.org/2000/svg" xmlns:xlink="http://www.w3.org/1999/xlink" width="82" zoomAndPan="magnify" viewBox="0 0 61.5 61.499996" height="82" preserveAspectRatio="xMidYMid meet" version="1.0"><defs><clipPath id="a1cf9b69cd"><path d="M 0 0 L 60.976562 0 L 60.976562 60.742188 L 0 60.742188 Z M 0 0 " clip-rule="nonzero"/></clipPath><clipPath id="f45c902425"><path d="M 13.390625 0 L 47.472656 0 C 54.867188 0 60.863281 5.996094 60.863281 13.390625 L 60.863281 47.347656 C 60.863281 54.746094 54.867188 60.742188 47.472656 60.742188 L 13.390625 60.742188 C 5.996094 60.742188 0 54.746094 0 47.347656 L 0 13.390625 C 0 5.996094 5.996094 0 13.390625 0 Z M 13.390625 0 " clip-rule="nonzero"/></clipPath><clipPath id="fcdb4684b3"><path d="M 0 0 L 60.863281 0 L 60.863281 60.742188 L 0 60.742188 Z M 0 0 " clip-rule="nonzero"/></clipPath><clipPath id="d0efbda56a"><path d="M 13.390625 0 L 47.472656 0 C 54.867188 0 60.863281 5.996094 60.863281 13.390625 L 60.863281 47.347656 C 60.863281 54.746094 54.867188 60.742188 47.472656 60.742188 L 13.390625 60.742188 C 5.996094 60.742188 0 54.746094 0 47.347656 L 0 13.390625 C 0 5.996094 5.996094 0 13.390625 0 Z M 13.390625 0 " clip-rule="nonzero"/></clipPath><radialGradient gradientTransform="matrix(1, 0, 0, 1, -0.000160919, -0.00000198387)" gradientUnits="userSpaceOnUse" r="85.98723" cx="0" id="87f031f24e" cy="0" fx="0" fy="0"><stop stop-opacity="1" stop-color="rgb(99.993896%, 53.918457%, 1.556396%)" offset="0"/><stop stop-opacity="1" stop-color="rgb(99.983215%, 54.251099%, 1.535034%)" offset="0.015625"/><stop stop-opacity="1" stop-color="rgb(99.97406%, 54.536438%, 1.516724%)" offset="0.0273438"/><stop stop-opacity="1" stop-color="rgb(99.964905%, 54.820251%, 1.498413%)" offset="0.0390625"/><stop stop-opacity="1" stop-color="rgb(99.95575%, 55.105591%, 1.480103%)" offset="0.0507812"/><stop stop-opacity="1" stop-color="rgb(99.946594%, 55.39093%, 1.461792%)" offset="0.0625"/><stop stop-opacity="1" stop-color="rgb(99.937439%, 55.674744%, 1.443481%)" offset="0.0742188"/><stop stop-opacity="1" stop-color="rgb(99.928284%, 55.960083%, 1.425171%)" offset="0.0859375"/><stop stop-opacity="1" stop-color="rgb(99.919128%, 56.245422%, 1.40686%)" offset="0.0976562"/><stop stop-opacity="1" stop-color="rgb(99.909973%, 56.530762%, 1.38855%)" offset="0.109375"/><stop stop-opacity="1" stop-color="rgb(99.900818%, 56.814575%, 1.370239%)" offset="0.121094"/><stop stop-opacity="1" stop-color="rgb(99.891663%, 57.099915%, 1.351929%)" offset="0.132812"/><stop stop-opacity="1" stop-color="rgb(99.882507%, 57.385254%, 1.333618%)" offset="0.144531"/><stop stop-opacity="1" stop-color="rgb(99.873352%, 57.669067%, 1.315308%)" offset="0.15625"/><stop stop-opacity="1" stop-color="rgb(99.864197%, 57.954407%, 1.296997%)" offset="0.167969"/><stop stop-opacity="1" stop-color="rgb(99.855042%, 58.239746%, 1.277161%)" offset="0.179688"/><stop stop-opacity="1" stop-color="rgb(99.845886%, 58.52356%, 1.25885%)" offset="0.191406"/><stop stop-opacity="1" stop-color="rgb(99.836731%, 58.808899%, 1.24054%)" offset="0.203125"/><stop stop-opacity="1" stop-color="rgb(99.827576%, 59.094238%, 1.222229%)" offset="0.214844"/><stop stop-opacity="1" stop-color="rgb(99.81842%, 59.379578%, 1.203918%)" offset="0.226562"/><stop stop-opacity="1" stop-color="rgb(99.809265%, 59.663391%, 1.185608%)" offset="0.238281"/><stop stop-opacity="1" stop-color="rgb(99.80011%, 59.94873%, 1.167297%)" offset="0.25"/><stop stop-opacity="1" stop-color="rgb(99.79248%, 60.186768%, 1.152039%)" offset="0.261719"/><stop stop-opacity="1" stop-color="rgb(99.786377%, 60.375977%, 1.139832%)" offset="0.269531"/><stop stop-opacity="1" stop-color="rgb(99.780273%, 60.566711%, 1.127625%)" offset="0.277344"/><stop stop-opacity="1" stop-color="rgb(99.77417%, 60.75592%, 1.115417%)" offset="0.285156"/><stop stop-opacity="1" stop-color="rgb(99.768066%, 60.946655%, 1.10321%)" offset="0.292969"/><stop stop-opacity="1" stop-color="rgb(99.761963%, 61.135864%, 1.091003%)" offset="0.300781"/><stop stop-opacity="1" stop-color="rgb(99.755859%, 61.325073%, 1.078796%)" offset="0.308594"/><stop stop-opacity="1" stop-color="rgb(99.749756%, 61.515808%, 1.066589%)" offset="0.316406"/><stop stop-opacity="1" stop-color="rgb(99.743652%, 61.705017%, 1.054382%)" offset="0.324219"/><stop stop-opacity="1" stop-color="rgb(99.737549%, 61.895752%, 1.042175%)" offset="0.332031"/><stop stop-opacity="1" stop-color="rgb(99.731445%, 62.084961%, 1.029968%)" offset="0.339844"/><stop stop-opacity="1" stop-color="rgb(99.725342%, 62.275696%, 1.017761%)" offset="0.347656"/><stop stop-opacity="1" stop-color="rgb(99.719238%, 62.464905%, 1.005554%)" offset="0.355469"/><stop stop-opacity="1" stop-color="rgb(99.713135%, 62.65564%, 0.993347%)" offset="0.363281"/><stop stop-opacity="1" stop-color="rgb(99.707031%, 62.844849%, 0.98114%)" offset="0.371094"/><stop stop-opacity="1" stop-color="rgb(99.697876%, 63.130188%, 0.961304%)" offset="0.378906"/><stop stop-opacity="1" stop-color="rgb(99.685669%, 63.510132%, 0.93689%)" offset="0.394531"/><stop stop-opacity="1" stop-color="rgb(99.673462%, 63.890076%, 0.912476%)" offset="0.410156"/><stop stop-opacity="1" stop-color="rgb(99.661255%, 64.268494%, 0.888062%)" offset="0.425781"/><stop stop-opacity="1" stop-color="rgb(99.649048%, 64.648438%, 0.863647%)" offset="0.441406"/><stop stop-opacity="1" stop-color="rgb(99.636841%, 65.028381%, 0.839233%)" offset="0.457031"/><stop stop-opacity="1" stop-color="rgb(99.624634%, 65.408325%, 0.814819%)" offset="0.472656"/><stop stop-opacity="1" stop-color="rgb(99.612427%, 65.788269%, 0.790405%)" offset="0.488281"/><stop stop-opacity="1" stop-color="rgb(99.601746%, 66.120911%, 0.769043%)" offset="0.503906"/><stop stop-opacity="1" stop-color="rgb(99.59259%, 66.40625%, 0.750732%)" offset="0.515625"/><stop stop-opacity="1" stop-color="rgb(99.583435%, 66.691589%, 0.732422%)" offset="0.527344"/><stop stop-opacity="1" stop-color="rgb(99.57428%, 66.975403%, 0.714111%)" offset="0.539062"/><stop stop-opacity="1" stop-color="rgb(99.565125%, 67.260742%, 0.695801%)" offset="0.550781"/><stop stop-opacity="1" stop-color="rgb(99.555969%, 67.546082%, 0.67749%)" offset="0.5625"/><stop stop-opacity="1" stop-color="rgb(99.546814%, 67.829895%, 0.65918%)" offset="0.574219"/><stop stop-opacity="1" stop-color="rgb(99.537659%, 68.115234%, 0.639343%)" offset="0.585938"/><stop stop-opacity="1" stop-color="rgb(99.528503%, 68.400574%, 0.621033%)" offset="0.597656"/><stop stop-opacity="1" stop-color="rgb(99.519348%, 68.684387%, 0.602722%)" offset="0.609375"/><stop stop-opacity="1" stop-color="rgb(99.510193%, 68.969727%, 0.584412%)" offset="0.621094"/><stop stop-opacity="1" stop-color="rgb(99.502563%, 69.207764%, 0.569153%)" offset="0.632812"/><stop stop-opacity="1" stop-color="rgb(99.49646%, 69.396973%, 0.556946%)" offset="0.640625"/><stop stop-opacity="1" stop-color="rgb(99.490356%, 69.587708%, 0.544739%)" offset="0.648438"/><stop stop-opacity="1" stop-color="rgb(99.484253%, 69.776917%, 0.532532%)" offset="0.65625"/><stop stop-opacity="1" stop-color="rgb(99.478149%, 69.967651%, 0.520325%)" offset="0.664062"/><stop stop-opacity="1" stop-color="rgb(99.472046%, 70.15686%, 0.508118%)" offset="0.671875"/><stop stop-opacity="1" stop-color="rgb(99.465942%, 70.347595%, 0.495911%)" offset="0.679688"/><stop stop-opacity="1" stop-color="rgb(99.459839%, 70.536804%, 0.483704%)" offset="0.6875"/><stop stop-opacity="1" stop-color="rgb(99.450684%, 70.822144%, 0.465393%)" offset="0.695312"/><stop stop-opacity="1" stop-color="rgb(99.438477%, 71.202087%, 0.440979%)" offset="0.710938"/><stop stop-opacity="1" stop-color="rgb(99.42627%, 71.580505%, 0.416565%)" offset="0.726562"/><stop stop-opacity="1" stop-color="rgb(99.414062%, 71.960449%, 0.392151%)" offset="0.742188"/><stop stop-opacity="1" stop-color="rgb(99.403381%, 72.293091%, 0.370789%)" offset="0.757812"/><stop stop-opacity="1" stop-color="rgb(99.394226%, 72.57843%, 0.352478%)" offset="0.769531"/><stop stop-opacity="1" stop-color="rgb(99.385071%, 72.86377%, 0.334167%)" offset="0.78125"/><stop stop-opacity="1" stop-color="rgb(99.375916%, 73.147583%, 0.314331%)" offset="0.792969"/><stop stop-opacity="1" stop-color="rgb(99.36676%, 73.432922%, 0.296021%)" offset="0.804688"/><stop stop-opacity="1" stop-color="rgb(99.359131%, 73.670959%, 0.280762%)" offset="0.816406"/><stop stop-opacity="1" stop-color="rgb(99.353027%, 73.860168%, 0.268555%)" offset="0.824219"/><stop stop-opacity="1" stop-color="rgb(99.346924%, 74.050903%, 0.256348%)" offset="0.832031"/><stop stop-opacity="1" stop-color="rgb(99.34082%, 74.240112%, 0.244141%)" offset="0.839844"/><stop stop-opacity="1" stop-color="rgb(99.331665%, 74.525452%, 0.22583%)" offset="0.847656"/><stop stop-opacity="1" stop-color="rgb(99.319458%, 74.905396%, 0.201416%)" offset="0.863281"/><stop stop-opacity="1" stop-color="rgb(99.308777%, 75.238037%, 0.180054%)" offset="0.878906"/><stop stop-opacity="1" stop-color="rgb(99.299622%, 75.521851%, 0.161743%)" offset="0.890625"/><stop stop-opacity="1" stop-color="rgb(99.290466%, 75.80719%, 0.143433%)" offset="0.902344"/><stop stop-opacity="1" stop-color="rgb(99.282837%, 76.045227%, 0.128174%)" offset="0.914062"/><stop stop-opacity="1" stop-color="rgb(99.276733%, 76.234436%, 0.115967%)" offset="0.921875"/><stop stop-opacity="1" stop-color="rgb(99.267578%, 76.519775%, 0.0976562%)" offset="0.929688"/><stop stop-opacity="1" stop-color="rgb(99.256897%, 76.852417%, 0.0762939%)" offset="0.945312"/><stop stop-opacity="1" stop-color="rgb(99.249268%, 77.088928%, 0.0610352%)" offset="0.957031"/><stop stop-opacity="1" stop-color="rgb(99.240112%, 77.374268%, 0.0427246%)" offset="0.964844"/><stop stop-opacity="1" stop-color="rgb(99.230957%, 77.659607%, 0.0244141%)" offset="0.980469"/><stop stop-opacity="1" stop-color="rgb(99.223328%, 77.896118%, 0.00915527%)" offset="0.988281"/><stop stop-opacity="1" stop-color="rgb(99.21875%, 78.039551%, 0%)" offset="1"/></radialGradient><clipPath id="347f097bb4"><rect x="0" width="61" y="0" height="61"/></clipPath></defs><g clip-path="url(#a1cf9b69cd)"><g clip-path="url(#f45c902425)"><g transform="matrix(1, 0, 0, 1, -0, 0.000000000000013145)"><g clip-path="url(#347f097bb4)"><g clip-path="url(#fcdb4684b3)"><g clip-path="url(#d0efbda56a)"><path fill="url(#87f031f24e)" d="M 0 0 L 0 60.742188 L 60.863281 60.742188 L 60.863281 0 Z M 0 0 " fill-rule="nonzero"/></g></g></g></g></g></g><path fill="#fcffff" d="M 24.6875 24.304688 L 23.613281 24.304688 L 23.613281 23.226562 C 23.613281 23.003906 23.570312 22.789062 23.484375 22.582031 C 23.398438 22.375 23.277344 22.191406 23.117188 22.03125 C 22.957031 21.875 22.777344 21.753906 22.570312 21.667969 C 22.363281 21.582031 22.148438 21.539062 21.921875 21.539062 L 20.078125 21.539062 C 19.855469 21.539062 19.640625 21.582031 19.433594 21.667969 C 19.226562 21.753906 19.042969 21.875 18.882812 22.03125 C 18.726562 22.191406 18.605469 22.375 18.519531 22.582031 C 18.433594 22.789062 18.390625 23.003906 18.390625 23.226562 L 18.390625 24.304688 L 17.3125 24.304688 C 17.089844 24.304688 16.875 24.347656 16.667969 24.433594 C 16.460938 24.519531 16.277344 24.640625 16.121094 24.796875 C 15.960938 24.957031 15.839844 25.140625 15.753906 25.347656 C 15.667969 25.554688 15.625 25.769531 15.625 25.992188 L 15.625 27.835938 C 15.625 28.058594 15.667969 28.277344 15.753906 28.484375 C 15.839844 28.691406 15.960938 28.871094 16.121094 29.03125 C 16.277344 29.1875 16.460938 29.3125 16.667969 29.398438 C 16.875 29.484375 17.089844 29.527344 17.3125 29.527344 L 18.390625 29.527344 L 18.390625 30.601562 C 18.390625 30.824219 18.433594 31.042969 18.519531 31.246094 C 18.605469 31.453125 18.726562 31.636719 18.886719 31.796875 C 19.042969 31.953125 19.226562 32.078125 19.433594 32.164062 C 19.640625 32.246094 19.855469 32.292969 20.078125 32.292969 L 21.921875 32.292969 C 22.148438 32.292969 22.363281 32.246094 22.570312 32.164062 C 22.777344 32.078125 22.957031 31.953125 23.117188 31.796875 C 23.273438 31.636719 23.398438 31.453125 23.484375 31.246094 C 23.570312 31.042969 23.613281 30.824219 23.613281 30.601562 L 23.613281 29.527344 L 24.6875 29.527344 C 24.914062 29.527344 25.128906 29.484375 25.335938 29.398438 C 25.542969 29.3125 25.722656 29.1875 25.882812 29.03125 C 26.039062 28.871094 26.164062 28.691406 26.25 28.484375 C 26.335938 28.277344 26.378906 28.058594 26.378906 27.835938 L 26.378906 25.992188 C 26.378906 25.769531 26.335938 25.554688 26.25 25.347656 C 26.164062 25.140625 26.039062 24.957031 25.882812 24.796875 C 25.722656 24.640625 25.542969 24.519531 25.335938 24.433594 C 25.128906 24.347656 24.914062 24.304688 24.6875 24.304688 Z M 24.839844 27.835938 C 24.839844 27.9375 24.789062 27.988281 24.6875 27.988281 L 22.84375 27.988281 C 22.632812 27.988281 22.453125 28.066406 22.300781 28.214844 C 22.152344 28.363281 22.078125 28.546875 22.078125 28.757812 L 22.078125 30.601562 C 22.078125 30.703125 22.023438 30.753906 21.921875 30.753906 L 20.078125 30.753906 C 19.976562 30.753906 19.925781 30.703125 19.925781 30.601562 L 19.925781 28.757812 C 19.925781 28.546875 19.851562 28.363281 19.699219 28.214844 C 19.550781 28.066406 19.371094 27.988281 19.15625 27.988281 L 17.3125 27.988281 C 17.210938 27.988281 17.160156 27.9375 17.160156 27.835938 L 17.160156 25.992188 C 17.160156 25.890625 17.210938 25.839844 17.3125 25.839844 L 19.15625 25.839844 C 19.371094 25.839844 19.550781 25.765625 19.699219 25.613281 C 19.851562 25.464844 19.925781 25.28125 19.925781 25.070312 L 19.925781 23.226562 C 19.925781 23.125 19.976562 23.074219 20.078125 23.074219 L 21.921875 23.074219 C 22.023438 23.074219 22.078125 23.125 22.078125 23.226562 L 22.078125 25.070312 C 22.078125 25.28125 22.152344 25.464844 22.300781 25.613281 C 22.449219 25.765625 22.632812 25.839844 22.84375 25.839844 L 24.6875 25.839844 C 24.789062 25.839844 24.839844 25.890625 24.839844 25.992188 Z M 24.839844 27.835938 " fill-opacity="1" fill-rule="nonzero"/><path fill="#fcffff" d="M 39.667969 28.789062 C 39.328125 28.785156 39 28.84375 38.6875 28.972656 C 38.371094 29.097656 38.09375 29.277344 37.851562 29.511719 C 37.605469 29.75 37.417969 30.023438 37.28125 30.332031 C 37.148438 30.644531 37.078125 30.96875 37.070312 31.308594 C 37.066406 31.648438 37.125 31.972656 37.246094 32.289062 C 37.371094 32.605469 37.550781 32.886719 37.785156 33.128906 C 38.019531 33.375 38.292969 33.566406 38.601562 33.703125 C 38.910156 33.839844 39.234375 33.910156 39.574219 33.917969 C 42.949219 33.859375 43.078125 28.933594 39.667969 28.789062 Z M 39.605469 32.382812 C 39.46875 32.382812 39.339844 32.351562 39.214844 32.296875 C 39.089844 32.242188 38.980469 32.167969 38.886719 32.070312 C 38.792969 31.972656 38.722656 31.863281 38.671875 31.734375 C 38.621094 31.609375 38.597656 31.480469 38.597656 31.34375 C 38.601562 31.207031 38.625 31.078125 38.679688 30.953125 C 38.734375 30.828125 38.808594 30.71875 38.902344 30.625 C 39 30.527344 39.109375 30.453125 39.234375 30.402344 C 39.359375 30.351562 39.492188 30.324219 39.625 30.324219 C 39.761719 30.328125 39.890625 30.355469 40.015625 30.410156 C 40.140625 30.464844 40.25 30.539062 40.34375 30.636719 C 40.4375 30.734375 40.507812 30.847656 40.558594 30.972656 C 40.609375 31.097656 40.632812 31.230469 40.632812 31.363281 C 40.628906 31.5 40.601562 31.628906 40.550781 31.753906 C 40.496094 31.878906 40.421875 31.988281 40.328125 32.085938 C 40.230469 32.179688 40.121094 32.253906 39.996094 32.304688 C 39.871094 32.359375 39.738281 32.382812 39.605469 32.382812 Z M 39.605469 32.382812 " fill-opacity="1" fill-rule="nonzero"/><path fill="#fcffff" d="M 35.234375 24.339844 C 31.835938 24.371094 31.777344 29.410156 35.183594 29.457031 C 35.519531 29.457031 35.839844 29.390625 36.152344 29.261719 C 36.460938 29.132812 36.738281 28.949219 36.976562 28.714844 C 37.214844 28.476562 37.398438 28.203125 37.527344 27.894531 C 37.660156 27.582031 37.726562 27.261719 37.730469 26.925781 C 37.734375 26.589844 37.671875 26.265625 37.546875 25.953125 C 37.425781 25.640625 37.246094 25.363281 37.011719 25.121094 C 36.777344 24.878906 36.507812 24.691406 36.199219 24.554688 C 35.894531 24.421875 35.570312 24.347656 35.234375 24.339844 Z M 35.160156 27.921875 C 34.882812 27.90625 34.648438 27.800781 34.457031 27.59375 C 34.269531 27.390625 34.179688 27.152344 34.183594 26.875 C 34.191406 26.59375 34.296875 26.359375 34.496094 26.164062 C 34.695312 25.972656 34.933594 25.875 35.210938 25.878906 C 35.347656 25.878906 35.480469 25.90625 35.605469 25.957031 C 35.734375 26.011719 35.84375 26.089844 35.941406 26.1875 C 36.035156 26.285156 36.109375 26.398438 36.160156 26.527344 C 36.210938 26.65625 36.234375 26.789062 36.230469 26.925781 C 36.226562 27.0625 36.195312 27.195312 36.140625 27.320312 C 36.082031 27.445312 36.003906 27.554688 35.902344 27.648438 C 35.804688 27.742188 35.6875 27.8125 35.558594 27.859375 C 35.429688 27.90625 35.296875 27.925781 35.160156 27.921875 Z M 35.160156 27.921875 " fill-opacity="1" fill-rule="nonzero"/><path fill="#fcffff" d="M 44.09375 24.339844 C 40.699219 24.425781 40.625 29.378906 44.054688 29.457031 C 47.429688 29.402344 47.429688 24.449219 44.09375 24.339844 Z M 44.03125 27.921875 C 43.898438 27.917969 43.769531 27.886719 43.644531 27.832031 C 43.519531 27.777344 43.414062 27.703125 43.320312 27.605469 C 43.226562 27.507812 43.15625 27.398438 43.105469 27.269531 C 43.058594 27.144531 43.035156 27.015625 43.035156 26.878906 C 43.039062 26.746094 43.066406 26.617188 43.121094 26.492188 C 43.171875 26.371094 43.25 26.261719 43.34375 26.167969 C 43.441406 26.074219 43.554688 26 43.679688 25.949219 C 43.804688 25.898438 43.933594 25.875 44.066406 25.878906 C 44.203125 25.878906 44.332031 25.910156 44.457031 25.964844 C 44.578125 26.019531 44.6875 26.09375 44.78125 26.191406 C 44.875 26.289062 44.945312 26.402344 44.992188 26.527344 C 45.042969 26.652344 45.066406 26.78125 45.0625 26.917969 C 45.0625 27.050781 45.03125 27.179688 44.980469 27.304688 C 44.925781 27.429688 44.851562 27.535156 44.753906 27.632812 C 44.65625 27.726562 44.546875 27.796875 44.421875 27.847656 C 44.296875 27.898438 44.167969 27.921875 44.03125 27.921875 Z M 44.03125 27.921875 " fill-opacity="1" fill-rule="nonzero"/><path fill="#fcffff" d="M 39.597656 25.054688 C 39.933594 25.054688 40.261719 24.988281 40.574219 24.859375 C 40.886719 24.730469 41.164062 24.546875 41.40625 24.308594 C 41.644531 24.070312 41.832031 23.792969 41.964844 23.480469 C 42.097656 23.171875 42.164062 22.84375 42.167969 22.503906 C 42.175781 22.167969 42.113281 21.839844 41.988281 21.523438 C 41.863281 21.210938 41.683594 20.929688 41.449219 20.683594 C 41.214844 20.441406 40.941406 20.25 40.632812 20.113281 C 40.324219 19.976562 40 19.902344 39.660156 19.894531 C 39.320312 19.894531 38.996094 19.960938 38.679688 20.089844 C 38.367188 20.21875 38.089844 20.402344 37.851562 20.640625 C 37.609375 20.878906 37.421875 21.15625 37.289062 21.464844 C 37.160156 21.777344 37.089844 22.105469 37.085938 22.441406 C 37.082031 22.78125 37.140625 23.109375 37.265625 23.421875 C 37.390625 23.738281 37.570312 24.019531 37.804688 24.261719 C 38.039062 24.507812 38.3125 24.699219 38.621094 24.835938 C 38.933594 24.972656 39.257812 25.046875 39.597656 25.054688 Z M 38.910156 21.738281 C 39.058594 21.59375 39.234375 21.503906 39.4375 21.46875 C 39.640625 21.429688 39.839844 21.453125 40.027344 21.53125 C 40.21875 21.613281 40.371094 21.738281 40.488281 21.910156 C 40.601562 22.082031 40.660156 22.269531 40.660156 22.476562 C 40.652344 22.761719 40.546875 23 40.34375 23.203125 C 40.144531 23.402344 39.902344 23.507812 39.621094 23.519531 C 39.410156 23.515625 39.222656 23.453125 39.050781 23.332031 C 38.878906 23.214844 38.753906 23.058594 38.675781 22.863281 C 38.597656 22.667969 38.582031 22.46875 38.625 22.265625 C 38.664062 22.058594 38.761719 21.882812 38.910156 21.738281 Z M 38.910156 21.738281 " fill-opacity="1" fill-rule="nonzero"/><path fill="#fcffff" d="M 51.519531 40.554688 C 52.703125 36.128906 52.113281 32.234375 50.851562 26.867188 C 49.597656 21.457031 46.046875 13.980469 39.015625 15.402344 C 35.636719 15.910156 31.613281 17.703125 28.382812 16.78125 C 26.535156 16.316406 24.675781 15.929688 22.84375 15.53125 C 12.375 13.246094 9.546875 27.355469 9.121094 35.839844 C 8.859375 41.519531 11.753906 46.222656 17.859375 42.929688 C 19.714844 41.886719 21.40625 40.632812 22.941406 39.160156 C 23.945312 38.167969 25.128906 37.46875 26.484375 37.070312 C 30.507812 36.058594 35.234375 36.179688 38.527344 39.324219 C 41.617188 42.4375 49.0625 47.386719 51.519531 40.554688 Z M 45.726562 42.234375 C 41.082031 40.839844 38.65625 35.894531 33.953125 35.292969 C 29.683594 34.621094 25.242188 34.863281 21.898438 38.03125 C 20.460938 39.414062 18.871094 40.59375 17.136719 41.574219 C 6.445312 47.054688 11.691406 25.273438 13.851562 21.890625 C 17.488281 14.863281 21.542969 16.789062 28.003906 18.273438 C 30.167969 18.917969 33.0625 18.433594 35.53125 17.746094 C 39.488281 16.667969 43.316406 15.8125 46.085938 19.726562 C 49.585938 23.449219 54.453125 44.851562 45.726562 42.234375 Z M 45.726562 42.234375 " fill-opacity="1" fill-rule="nonzero"/></svg>