<svg xmlns="http://www.w3.org/2000/svg" xmlns:xlink="http://www.w3.org/1999/xlink" width="82" zoomAndPan="magnify" viewBox="0 0 61.5 61.499996" height="82" preserveAspectRatio="xMidYMid meet" version="1.0"><defs><clipPath id="539c83c197"><path d="M 0 0 L 60.976562 0 L 60.976562 60.742188 L 0 60.742188 Z M 0 0 " clip-rule="nonzero"/></clipPath><clipPath id="4867b216c4"><path d="M 13.390625 0 L 47.472656 0 C 54.867188 0 60.863281 5.996094 60.863281 13.390625 L 60.863281 47.347656 C 60.863281 54.746094 54.867188 60.742188 47.472656 60.742188 L 13.390625 60.742188 C 5.996094 60.742188 0 54.746094 0 47.347656 L 0 13.390625 C 0 5.996094 5.996094 0 13.390625 0 Z M 13.390625 0 " clip-rule="nonzero"/></clipPath><clipPath id="6da49a4459"><path d="M 0 0 L 60.863281 0 L 60.863281 60.742188 L 0 60.742188 Z M 0 0 " clip-rule="nonzero"/></clipPath><clipPath id="717443006c"><path d="M 13.390625 0 L 47.472656 0 C 54.867188 0 60.863281 5.996094 60.863281 13.390625 L 60.863281 47.347656 C 60.863281 54.746094 54.867188 60.742188 47.472656 60.742188 L 13.390625 60.742188 C 5.996094 60.742188 0 54.746094 0 47.347656 L 0 13.390625 C 0 5.996094 5.996094 0 13.390625 0 Z M 13.390625 0 " clip-rule="nonzero"/></clipPath><radialGradient gradientTransform="matrix(1, 0, 0, 1, -0.000160919, -0.00000198387)" gradientUnits="userSpaceOnUse" r="85.98723" cx="0" id="dcdf8e8632" cy="0" fx="0" fy="0"><stop stop-opacity="1" stop-color="rgb(100%, 53.672791%, 1.332092%)" offset="0"/><stop stop-opacity="1" stop-color="rgb(100%, 53.587341%, 1.5625%)" offset="0.0078125"/><stop stop-opacity="1" stop-color="rgb(100%, 53.530884%, 1.715088%)" offset="0.0117188"/><stop stop-opacity="1" stop-color="rgb(100%, 53.4729%, 1.867676%)" offset="0.015625"/><stop stop-opacity="1" stop-color="rgb(100%, 53.416443%, 2.02179%)" offset="0.0195312"/><stop stop-opacity="1" stop-color="rgb(100%, 53.359985%, 2.174377%)" offset="0.0234375"/><stop stop-opacity="1" stop-color="rgb(100%, 53.303528%, 2.326965%)" offset="0.0273438"/><stop stop-opacity="1" stop-color="rgb(100%, 53.24707%, 2.481079%)" offset="0.03125"/><stop stop-opacity="1" stop-color="rgb(100%, 53.190613%, 2.633667%)" offset="0.0351562"/><stop stop-opacity="1" stop-color="rgb(100%, 53.134155%, 2.787781%)" offset="0.0390625"/><stop stop-opacity="1" stop-color="rgb(100%, 53.076172%, 2.940369%)" offset="0.0429688"/><stop stop-opacity="1" stop-color="rgb(100%, 53.019714%, 3.092957%)" offset="0.046875"/><stop stop-opacity="1" stop-color="rgb(100%, 52.963257%, 3.24707%)" offset="0.0507812"/><stop stop-opacity="1" stop-color="rgb(100%, 52.906799%, 3.399658%)" offset="0.0546875"/><stop stop-opacity="1" stop-color="rgb(100%, 52.850342%, 3.552246%)" offset="0.0585938"/><stop stop-opacity="1" stop-color="rgb(100%, 52.793884%, 3.70636%)" offset="0.0625"/><stop stop-opacity="1" stop-color="rgb(100%, 52.737427%, 3.858948%)" offset="0.0664062"/><stop stop-opacity="1" stop-color="rgb(100%, 52.679443%, 4.013062%)" offset="0.0703125"/><stop stop-opacity="1" stop-color="rgb(100%, 52.622986%, 4.165649%)" offset="0.0742188"/><stop stop-opacity="1" stop-color="rgb(100%, 52.566528%, 4.318237%)" offset="0.078125"/><stop stop-opacity="1" stop-color="rgb(100%, 52.510071%, 4.472351%)" offset="0.0820312"/><stop stop-opacity="1" stop-color="rgb(100%, 52.453613%, 4.624939%)" offset="0.0859375"/><stop stop-opacity="1" stop-color="rgb(100%, 52.397156%, 4.779053%)" offset="0.0898438"/><stop stop-opacity="1" stop-color="rgb(100%, 52.339172%, 4.931641%)" offset="0.09375"/><stop stop-opacity="1" stop-color="rgb(100%, 52.282715%, 5.084229%)" offset="0.0976562"/><stop stop-opacity="1" stop-color="rgb(100%, 52.226257%, 5.238342%)" offset="0.101562"/><stop stop-opacity="1" stop-color="rgb(100%, 52.1698%, 5.39093%)" offset="0.105469"/><stop stop-opacity="1" stop-color="rgb(100%, 52.113342%, 5.543518%)" offset="0.109375"/><stop stop-opacity="1" stop-color="rgb(100%, 52.056885%, 5.697632%)" offset="0.113281"/><stop stop-opacity="1" stop-color="rgb(100%, 52.000427%, 5.85022%)" offset="0.117188"/><stop stop-opacity="1" stop-color="rgb(100%, 51.942444%, 6.004333%)" offset="0.121094"/><stop stop-opacity="1" stop-color="rgb(100%, 51.885986%, 6.156921%)" offset="0.125"/><stop stop-opacity="1" stop-color="rgb(100%, 51.829529%, 6.309509%)" offset="0.128906"/><stop stop-opacity="1" stop-color="rgb(100%, 51.773071%, 6.463623%)" offset="0.132812"/><stop stop-opacity="1" stop-color="rgb(100%, 51.716614%, 6.616211%)" offset="0.136719"/><stop stop-opacity="1" stop-color="rgb(100%, 51.660156%, 6.768799%)" offset="0.140625"/><stop stop-opacity="1" stop-color="rgb(100%, 51.603699%, 6.922913%)" offset="0.144531"/><stop stop-opacity="1" stop-color="rgb(100%, 51.545715%, 7.0755%)" offset="0.148438"/><stop stop-opacity="1" stop-color="rgb(100%, 51.489258%, 7.229614%)" offset="0.152344"/><stop stop-opacity="1" stop-color="rgb(100%, 51.4328%, 7.382202%)" offset="0.15625"/><stop stop-opacity="1" stop-color="rgb(100%, 51.376343%, 7.53479%)" offset="0.160156"/><stop stop-opacity="1" stop-color="rgb(100%, 51.319885%, 7.688904%)" offset="0.164062"/><stop stop-opacity="1" stop-color="rgb(100%, 51.263428%, 7.841492%)" offset="0.167969"/><stop stop-opacity="1" stop-color="rgb(100%, 51.20697%, 7.99408%)" offset="0.171875"/><stop stop-opacity="1" stop-color="rgb(100%, 51.148987%, 8.148193%)" offset="0.175781"/><stop stop-opacity="1" stop-color="rgb(100%, 51.092529%, 8.300781%)" offset="0.179688"/><stop stop-opacity="1" stop-color="rgb(100%, 51.036072%, 8.454895%)" offset="0.183594"/><stop stop-opacity="1" stop-color="rgb(100%, 50.979614%, 8.607483%)" offset="0.1875"/><stop stop-opacity="1" stop-color="rgb(100%, 50.923157%, 8.760071%)" offset="0.191406"/><stop stop-opacity="1" stop-color="rgb(100%, 50.866699%, 8.914185%)" offset="0.195312"/><stop stop-opacity="1" stop-color="rgb(100%, 50.810242%, 9.066772%)" offset="0.199219"/><stop stop-opacity="1" stop-color="rgb(100%, 50.752258%, 9.21936%)" offset="0.203125"/><stop stop-opacity="1" stop-color="rgb(100%, 50.695801%, 9.373474%)" offset="0.207031"/><stop stop-opacity="1" stop-color="rgb(100%, 50.639343%, 9.526062%)" offset="0.210938"/><stop stop-opacity="1" stop-color="rgb(100%, 50.582886%, 9.680176%)" offset="0.214844"/><stop stop-opacity="1" stop-color="rgb(100%, 50.526428%, 9.832764%)" offset="0.21875"/><stop stop-opacity="1" stop-color="rgb(100%, 50.469971%, 9.985352%)" offset="0.222656"/><stop stop-opacity="1" stop-color="rgb(100%, 50.413513%, 10.139465%)" offset="0.226562"/><stop stop-opacity="1" stop-color="rgb(100%, 50.35553%, 10.292053%)" offset="0.230469"/><stop stop-opacity="1" stop-color="rgb(100%, 50.299072%, 10.444641%)" offset="0.234375"/><stop stop-opacity="1" stop-color="rgb(100%, 50.242615%, 10.598755%)" offset="0.238281"/><stop stop-opacity="1" stop-color="rgb(100%, 50.186157%, 10.751343%)" offset="0.242188"/><stop stop-opacity="1" stop-color="rgb(100%, 50.1297%, 10.905457%)" offset="0.246094"/><stop stop-opacity="1" stop-color="rgb(100%, 50.073242%, 11.058044%)" offset="0.25"/><stop stop-opacity="1" stop-color="rgb(100%, 49.987793%, 11.286926%)" offset="0.253906"/><stop stop-opacity="1" stop-color="rgb(100%, 49.874878%, 11.593628%)" offset="0.261719"/><stop stop-opacity="1" stop-color="rgb(100%, 49.761963%, 11.90033%)" offset="0.269531"/><stop stop-opacity="1" stop-color="rgb(100%, 49.647522%, 12.207031%)" offset="0.277344"/><stop stop-opacity="1" stop-color="rgb(100%, 49.534607%, 12.512207%)" offset="0.285156"/><stop stop-opacity="1" stop-color="rgb(100%, 49.421692%, 12.818909%)" offset="0.292969"/><stop stop-opacity="1" stop-color="rgb(100%, 49.307251%, 13.12561%)" offset="0.300781"/><stop stop-opacity="1" stop-color="rgb(100%, 49.194336%, 13.432312%)" offset="0.308594"/><stop stop-opacity="1" stop-color="rgb(100%, 49.081421%, 13.737488%)" offset="0.316406"/><stop stop-opacity="1" stop-color="rgb(100%, 48.968506%, 14.044189%)" offset="0.324219"/><stop stop-opacity="1" stop-color="rgb(100%, 48.854065%, 14.350891%)" offset="0.332031"/><stop stop-opacity="1" stop-color="rgb(100%, 48.74115%, 14.657593%)" offset="0.339844"/><stop stop-opacity="1" stop-color="rgb(100%, 48.628235%, 14.962769%)" offset="0.347656"/><stop stop-opacity="1" stop-color="rgb(100%, 48.513794%, 15.26947%)" offset="0.355469"/><stop stop-opacity="1" stop-color="rgb(100%, 48.400879%, 15.576172%)" offset="0.363281"/><stop stop-opacity="1" stop-color="rgb(100%, 48.287964%, 15.882874%)" offset="0.371094"/><stop stop-opacity="1" stop-color="rgb(100%, 48.175049%, 16.188049%)" offset="0.378906"/><stop stop-opacity="1" stop-color="rgb(100%, 48.060608%, 16.494751%)" offset="0.386719"/><stop stop-opacity="1" stop-color="rgb(100%, 47.947693%, 16.801453%)" offset="0.394531"/><stop stop-opacity="1" stop-color="rgb(100%, 47.834778%, 17.108154%)" offset="0.402344"/><stop stop-opacity="1" stop-color="rgb(100%, 47.720337%, 17.41333%)" offset="0.410156"/><stop stop-opacity="1" stop-color="rgb(100%, 47.607422%, 17.720032%)" offset="0.417969"/><stop stop-opacity="1" stop-color="rgb(100%, 47.494507%, 18.026733%)" offset="0.425781"/><stop stop-opacity="1" stop-color="rgb(100%, 47.381592%, 18.333435%)" offset="0.433594"/><stop stop-opacity="1" stop-color="rgb(100%, 47.267151%, 18.638611%)" offset="0.441406"/><stop stop-opacity="1" stop-color="rgb(100%, 47.154236%, 18.945312%)" offset="0.449219"/><stop stop-opacity="1" stop-color="rgb(100%, 47.041321%, 19.252014%)" offset="0.457031"/><stop stop-opacity="1" stop-color="rgb(100%, 46.92688%, 19.558716%)" offset="0.464844"/><stop stop-opacity="1" stop-color="rgb(100%, 46.813965%, 19.865417%)" offset="0.472656"/><stop stop-opacity="1" stop-color="rgb(100%, 46.70105%, 20.170593%)" offset="0.480469"/><stop stop-opacity="1" stop-color="rgb(100%, 46.588135%, 20.477295%)" offset="0.488281"/><stop stop-opacity="1" stop-color="rgb(100%, 46.473694%, 20.783997%)" offset="0.496094"/><stop stop-opacity="1" stop-color="rgb(100%, 46.388245%, 21.014404%)" offset="0.503906"/><stop stop-opacity="1" stop-color="rgb(100%, 46.331787%, 21.166992%)" offset="0.507812"/><stop stop-opacity="1" stop-color="rgb(100%, 46.27533%, 21.31958%)" offset="0.511719"/><stop stop-opacity="1" stop-color="rgb(100%, 46.218872%, 21.473694%)" offset="0.515625"/><stop stop-opacity="1" stop-color="rgb(100%, 46.162415%, 21.626282%)" offset="0.519531"/><stop stop-opacity="1" stop-color="rgb(100%, 46.104431%, 21.77887%)" offset="0.523438"/><stop stop-opacity="1" stop-color="rgb(100%, 46.047974%, 21.932983%)" offset="0.527344"/><stop stop-opacity="1" stop-color="rgb(100%, 45.991516%, 22.085571%)" offset="0.53125"/><stop stop-opacity="1" stop-color="rgb(100%, 45.935059%, 22.239685%)" offset="0.535156"/><stop stop-opacity="1" stop-color="rgb(100%, 45.878601%, 22.392273%)" offset="0.539062"/><stop stop-opacity="1" stop-color="rgb(100%, 45.822144%, 22.544861%)" offset="0.542969"/><stop stop-opacity="1" stop-color="rgb(100%, 45.765686%, 22.698975%)" offset="0.546875"/><stop stop-opacity="1" stop-color="rgb(100%, 45.707703%, 22.851562%)" offset="0.550781"/><stop stop-opacity="1" stop-color="rgb(100%, 45.651245%, 23.00415%)" offset="0.554688"/><stop stop-opacity="1" stop-color="rgb(100%, 45.594788%, 23.158264%)" offset="0.558594"/><stop stop-opacity="1" stop-color="rgb(100%, 45.53833%, 23.310852%)" offset="0.5625"/><stop stop-opacity="1" stop-color="rgb(100%, 45.481873%, 23.464966%)" offset="0.566406"/><stop stop-opacity="1" stop-color="rgb(100%, 45.425415%, 23.617554%)" offset="0.570312"/><stop stop-opacity="1" stop-color="rgb(100%, 45.368958%, 23.770142%)" offset="0.574219"/><stop stop-opacity="1" stop-color="rgb(100%, 45.310974%, 23.924255%)" offset="0.578125"/><stop stop-opacity="1" stop-color="rgb(100%, 45.254517%, 24.076843%)" offset="0.582031"/><stop stop-opacity="1" stop-color="rgb(100%, 45.198059%, 24.229431%)" offset="0.585938"/><stop stop-opacity="1" stop-color="rgb(100%, 45.141602%, 24.383545%)" offset="0.589844"/><stop stop-opacity="1" stop-color="rgb(100%, 45.085144%, 24.536133%)" offset="0.59375"/><stop stop-opacity="1" stop-color="rgb(100%, 45.028687%, 24.690247%)" offset="0.597656"/><stop stop-opacity="1" stop-color="rgb(100%, 44.972229%, 24.842834%)" offset="0.601562"/><stop stop-opacity="1" stop-color="rgb(100%, 44.914246%, 24.995422%)" offset="0.605469"/><stop stop-opacity="1" stop-color="rgb(100%, 44.857788%, 25.149536%)" offset="0.609375"/><stop stop-opacity="1" stop-color="rgb(100%, 44.801331%, 25.302124%)" offset="0.613281"/><stop stop-opacity="1" stop-color="rgb(100%, 44.744873%, 25.454712%)" offset="0.617188"/><stop stop-opacity="1" stop-color="rgb(100%, 44.688416%, 25.608826%)" offset="0.621094"/><stop stop-opacity="1" stop-color="rgb(100%, 44.631958%, 25.761414%)" offset="0.625"/><stop stop-opacity="1" stop-color="rgb(100%, 44.546509%, 25.991821%)" offset="0.628906"/><stop stop-opacity="1" stop-color="rgb(100%, 44.433594%, 26.296997%)" offset="0.636719"/><stop stop-opacity="1" stop-color="rgb(100%, 44.320679%, 26.603699%)" offset="0.644531"/><stop stop-opacity="1" stop-color="rgb(100%, 44.206238%, 26.9104%)" offset="0.652344"/><stop stop-opacity="1" stop-color="rgb(100%, 44.093323%, 27.217102%)" offset="0.660156"/><stop stop-opacity="1" stop-color="rgb(100%, 43.980408%, 27.522278%)" offset="0.667969"/><stop stop-opacity="1" stop-color="rgb(100%, 43.867493%, 27.828979%)" offset="0.675781"/><stop stop-opacity="1" stop-color="rgb(100%, 43.753052%, 28.135681%)" offset="0.683594"/><stop stop-opacity="1" stop-color="rgb(100%, 43.640137%, 28.442383%)" offset="0.691406"/><stop stop-opacity="1" stop-color="rgb(100%, 43.527222%, 28.747559%)" offset="0.699219"/><stop stop-opacity="1" stop-color="rgb(100%, 43.412781%, 29.05426%)" offset="0.707031"/><stop stop-opacity="1" stop-color="rgb(100%, 43.299866%, 29.360962%)" offset="0.714844"/><stop stop-opacity="1" stop-color="rgb(100%, 43.186951%, 29.667664%)" offset="0.722656"/><stop stop-opacity="1" stop-color="rgb(100%, 43.07251%, 29.972839%)" offset="0.730469"/><stop stop-opacity="1" stop-color="rgb(100%, 42.959595%, 30.279541%)" offset="0.738281"/><stop stop-opacity="1" stop-color="rgb(100%, 42.84668%, 30.586243%)" offset="0.746094"/><stop stop-opacity="1" stop-color="rgb(100%, 42.76123%, 30.81665%)" offset="0.753906"/><stop stop-opacity="1" stop-color="rgb(100%, 42.704773%, 30.969238%)" offset="0.757812"/><stop stop-opacity="1" stop-color="rgb(100%, 42.648315%, 31.121826%)" offset="0.761719"/><stop stop-opacity="1" stop-color="rgb(100%, 42.590332%, 31.27594%)" offset="0.765625"/><stop stop-opacity="1" stop-color="rgb(100%, 42.533875%, 31.428528%)" offset="0.769531"/><stop stop-opacity="1" stop-color="rgb(100%, 42.477417%, 31.582642%)" offset="0.773438"/><stop stop-opacity="1" stop-color="rgb(100%, 42.420959%, 31.735229%)" offset="0.777344"/><stop stop-opacity="1" stop-color="rgb(100%, 42.364502%, 31.887817%)" offset="0.78125"/><stop stop-opacity="1" stop-color="rgb(100%, 42.308044%, 32.041931%)" offset="0.785156"/><stop stop-opacity="1" stop-color="rgb(100%, 42.251587%, 32.194519%)" offset="0.789062"/><stop stop-opacity="1" stop-color="rgb(100%, 42.193604%, 32.347107%)" offset="0.792969"/><stop stop-opacity="1" stop-color="rgb(100%, 42.137146%, 32.501221%)" offset="0.796875"/><stop stop-opacity="1" stop-color="rgb(100%, 42.080688%, 32.653809%)" offset="0.800781"/><stop stop-opacity="1" stop-color="rgb(100%, 42.024231%, 32.807922%)" offset="0.804688"/><stop stop-opacity="1" stop-color="rgb(100%, 41.967773%, 32.96051%)" offset="0.808594"/><stop stop-opacity="1" stop-color="rgb(100%, 41.911316%, 33.113098%)" offset="0.8125"/><stop stop-opacity="1" stop-color="rgb(100%, 41.825867%, 33.343506%)" offset="0.816406"/><stop stop-opacity="1" stop-color="rgb(100%, 41.712952%, 33.648682%)" offset="0.824219"/><stop stop-opacity="1" stop-color="rgb(100%, 41.600037%, 33.955383%)" offset="0.832031"/><stop stop-opacity="1" stop-color="rgb(100%, 41.485596%, 34.262085%)" offset="0.839844"/><stop stop-opacity="1" stop-color="rgb(100%, 41.372681%, 34.568787%)" offset="0.847656"/><stop stop-opacity="1" stop-color="rgb(100%, 41.259766%, 34.875488%)" offset="0.855469"/><stop stop-opacity="1" stop-color="rgb(100%, 41.146851%, 35.180664%)" offset="0.863281"/><stop stop-opacity="1" stop-color="rgb(100%, 41.03241%, 35.487366%)" offset="0.871094"/><stop stop-opacity="1" stop-color="rgb(100%, 40.94696%, 35.717773%)" offset="0.878906"/><stop stop-opacity="1" stop-color="rgb(100%, 40.890503%, 35.870361%)" offset="0.882812"/><stop stop-opacity="1" stop-color="rgb(100%, 40.834045%, 36.024475%)" offset="0.886719"/><stop stop-opacity="1" stop-color="rgb(100%, 40.777588%, 36.177063%)" offset="0.890625"/><stop stop-opacity="1" stop-color="rgb(100%, 40.72113%, 36.329651%)" offset="0.894531"/><stop stop-opacity="1" stop-color="rgb(100%, 40.664673%, 36.483765%)" offset="0.898438"/><stop stop-opacity="1" stop-color="rgb(100%, 40.606689%, 36.636353%)" offset="0.902344"/><stop stop-opacity="1" stop-color="rgb(100%, 40.550232%, 36.78894%)" offset="0.90625"/><stop stop-opacity="1" stop-color="rgb(100%, 40.466309%, 37.019348%)" offset="0.910156"/><stop stop-opacity="1" stop-color="rgb(100%, 40.351868%, 37.32605%)" offset="0.917969"/><stop stop-opacity="1" stop-color="rgb(100%, 40.238953%, 37.631226%)" offset="0.925781"/><stop stop-opacity="1" stop-color="rgb(100%, 40.126038%, 37.937927%)" offset="0.933594"/><stop stop-opacity="1" stop-color="rgb(100%, 40.040588%, 38.168335%)" offset="0.941406"/><stop stop-opacity="1" stop-color="rgb(100%, 39.984131%, 38.320923%)" offset="0.945312"/><stop stop-opacity="1" stop-color="rgb(100%, 39.927673%, 38.475037%)" offset="0.949219"/><stop stop-opacity="1" stop-color="rgb(100%, 39.86969%, 38.627625%)" offset="0.953125"/><stop stop-opacity="1" stop-color="rgb(100%, 39.785767%, 38.856506%)" offset="0.957031"/><stop stop-opacity="1" stop-color="rgb(100%, 39.672852%, 39.163208%)" offset="0.964844"/><stop stop-opacity="1" stop-color="rgb(100%, 39.587402%, 39.393616%)" offset="0.972656"/><stop stop-opacity="1" stop-color="rgb(100%, 39.530945%, 39.546204%)" offset="0.976562"/><stop stop-opacity="1" stop-color="rgb(100%, 39.445496%, 39.776611%)" offset="0.980469"/><stop stop-opacity="1" stop-color="rgb(100%, 39.360046%, 40.005493%)" offset="0.988281"/><stop stop-opacity="1" stop-color="rgb(100%, 39.276123%, 40.235901%)" offset="0.992188"/><stop stop-opacity="1" stop-color="rgb(100%, 39.219666%, 40.388489%)" offset="1"/></radialGradient><clipPath id="bf7aab21aa"><rect x="0" width="61" y="0" height="61"/></clipPath><clipPath id="c69e48a401"><path d="M 7.75 18.085938 L 53.132812 18.085938 L 53.132812 42.636719 L 7.75 42.636719 Z M 7.75 18.085938 " clip-rule="nonzero"/></clipPath></defs><g clip-path="url(#539c83c197)"><g clip-path="url(#4867b216c4)"><g transform="matrix(1, 0, 0, 1, -0, 0.000000000000013145)"><g clip-path="url(#bf7aab21aa)"><g clip-path="url(#6da49a4459)"><g clip-path="url(#717443006c)"><path fill="url(#dcdf8e8632)" d="M 0 0 L 0 60.742188 L 60.863281 60.742188 L 60.863281 0 Z M 0 0 " fill-rule="nonzero"/></g></g></g></g></g></g><g clip-path="url(#c69e48a401)"><path fill="#fcffff" d="M 41.949219 41.128906 C 41.839844 39.421875 41.347656 37.757812 40.511719 36.269531 C 41.59375 35.5625 42.847656 35.1875 44.160156 35.1875 L 44.597656 35.1875 C 44.597656 35.1875 44.601562 35.1875 44.605469 35.1875 C 44.609375 35.1875 44.609375 35.1875 44.613281 35.1875 L 45.050781 35.1875 C 48.488281 35.1875 51.324219 37.792969 51.695312 41.128906 Z M 20.59375 41.128906 C 20.703125 39.667969 21.132812 38.246094 21.855469 36.972656 C 23.621094 33.855469 26.9375 31.917969 30.515625 31.914062 C 30.519531 31.914062 30.523438 31.914062 30.527344 31.914062 C 30.53125 31.914062 30.535156 31.914062 30.539062 31.914062 C 33.195312 31.917969 35.691406 32.953125 37.570312 34.832031 C 38.214844 35.476562 38.769531 36.207031 39.214844 37 C 39.925781 38.265625 40.351562 39.679688 40.460938 41.128906 Z M 15.945312 35.1875 L 16.382812 35.1875 C 16.386719 35.1875 16.386719 35.1875 16.390625 35.1875 C 16.394531 35.1875 16.398438 35.1875 16.398438 35.1875 L 16.839844 35.1875 C 18.167969 35.1875 19.433594 35.570312 20.527344 36.300781 C 19.703125 37.777344 19.214844 39.433594 19.105469 41.128906 L 9.300781 41.128906 C 9.671875 37.792969 12.507812 35.1875 15.945312 35.1875 Z M 16.390625 26.785156 C 18.296875 26.785156 19.847656 28.335938 19.847656 30.246094 C 19.847656 32.148438 18.300781 33.695312 16.398438 33.703125 L 16.382812 33.703125 C 14.480469 33.695312 12.933594 32.148438 12.933594 30.246094 C 12.933594 28.335938 14.484375 26.785156 16.390625 26.785156 Z M 25.113281 25.015625 C 25.113281 22.027344 27.542969 19.601562 30.527344 19.601562 C 33.511719 19.601562 35.941406 22.027344 35.941406 25.015625 C 35.941406 27.996094 33.515625 30.421875 30.535156 30.425781 C 30.53125 30.425781 30.53125 30.425781 30.527344 30.425781 C 30.523438 30.425781 30.523438 30.425781 30.519531 30.425781 C 27.539062 30.421875 25.113281 27.996094 25.113281 25.015625 Z M 44.605469 26.785156 C 46.511719 26.785156 48.0625 28.335938 48.0625 30.246094 C 48.0625 32.148438 46.515625 33.695312 44.613281 33.703125 L 44.597656 33.703125 C 42.695312 33.695312 41.148438 32.148438 41.148438 30.246094 C 41.148438 28.335938 42.699219 26.785156 44.605469 26.785156 Z M 47.660156 34.128906 C 48.808594 33.222656 49.550781 31.816406 49.550781 30.246094 C 49.550781 27.519531 47.332031 25.300781 44.605469 25.300781 C 41.878906 25.300781 39.660156 27.519531 39.660156 30.246094 C 39.660156 31.816406 40.398438 33.21875 41.546875 34.125 C 40.898438 34.34375 40.28125 34.644531 39.699219 35.027344 C 39.371094 34.585938 39.011719 34.167969 38.621094 33.78125 C 37.308594 32.46875 35.734375 31.511719 34.015625 30.964844 C 36.054688 29.765625 37.425781 27.546875 37.425781 25.015625 C 37.425781 21.207031 34.332031 18.113281 30.527344 18.113281 C 26.722656 18.113281 23.625 21.207031 23.625 25.015625 C 23.625 27.550781 25.003906 29.773438 27.050781 30.972656 C 24.785156 31.695312 22.777344 33.117188 21.335938 35.050781 C 20.746094 34.660156 20.113281 34.347656 19.449219 34.125 C 20.597656 33.21875 21.335938 31.816406 21.335938 30.246094 C 21.335938 27.519531 19.117188 25.300781 16.390625 25.300781 C 13.664062 25.300781 11.445312 27.519531 11.445312 30.246094 C 11.445312 31.816406 12.1875 33.222656 13.335938 34.128906 C 10.105469 35.21875 7.769531 38.277344 7.769531 41.875 C 7.769531 42.285156 8.105469 42.617188 8.515625 42.617188 L 19.738281 42.617188 C 19.753906 42.617188 19.769531 42.617188 19.785156 42.617188 C 19.796875 42.617188 19.808594 42.617188 19.824219 42.617188 L 41.230469 42.617188 C 41.234375 42.617188 41.238281 42.617188 41.242188 42.617188 C 41.246094 42.617188 41.25 42.617188 41.257812 42.617188 L 52.480469 42.617188 C 52.890625 42.617188 53.226562 42.285156 53.226562 41.875 C 53.226562 38.277344 50.890625 35.21875 47.660156 34.128906 " fill-opacity="1" fill-rule="nonzero"/><path fill="#fcffff" d="M 30.535156 30.449219 L 30.53125 30.449219 L 30.527344 30.425781 L 30.527344 30.40625 L 30.53125 30.40625 C 33.503906 30.402344 35.917969 27.984375 35.917969 25.015625 C 35.917969 22.039062 33.5 19.621094 30.527344 19.621094 C 27.554688 19.621094 25.132812 22.039062 25.132812 25.015625 C 25.132812 27.984375 27.550781 30.402344 30.519531 30.40625 L 30.527344 30.425781 L 30.523438 30.449219 C 27.527344 30.445312 25.09375 28.007812 25.09375 25.015625 C 25.09375 22.015625 27.53125 19.578125 30.527344 19.578125 C 33.523438 19.578125 35.960938 22.015625 35.960938 25.015625 C 35.960938 28.003906 33.527344 30.441406 30.535156 30.449219 Z M 16.390625 26.808594 C 14.496094 26.808594 12.953125 28.347656 12.953125 30.246094 C 12.953125 32.132812 14.492188 33.675781 16.382812 33.679688 L 16.398438 33.679688 C 18.289062 33.675781 19.828125 32.132812 19.828125 30.246094 C 19.828125 28.347656 18.285156 26.808594 16.390625 26.808594 Z M 16.398438 33.722656 L 16.382812 33.722656 C 14.46875 33.71875 12.914062 32.15625 12.914062 30.246094 C 12.914062 28.328125 14.472656 26.765625 16.390625 26.765625 C 18.308594 26.765625 19.871094 28.328125 19.871094 30.246094 C 19.871094 32.15625 18.3125 33.71875 16.398438 33.722656 Z M 44.605469 26.808594 C 42.710938 26.808594 41.167969 28.347656 41.167969 30.246094 C 41.167969 32.132812 42.707031 33.675781 44.597656 33.679688 L 44.613281 33.679688 C 46.503906 33.675781 48.042969 32.132812 48.042969 30.246094 C 48.042969 28.347656 46.5 26.808594 44.605469 26.808594 Z M 44.613281 33.722656 L 44.597656 33.722656 C 42.683594 33.71875 41.128906 32.15625 41.128906 30.246094 C 41.128906 28.328125 42.6875 26.765625 44.605469 26.765625 C 46.523438 26.765625 48.082031 28.328125 48.082031 30.246094 C 48.082031 32.15625 46.527344 33.71875 44.613281 33.722656 Z M 20.617188 41.109375 L 40.4375 41.109375 C 40.328125 39.671875 39.898438 38.253906 39.195312 37.011719 C 38.75 36.21875 38.199219 35.492188 37.554688 34.847656 C 35.679688 32.972656 33.1875 31.9375 30.539062 31.933594 L 30.515625 31.933594 C 26.945312 31.9375 23.632812 33.871094 21.871094 36.984375 C 21.164062 38.234375 20.730469 39.664062 20.617188 41.109375 Z M 40.480469 41.152344 L 20.574219 41.152344 L 20.574219 41.128906 C 20.683594 39.667969 21.121094 38.226562 21.835938 36.960938 C 23.605469 33.839844 26.929688 31.898438 30.515625 31.894531 L 30.539062 31.894531 C 33.199219 31.894531 35.703125 32.933594 37.585938 34.816406 C 38.230469 35.464844 38.785156 36.195312 39.234375 36.988281 C 39.941406 38.246094 40.371094 39.679688 40.480469 41.128906 Z M 9.324219 41.109375 L 19.085938 41.109375 C 19.199219 39.429688 19.6875 37.769531 20.5 36.304688 C 19.414062 35.589844 18.148438 35.210938 16.839844 35.210938 L 15.945312 35.210938 C 12.550781 35.210938 9.707031 37.746094 9.324219 41.109375 Z M 19.125 41.152344 L 9.277344 41.152344 L 9.277344 41.128906 C 9.460938 39.5 10.234375 37.996094 11.457031 36.890625 C 12.691406 35.78125 14.285156 35.167969 15.945312 35.167969 L 16.839844 35.167969 C 18.164062 35.167969 19.441406 35.554688 20.539062 36.28125 L 20.554688 36.292969 L 20.546875 36.308594 C 19.726562 37.777344 19.234375 39.445312 19.125 41.132812 Z M 41.96875 41.109375 L 51.675781 41.109375 C 51.289062 37.746094 48.445312 35.210938 45.050781 35.210938 L 44.160156 35.210938 C 42.867188 35.210938 41.613281 35.578125 40.539062 36.277344 C 41.363281 37.746094 41.855469 39.417969 41.96875 41.109375 Z M 51.71875 41.152344 L 41.929688 41.152344 L 41.929688 41.132812 C 41.820312 39.433594 41.320312 37.753906 40.492188 36.28125 L 40.484375 36.265625 L 40.5 36.253906 C 41.585938 35.542969 42.851562 35.167969 44.160156 35.167969 L 45.050781 35.167969 C 46.710938 35.167969 48.304688 35.78125 49.539062 36.890625 C 50.761719 37.996094 51.535156 39.5 51.71875 41.128906 Z M 41.242188 42.597656 C 41.246094 42.597656 41.246094 42.597656 41.25 42.597656 C 41.253906 42.597656 41.253906 42.597656 41.257812 42.597656 L 52.480469 42.597656 C 52.878906 42.597656 53.203125 42.273438 53.203125 41.875 C 53.203125 38.375 50.972656 35.269531 47.652344 34.148438 L 47.617188 34.136719 L 47.648438 34.113281 C 48.84375 33.167969 49.527344 31.757812 49.527344 30.246094 C 49.527344 27.527344 47.320312 25.320312 44.605469 25.320312 C 41.890625 25.320312 39.679688 27.527344 39.679688 30.246094 C 39.679688 31.757812 40.367188 33.167969 41.5625 34.109375 L 41.589844 34.132812 L 41.554688 34.144531 C 40.910156 34.363281 40.289062 34.664062 39.710938 35.042969 L 39.695312 35.054688 L 39.683594 35.039062 C 39.351562 34.597656 38.992188 34.179688 38.605469 33.792969 C 37.316406 32.503906 35.726562 31.53125 34.007812 30.984375 L 33.964844 30.972656 L 34.003906 30.949219 C 36.101562 29.714844 37.40625 27.441406 37.40625 25.015625 C 37.40625 21.21875 34.320312 18.132812 30.527344 18.132812 C 26.734375 18.132812 23.648438 21.21875 23.648438 25.015625 C 23.648438 27.445312 24.953125 29.71875 27.058594 30.953125 L 27.097656 30.976562 L 27.054688 30.992188 C 24.761719 31.726562 22.789062 33.132812 21.351562 35.0625 L 21.339844 35.078125 L 21.324219 35.070312 C 20.734375 34.679688 20.101562 34.367188 19.441406 34.144531 L 19.40625 34.132812 L 19.4375 34.109375 C 20.628906 33.167969 21.316406 31.757812 21.316406 30.246094 C 21.316406 27.527344 19.105469 25.320312 16.390625 25.320312 C 13.675781 25.320312 11.46875 27.527344 11.46875 30.246094 C 11.46875 31.757812 12.152344 33.167969 13.347656 34.113281 L 13.378906 34.136719 L 13.34375 34.148438 C 10.023438 35.269531 7.792969 38.375 7.792969 41.875 C 7.792969 42.273438 8.117188 42.597656 8.515625 42.597656 L 19.738281 42.597656 C 19.75 42.597656 19.761719 42.597656 19.769531 42.59375 L 19.796875 42.59375 C 19.804688 42.597656 19.816406 42.597656 19.824219 42.597656 Z M 52.480469 42.636719 L 41.257812 42.636719 C 41.253906 42.636719 41.25 42.636719 41.246094 42.636719 L 41.242188 42.636719 C 41.234375 42.636719 41.234375 42.636719 41.230469 42.636719 L 19.824219 42.636719 C 19.8125 42.636719 19.804688 42.636719 19.796875 42.636719 L 19.773438 42.636719 C 19.761719 42.636719 19.75 42.636719 19.738281 42.636719 L 8.515625 42.636719 C 8.09375 42.636719 7.75 42.296875 7.75 41.875 C 7.75 38.367188 9.976562 35.257812 13.292969 34.121094 C 12.105469 33.171875 11.425781 31.757812 11.425781 30.246094 C 11.425781 27.507812 13.652344 25.277344 16.390625 25.277344 C 19.128906 25.277344 21.355469 27.507812 21.355469 30.246094 C 21.355469 31.757812 20.675781 33.167969 19.492188 34.117188 C 20.136719 34.339844 20.753906 34.640625 21.332031 35.023438 C 22.761719 33.105469 24.722656 31.703125 27 30.964844 C 25.992188 30.367188 25.144531 29.515625 24.554688 28.503906 C 23.933594 27.449219 23.605469 26.242188 23.605469 25.015625 C 23.605469 21.199219 26.710938 18.09375 30.527344 18.09375 C 34.34375 18.09375 37.449219 21.199219 37.449219 25.015625 C 37.449219 26.238281 37.121094 27.445312 36.503906 28.5 C 35.914062 29.511719 35.070312 30.359375 34.0625 30.960938 C 35.773438 31.511719 37.351562 32.480469 38.636719 33.765625 C 39.015625 34.144531 39.375 34.558594 39.703125 34.996094 C 40.269531 34.628906 40.875 34.332031 41.503906 34.117188 C 40.320312 33.167969 39.640625 31.757812 39.640625 30.246094 C 39.640625 27.507812 41.867188 25.277344 44.605469 25.277344 C 47.34375 25.277344 49.570312 27.507812 49.570312 30.246094 C 49.570312 31.757812 48.890625 33.171875 47.703125 34.121094 C 51.019531 35.257812 53.246094 38.367188 53.246094 41.875 C 53.246094 42.296875 52.902344 42.636719 52.480469 42.636719 " fill-opacity="1" fill-rule="nonzero"/></g></svg>