<svg xmlns="http://www.w3.org/2000/svg" xmlns:xlink="http://www.w3.org/1999/xlink" width="82" zoomAndPan="magnify" viewBox="0 0 61.5 61.499996" height="82" preserveAspectRatio="xMidYMid meet" version="1.0"><defs><clipPath id="37cd908d72"><path d="M 0 0 L 60.976562 0 L 60.976562 60.742188 L 0 60.742188 Z M 0 0 " clip-rule="nonzero"/></clipPath><clipPath id="880e9b67aa"><path d="M 13.390625 0 L 47.472656 0 C 54.867188 0 60.863281 5.996094 60.863281 13.390625 L 60.863281 47.347656 C 60.863281 54.746094 54.867188 60.742188 47.472656 60.742188 L 13.390625 60.742188 C 5.996094 60.742188 0 54.746094 0 47.347656 L 0 13.390625 C 0 5.996094 5.996094 0 13.390625 0 Z M 13.390625 0 " clip-rule="nonzero"/></clipPath><clipPath id="10eb645ae8"><path d="M 0 0 L 60.863281 0 L 60.863281 60.742188 L 0 60.742188 Z M 0 0 " clip-rule="nonzero"/></clipPath><clipPath id="f6bbeb7c69"><path d="M 13.390625 0 L 47.472656 0 C 54.867188 0 60.863281 5.996094 60.863281 13.390625 L 60.863281 47.347656 C 60.863281 54.746094 54.867188 60.742188 47.472656 60.742188 L 13.390625 60.742188 C 5.996094 60.742188 0 54.746094 0 47.347656 L 0 13.390625 C 0 5.996094 5.996094 0 13.390625 0 Z M 13.390625 0 " clip-rule="nonzero"/></clipPath><radialGradient gradientTransform="matrix(1, 0, 0, 1, -0.000160919, -0.00000198387)" gradientUnits="userSpaceOnUse" r="85.98723" cx="0" id="85f19a641d" cy="0" fx="0" fy="0"><stop stop-opacity="1" stop-color="rgb(2.311707%, 87.380981%, 44.90509%)" offset="0"/><stop stop-opacity="1" stop-color="rgb(2.243042%, 87.254333%, 45.271301%)" offset="0.03125"/><stop stop-opacity="1" stop-color="rgb(2.178955%, 87.136841%, 45.614624%)" offset="0.0585938"/><stop stop-opacity="1" stop-color="rgb(2.114868%, 87.019348%, 45.957947%)" offset="0.0859375"/><stop stop-opacity="1" stop-color="rgb(2.050781%, 86.901855%, 46.30127%)" offset="0.113281"/><stop stop-opacity="1" stop-color="rgb(1.991272%, 86.791992%, 46.618652%)" offset="0.140625"/><stop stop-opacity="1" stop-color="rgb(1.93634%, 86.691284%, 46.913147%)" offset="0.164062"/><stop stop-opacity="1" stop-color="rgb(1.881409%, 86.590576%, 47.207642%)" offset="0.1875"/><stop stop-opacity="1" stop-color="rgb(1.826477%, 86.489868%, 47.50061%)" offset="0.210938"/><stop stop-opacity="1" stop-color="rgb(1.771545%, 86.38916%, 47.795105%)" offset="0.234375"/><stop stop-opacity="1" stop-color="rgb(1.719666%, 86.296082%, 48.06366%)" offset="0.257812"/><stop stop-opacity="1" stop-color="rgb(1.673889%, 86.210632%, 48.309326%)" offset="0.277344"/><stop stop-opacity="1" stop-color="rgb(1.628113%, 86.126709%, 48.553467%)" offset="0.296875"/><stop stop-opacity="1" stop-color="rgb(1.582336%, 86.042786%, 48.799133%)" offset="0.316406"/><stop stop-opacity="1" stop-color="rgb(1.53656%, 85.958862%, 49.043274%)" offset="0.335938"/><stop stop-opacity="1" stop-color="rgb(1.490784%, 85.874939%, 49.28894%)" offset="0.355469"/><stop stop-opacity="1" stop-color="rgb(1.445007%, 85.791016%, 49.533081%)" offset="0.375"/><stop stop-opacity="1" stop-color="rgb(1.403809%, 85.714722%, 49.754333%)" offset="0.394531"/><stop stop-opacity="1" stop-color="rgb(1.367188%, 85.647583%, 49.949646%)" offset="0.410156"/><stop stop-opacity="1" stop-color="rgb(1.330566%, 85.580444%, 50.146484%)" offset="0.425781"/><stop stop-opacity="1" stop-color="rgb(1.293945%, 85.513306%, 50.341797%)" offset="0.441406"/><stop stop-opacity="1" stop-color="rgb(1.239014%, 85.412598%, 50.636292%)" offset="0.457031"/><stop stop-opacity="1" stop-color="rgb(1.184082%, 85.310364%, 50.92926%)" offset="0.488281"/><stop stop-opacity="1" stop-color="rgb(1.132202%, 85.217285%, 51.199341%)" offset="0.503906"/><stop stop-opacity="1" stop-color="rgb(1.068115%, 85.099792%, 51.542664%)" offset="0.53125"/><stop stop-opacity="1" stop-color="rgb(1.004028%, 84.9823%, 51.88446%)" offset="0.558594"/><stop stop-opacity="1" stop-color="rgb(0.944519%, 84.872437%, 52.203369%)" offset="0.585938"/><stop stop-opacity="1" stop-color="rgb(0.889587%, 84.771729%, 52.497864%)" offset="0.609375"/><stop stop-opacity="1" stop-color="rgb(0.839233%, 84.67865%, 52.766418%)" offset="0.632812"/><stop stop-opacity="1" stop-color="rgb(0.793457%, 84.594727%, 53.012085%)" offset="0.652344"/><stop stop-opacity="1" stop-color="rgb(0.747681%, 84.510803%, 53.256226%)" offset="0.671875"/><stop stop-opacity="1" stop-color="rgb(0.706482%, 84.436035%, 53.477478%)" offset="0.691406"/><stop stop-opacity="1" stop-color="rgb(0.669861%, 84.368896%, 53.672791%)" offset="0.707031"/><stop stop-opacity="1" stop-color="rgb(0.614929%, 84.266663%, 53.967285%)" offset="0.722656"/><stop stop-opacity="1" stop-color="rgb(0.544739%, 84.140015%, 54.333496%)" offset="0.753906"/><stop stop-opacity="1" stop-color="rgb(0.480652%, 84.022522%, 54.676819%)" offset="0.78125"/><stop stop-opacity="1" stop-color="rgb(0.421143%, 83.914185%, 54.995728%)" offset="0.808594"/><stop stop-opacity="1" stop-color="rgb(0.370789%, 83.821106%, 55.264282%)" offset="0.832031"/><stop stop-opacity="1" stop-color="rgb(0.32959%, 83.744812%, 55.485535%)" offset="0.851562"/><stop stop-opacity="1" stop-color="rgb(0.292969%, 83.677673%, 55.680847%)" offset="0.867188"/><stop stop-opacity="1" stop-color="rgb(0.242615%, 83.584595%, 55.950928%)" offset="0.882812"/><stop stop-opacity="1" stop-color="rgb(0.187683%, 83.483887%, 56.245422%)" offset="0.910156"/><stop stop-opacity="1" stop-color="rgb(0.146484%, 83.409119%, 56.465149%)" offset="0.929688"/><stop stop-opacity="1" stop-color="rgb(0.0961304%, 83.31604%, 56.733704%)" offset="0.945312"/><stop stop-opacity="1" stop-color="rgb(0.0320435%, 83.197021%, 57.077026%)" offset="0.972656"/><stop stop-opacity="1" stop-color="rgb(0%, 83.139038%, 57.249451%)" offset="1"/></radialGradient><clipPath id="1dab09571d"><rect x="0" width="61" y="0" height="61"/></clipPath><clipPath id="34414de911"><path d="M 10.890625 13 L 50.320312 13 L 50.320312 48 L 10.890625 48 Z M 10.890625 13 " clip-rule="nonzero"/></clipPath></defs><g clip-path="url(#37cd908d72)"><g clip-path="url(#880e9b67aa)"><g transform="matrix(1, 0, 0, 1, -0, 0.000000000000013145)"><g clip-path="url(#1dab09571d)"><g clip-path="url(#10eb645ae8)"><g clip-path="url(#f6bbeb7c69)"><path fill="url(#85f19a641d)" d="M 0 0 L 0 60.742188 L 60.863281 60.742188 L 60.863281 0 Z M 0 0 " fill-rule="nonzero"/></g></g></g></g></g></g><g clip-path="url(#34414de911)"><path fill="#fcffff" d="M 30.5 47.441406 C 30.222656 47.441406 29.957031 47.3125 29.785156 47.097656 C 27.710938 44.5 24.257812 42.101562 13.144531 42.101562 C 11.859375 42.101562 10.890625 41.0625 10.890625 39.6875 L 10.890625 15.816406 C 10.890625 14.570312 11.898438 13.5625 13.140625 13.5625 C 22.683594 13.605469 28.179688 15.589844 30.5 19.929688 C 32.820312 15.589844 38.316406 13.605469 47.851562 13.5625 C 49.101562 13.5625 50.109375 14.570312 50.109375 15.808594 L 50.109375 39.847656 C 50.109375 41.089844 49.101562 42.101562 47.855469 42.101562 C 36.746094 42.101562 33.292969 44.5 31.21875 47.097656 C 31.042969 47.3125 30.78125 47.441406 30.5 47.441406 Z M 13.140625 15.398438 C 12.914062 15.398438 12.730469 15.582031 12.730469 15.808594 L 12.730469 39.6875 C 12.730469 39.820312 12.757812 40.261719 13.144531 40.261719 C 22.074219 40.261719 27.226562 41.683594 30.5 45.125 C 33.777344 41.683594 38.929688 40.261719 47.855469 40.261719 C 48.085938 40.261719 48.273438 40.078125 48.273438 39.847656 L 48.273438 15.816406 C 48.273438 15.582031 48.089844 15.398438 47.863281 15.398438 C 37.742188 15.445312 32.664062 17.703125 31.390625 22.714844 C 31.289062 23.125 30.921875 23.410156 30.5 23.410156 C 30.082031 23.410156 29.714844 23.125 29.609375 22.714844 C 28.339844 17.703125 23.261719 15.445312 13.140625 15.398438 Z M 13.140625 15.398438 " fill-opacity="1" fill-rule="evenodd"/></g><path fill="#fcffff" d="M 30.5 47.441406 C 29.992188 47.441406 29.582031 47.03125 29.582031 46.523438 L 29.582031 28.367188 C 29.582031 27.859375 29.992188 27.449219 30.5 27.449219 C 31.007812 27.449219 31.421875 27.859375 31.421875 28.367188 L 31.421875 46.523438 C 31.421875 47.03125 31.007812 47.441406 30.5 47.441406 Z M 30.5 47.441406 " fill-opacity="1" fill-rule="evenodd"/></svg>