<svg xmlns="http://www.w3.org/2000/svg" xmlns:xlink="http://www.w3.org/1999/xlink" width="82" zoomAndPan="magnify" viewBox="0 0 61.5 61.499996" height="82" preserveAspectRatio="xMidYMid meet" version="1.0"><defs><clipPath id="e755c571a4"><path d="M 0 0 L 60.976562 0 L 60.976562 60.742188 L 0 60.742188 Z M 0 0 " clip-rule="nonzero"/></clipPath><clipPath id="16797b7e4b"><path d="M 13.390625 0 L 47.472656 0 C 54.867188 0 60.863281 5.996094 60.863281 13.390625 L 60.863281 47.347656 C 60.863281 54.746094 54.867188 60.742188 47.472656 60.742188 L 13.390625 60.742188 C 5.996094 60.742188 0 54.746094 0 47.347656 L 0 13.390625 C 0 5.996094 5.996094 0 13.390625 0 Z M 13.390625 0 " clip-rule="nonzero"/></clipPath><clipPath id="71f3254d52"><path d="M 0 0 L 60.863281 0 L 60.863281 60.742188 L 0 60.742188 Z M 0 0 " clip-rule="nonzero"/></clipPath><clipPath id="104023d11d"><path d="M 13.390625 0 L 47.472656 0 C 54.867188 0 60.863281 5.996094 60.863281 13.390625 L 60.863281 47.347656 C 60.863281 54.746094 54.867188 60.742188 47.472656 60.742188 L 13.390625 60.742188 C 5.996094 60.742188 0 54.746094 0 47.347656 L 0 13.390625 C 0 5.996094 5.996094 0 13.390625 0 Z M 13.390625 0 " clip-rule="nonzero"/></clipPath><radialGradient gradientTransform="matrix(1, 0, 0, 1, -0.000160919, -0.00000198387)" gradientUnits="userSpaceOnUse" r="85.98723" cx="0" id="cdda5eea59" cy="0" fx="0" fy="0"><stop stop-opacity="1" stop-color="rgb(98.442078%, 39.216614%, 71.19751%)" offset="0"/><stop stop-opacity="1" stop-color="rgb(98.46344%, 39.21051%, 70.896912%)" offset="0.015625"/><stop stop-opacity="1" stop-color="rgb(98.48175%, 39.205933%, 70.639038%)" offset="0.0273438"/><stop stop-opacity="1" stop-color="rgb(98.500061%, 39.199829%, 70.38269%)" offset="0.0390625"/><stop stop-opacity="1" stop-color="rgb(98.518372%, 39.195251%, 70.124817%)" offset="0.0507812"/><stop stop-opacity="1" stop-color="rgb(98.536682%, 39.190674%, 69.866943%)" offset="0.0625"/><stop stop-opacity="1" stop-color="rgb(98.554993%, 39.186096%, 69.610596%)" offset="0.0742188"/><stop stop-opacity="1" stop-color="rgb(98.573303%, 39.181519%, 69.352722%)" offset="0.0859375"/><stop stop-opacity="1" stop-color="rgb(98.591614%, 39.176941%, 69.094849%)" offset="0.0976562"/><stop stop-opacity="1" stop-color="rgb(98.609924%, 39.172363%, 68.838501%)" offset="0.109375"/><stop stop-opacity="1" stop-color="rgb(98.628235%, 39.167786%, 68.580627%)" offset="0.121094"/><stop stop-opacity="1" stop-color="rgb(98.646545%, 39.163208%, 68.322754%)" offset="0.132812"/><stop stop-opacity="1" stop-color="rgb(98.664856%, 39.15863%, 68.066406%)" offset="0.144531"/><stop stop-opacity="1" stop-color="rgb(98.683167%, 39.154053%, 67.808533%)" offset="0.15625"/><stop stop-opacity="1" stop-color="rgb(98.701477%, 39.149475%, 67.552185%)" offset="0.167969"/><stop stop-opacity="1" stop-color="rgb(98.719788%, 39.144897%, 67.294312%)" offset="0.179688"/><stop stop-opacity="1" stop-color="rgb(98.739624%, 39.14032%, 67.036438%)" offset="0.191406"/><stop stop-opacity="1" stop-color="rgb(98.757935%, 39.134216%, 66.78009%)" offset="0.203125"/><stop stop-opacity="1" stop-color="rgb(98.776245%, 39.129639%, 66.522217%)" offset="0.214844"/><stop stop-opacity="1" stop-color="rgb(98.794556%, 39.125061%, 66.264343%)" offset="0.226562"/><stop stop-opacity="1" stop-color="rgb(98.812866%, 39.120483%, 66.007996%)" offset="0.238281"/><stop stop-opacity="1" stop-color="rgb(98.831177%, 39.115906%, 65.750122%)" offset="0.25"/><stop stop-opacity="1" stop-color="rgb(98.846436%, 39.112854%, 65.536499%)" offset="0.261719"/><stop stop-opacity="1" stop-color="rgb(98.858643%, 39.109802%, 65.364075%)" offset="0.269531"/><stop stop-opacity="1" stop-color="rgb(98.87085%, 39.10675%, 65.193176%)" offset="0.277344"/><stop stop-opacity="1" stop-color="rgb(98.883057%, 39.103699%, 65.020752%)" offset="0.285156"/><stop stop-opacity="1" stop-color="rgb(98.895264%, 39.100647%, 64.849854%)" offset="0.292969"/><stop stop-opacity="1" stop-color="rgb(98.907471%, 39.097595%, 64.677429%)" offset="0.300781"/><stop stop-opacity="1" stop-color="rgb(98.919678%, 39.094543%, 64.506531%)" offset="0.308594"/><stop stop-opacity="1" stop-color="rgb(98.931885%, 39.091492%, 64.334106%)" offset="0.316406"/><stop stop-opacity="1" stop-color="rgb(98.944092%, 39.08844%, 64.163208%)" offset="0.324219"/><stop stop-opacity="1" stop-color="rgb(98.956299%, 39.085388%, 63.99231%)" offset="0.332031"/><stop stop-opacity="1" stop-color="rgb(98.968506%, 39.082336%, 63.819885%)" offset="0.339844"/><stop stop-opacity="1" stop-color="rgb(98.980713%, 39.079285%, 63.648987%)" offset="0.347656"/><stop stop-opacity="1" stop-color="rgb(98.99292%, 39.074707%, 63.476562%)" offset="0.355469"/><stop stop-opacity="1" stop-color="rgb(99.005127%, 39.071655%, 63.305664%)" offset="0.363281"/><stop stop-opacity="1" stop-color="rgb(99.017334%, 39.068604%, 63.13324%)" offset="0.371094"/><stop stop-opacity="1" stop-color="rgb(99.035645%, 39.064026%, 62.876892%)" offset="0.378906"/><stop stop-opacity="1" stop-color="rgb(99.061584%, 39.057922%, 62.533569%)" offset="0.394531"/><stop stop-opacity="1" stop-color="rgb(99.085999%, 39.051819%, 62.190247%)" offset="0.410156"/><stop stop-opacity="1" stop-color="rgb(99.110413%, 39.045715%, 61.846924%)" offset="0.425781"/><stop stop-opacity="1" stop-color="rgb(99.134827%, 39.039612%, 61.503601%)" offset="0.441406"/><stop stop-opacity="1" stop-color="rgb(99.159241%, 39.033508%, 61.160278%)" offset="0.457031"/><stop stop-opacity="1" stop-color="rgb(99.183655%, 39.027405%, 60.816956%)" offset="0.472656"/><stop stop-opacity="1" stop-color="rgb(99.208069%, 39.021301%, 60.473633%)" offset="0.488281"/><stop stop-opacity="1" stop-color="rgb(99.229431%, 39.015198%, 60.174561%)" offset="0.503906"/><stop stop-opacity="1" stop-color="rgb(99.247742%, 39.01062%, 59.916687%)" offset="0.515625"/><stop stop-opacity="1" stop-color="rgb(99.266052%, 39.004517%, 59.660339%)" offset="0.527344"/><stop stop-opacity="1" stop-color="rgb(99.284363%, 38.999939%, 59.402466%)" offset="0.539062"/><stop stop-opacity="1" stop-color="rgb(99.302673%, 38.995361%, 59.144592%)" offset="0.550781"/><stop stop-opacity="1" stop-color="rgb(99.320984%, 38.990784%, 58.888245%)" offset="0.5625"/><stop stop-opacity="1" stop-color="rgb(99.339294%, 38.986206%, 58.630371%)" offset="0.574219"/><stop stop-opacity="1" stop-color="rgb(99.357605%, 38.981628%, 58.372498%)" offset="0.585938"/><stop stop-opacity="1" stop-color="rgb(99.377441%, 38.977051%, 58.11615%)" offset="0.597656"/><stop stop-opacity="1" stop-color="rgb(99.395752%, 38.972473%, 57.858276%)" offset="0.609375"/><stop stop-opacity="1" stop-color="rgb(99.414062%, 38.967896%, 57.600403%)" offset="0.621094"/><stop stop-opacity="1" stop-color="rgb(99.429321%, 38.964844%, 57.38678%)" offset="0.632812"/><stop stop-opacity="1" stop-color="rgb(99.441528%, 38.961792%, 57.214355%)" offset="0.640625"/><stop stop-opacity="1" stop-color="rgb(99.453735%, 38.95874%, 57.043457%)" offset="0.648438"/><stop stop-opacity="1" stop-color="rgb(99.465942%, 38.955688%, 56.872559%)" offset="0.65625"/><stop stop-opacity="1" stop-color="rgb(99.478149%, 38.952637%, 56.700134%)" offset="0.664062"/><stop stop-opacity="1" stop-color="rgb(99.490356%, 38.949585%, 56.529236%)" offset="0.671875"/><stop stop-opacity="1" stop-color="rgb(99.502563%, 38.945007%, 56.356812%)" offset="0.679688"/><stop stop-opacity="1" stop-color="rgb(99.514771%, 38.941956%, 56.185913%)" offset="0.6875"/><stop stop-opacity="1" stop-color="rgb(99.533081%, 38.937378%, 55.92804%)" offset="0.695312"/><stop stop-opacity="1" stop-color="rgb(99.557495%, 38.931274%, 55.584717%)" offset="0.710938"/><stop stop-opacity="1" stop-color="rgb(99.581909%, 38.925171%, 55.241394%)" offset="0.726562"/><stop stop-opacity="1" stop-color="rgb(99.606323%, 38.919067%, 54.898071%)" offset="0.742188"/><stop stop-opacity="1" stop-color="rgb(99.627686%, 38.912964%, 54.598999%)" offset="0.757812"/><stop stop-opacity="1" stop-color="rgb(99.645996%, 38.908386%, 54.341125%)" offset="0.769531"/><stop stop-opacity="1" stop-color="rgb(99.664307%, 38.903809%, 54.083252%)" offset="0.78125"/><stop stop-opacity="1" stop-color="rgb(99.682617%, 38.899231%, 53.826904%)" offset="0.792969"/><stop stop-opacity="1" stop-color="rgb(99.702454%, 38.894653%, 53.569031%)" offset="0.804688"/><stop stop-opacity="1" stop-color="rgb(99.717712%, 38.891602%, 53.355408%)" offset="0.816406"/><stop stop-opacity="1" stop-color="rgb(99.729919%, 38.88855%, 53.182983%)" offset="0.824219"/><stop stop-opacity="1" stop-color="rgb(99.742126%, 38.885498%, 53.012085%)" offset="0.832031"/><stop stop-opacity="1" stop-color="rgb(99.754333%, 38.882446%, 52.839661%)" offset="0.839844"/><stop stop-opacity="1" stop-color="rgb(99.772644%, 38.876343%, 52.581787%)" offset="0.847656"/><stop stop-opacity="1" stop-color="rgb(99.797058%, 38.870239%, 52.23999%)" offset="0.863281"/><stop stop-opacity="1" stop-color="rgb(99.81842%, 38.864136%, 51.939392%)" offset="0.878906"/><stop stop-opacity="1" stop-color="rgb(99.836731%, 38.859558%, 51.681519%)" offset="0.890625"/><stop stop-opacity="1" stop-color="rgb(99.855042%, 38.85498%, 51.425171%)" offset="0.902344"/><stop stop-opacity="1" stop-color="rgb(99.8703%, 38.851929%, 51.210022%)" offset="0.914062"/><stop stop-opacity="1" stop-color="rgb(99.882507%, 38.848877%, 51.039124%)" offset="0.921875"/><stop stop-opacity="1" stop-color="rgb(99.900818%, 38.844299%, 50.78125%)" offset="0.929688"/><stop stop-opacity="1" stop-color="rgb(99.92218%, 38.838196%, 50.480652%)" offset="0.945312"/><stop stop-opacity="1" stop-color="rgb(99.937439%, 38.835144%, 50.267029%)" offset="0.957031"/><stop stop-opacity="1" stop-color="rgb(99.95575%, 38.830566%, 50.009155%)" offset="0.964844"/><stop stop-opacity="1" stop-color="rgb(99.97406%, 38.825989%, 49.751282%)" offset="0.980469"/><stop stop-opacity="1" stop-color="rgb(99.989319%, 38.821411%, 49.537659%)" offset="0.988281"/><stop stop-opacity="1" stop-color="rgb(100%, 38.819885%, 49.409485%)" offset="1"/></radialGradient><clipPath id="627f137628"><rect x="0" width="61" y="0" height="61"/></clipPath><clipPath id="61f6e62393"><path d="M 10.585938 12.769531 L 50.761719 12.769531 L 50.761719 47.738281 L 10.585938 47.738281 Z M 10.585938 12.769531 " clip-rule="nonzero"/></clipPath></defs><g clip-path="url(#e755c571a4)"><g clip-path="url(#16797b7e4b)"><g transform="matrix(1, 0, 0, 1, -0, 0.000000000000013145)"><g clip-path="url(#627f137628)"><g clip-path="url(#71f3254d52)"><g clip-path="url(#104023d11d)"><path fill="url(#cdda5eea59)" d="M 0 0 L 0 60.742188 L 60.863281 60.742188 L 60.863281 0 Z M 0 0 " fill-rule="nonzero"/></g></g></g></g></g></g><g clip-path="url(#61f6e62393)"><path fill="#fcffff" d="M 50.402344 38.277344 L 50.402344 15.828125 C 50.402344 15.421875 50.328125 15.03125 50.171875 14.65625 C 50.015625 14.285156 49.796875 13.953125 49.507812 13.667969 C 49.222656 13.378906 48.890625 13.160156 48.515625 13.003906 C 48.140625 12.847656 47.753906 12.769531 47.347656 12.769531 L 13.652344 12.769531 C 13.246094 12.769531 12.859375 12.847656 12.484375 13.003906 C 12.109375 13.160156 11.777344 13.378906 11.492188 13.667969 C 11.203125 13.953125 10.984375 14.285156 10.828125 14.65625 C 10.671875 15.03125 10.597656 15.421875 10.597656 15.828125 L 10.597656 38.277344 C 10.597656 38.683594 10.671875 39.074219 10.828125 39.445312 C 10.984375 39.820312 11.203125 40.152344 11.492188 40.4375 C 11.777344 40.726562 12.109375 40.945312 12.484375 41.101562 C 12.859375 41.257812 13.246094 41.335938 13.652344 41.335938 L 26.328125 41.335938 L 26.328125 43.101562 C 26.328125 43.429688 26.265625 43.746094 26.140625 44.046875 C 26.015625 44.347656 25.835938 44.617188 25.605469 44.847656 C 25.375 45.078125 25.109375 45.257812 24.804688 45.382812 C 24.503906 45.507812 24.1875 45.570312 23.863281 45.570312 L 21.101562 45.570312 C 20.78125 45.570312 20.476562 45.632812 20.183594 45.753906 C 19.890625 45.875 19.628906 46.046875 19.40625 46.273438 C 19.179688 46.496094 19.007812 46.757812 18.886719 47.050781 C 18.761719 47.34375 18.703125 47.652344 18.703125 47.96875 L 42.296875 47.96875 C 42.296875 47.652344 42.238281 47.34375 42.113281 47.050781 C 41.992188 46.757812 41.820312 46.496094 41.59375 46.273438 C 41.371094 46.046875 41.109375 45.875 40.816406 45.753906 C 40.523438 45.632812 40.21875 45.570312 39.898438 45.570312 L 37.136719 45.570312 C 36.8125 45.570312 36.496094 45.507812 36.195312 45.382812 C 35.890625 45.257812 35.625 45.078125 35.394531 44.847656 C 35.164062 44.617188 34.984375 44.347656 34.859375 44.046875 C 34.734375 43.746094 34.671875 43.429688 34.671875 43.101562 L 34.671875 41.335938 L 47.347656 41.335938 C 47.753906 41.335938 48.140625 41.257812 48.515625 41.101562 C 48.890625 40.945312 49.222656 40.726562 49.507812 40.4375 C 49.796875 40.152344 50.015625 39.820312 50.171875 39.445312 C 50.328125 39.074219 50.402344 38.683594 50.402344 38.277344 Z M 12.460938 37.148438 L 12.460938 15.960938 C 12.460938 15.789062 12.496094 15.625 12.558594 15.46875 C 12.625 15.3125 12.71875 15.171875 12.839844 15.050781 C 12.957031 14.933594 13.097656 14.839844 13.253906 14.773438 C 13.414062 14.707031 13.578125 14.675781 13.746094 14.675781 L 47.253906 14.675781 C 47.421875 14.675781 47.585938 14.707031 47.746094 14.773438 C 47.902344 14.839844 48.039062 14.933594 48.160156 15.050781 C 48.28125 15.171875 48.375 15.3125 48.441406 15.46875 C 48.503906 15.625 48.539062 15.789062 48.539062 15.960938 L 48.539062 37.148438 C 48.539062 37.320312 48.503906 37.484375 48.441406 37.640625 C 48.375 37.796875 48.28125 37.9375 48.160156 38.058594 C 48.039062 38.175781 47.902344 38.269531 47.746094 38.335938 C 47.585938 38.402344 47.421875 38.433594 47.253906 38.433594 L 13.746094 38.433594 C 13.578125 38.433594 13.414062 38.402344 13.253906 38.335938 C 13.097656 38.269531 12.957031 38.175781 12.839844 38.058594 C 12.71875 37.9375 12.625 37.796875 12.558594 37.640625 C 12.496094 37.484375 12.460938 37.320312 12.460938 37.148438 Z M 12.460938 37.148438 " fill-opacity="1" fill-rule="nonzero"/></g></svg>