<svg xmlns="http://www.w3.org/2000/svg" xmlns:xlink="http://www.w3.org/1999/xlink" width="82" zoomAndPan="magnify" viewBox="0 0 61.5 61.499996" height="82" preserveAspectRatio="xMidYMid meet" version="1.0"><defs><clipPath id="7322b02d9f"><path d="M 13.839844 0 L 47.316406 0 L 47.316406 61.003906 L 13.839844 61.003906 Z M 13.839844 0 " clip-rule="nonzero"/></clipPath><clipPath id="c095b2a4e7"><path d="M 1.097656 0 L 33.925781 0 L 33.925781 61.003906 L 1.097656 61.003906 Z M 1.097656 0 " clip-rule="nonzero"/></clipPath><clipPath id="9174db5f62"><rect x="0" width="35" y="0" height="62"/></clipPath></defs><g clip-path="url(#7322b02d9f)"><g transform="matrix(1, 0, 0, 1, 13, 0.000000000000013145)"><g clip-path="url(#9174db5f62)"><g clip-path="url(#c095b2a4e7)"><path fill="#fcffff" d="M 28.753906 0.855469 C 29.96875 -0.3125 31.902344 -0.28125 33.070312 0.929688 C 34.214844 2.113281 34.214844 3.992188 33.070312 5.171875 L 7.742188 30.503906 L 33.070312 55.832031 C 34.242188 57.046875 34.207031 58.976562 32.996094 60.144531 C 31.816406 61.285156 29.941406 61.292969 28.753906 60.148438 L 2.5 33.890625 C 0.625 32.019531 0.625 28.984375 2.5 27.113281 L 28.753906 0.855469 " fill-opacity="1" fill-rule="nonzero"/></g></g></g></g></svg>