<svg xmlns="http://www.w3.org/2000/svg" xmlns:xlink="http://www.w3.org/1999/xlink" width="82" zoomAndPan="magnify" viewBox="0 0 61.5 61.499996" height="82" preserveAspectRatio="xMidYMid meet" version="1.0"><defs><clipPath id="e14ecfba35"><path d="M 0 0 L 61.003906 0 L 61.003906 61.003906 L 0 61.003906 Z M 0 0 " clip-rule="nonzero"/></clipPath></defs><g clip-path="url(#e14ecfba35)"><path fill="#fcffff" d="M 30.457031 0 C 47.308594 0 61.003906 13.605469 61.003906 30.457031 C 61.003906 47.308594 47.308594 61.003906 30.457031 61.003906 C 13.605469 61.003906 0 47.308594 0 30.457031 C 0 13.605469 13.605469 0 30.457031 0 Z M 27.753906 26.492188 L 34.332031 33.070312 L 47.035156 14.058594 Z M 33.789062 33.789062 L 27.214844 27.214844 L 14.507812 46.226562 Z M 30.457031 2.882812 C 45.777344 2.882812 58.121094 15.226562 58.121094 30.457031 C 58.121094 45.777344 45.777344 58.121094 30.457031 58.121094 C 15.226562 58.121094 2.882812 45.777344 2.882812 30.457031 C 2.882812 15.226562 15.226562 2.882812 30.457031 2.882812 Z M 30.457031 2.882812 " fill-opacity="1" fill-rule="evenodd"/></g></svg>