<svg xmlns="http://www.w3.org/2000/svg" xmlns:xlink="http://www.w3.org/1999/xlink" width="82" zoomAndPan="magnify" viewBox="0 0 61.5 61.499996" height="82" preserveAspectRatio="xMidYMid meet" version="1.0"><defs><clipPath id="2da8d01bee"><path d="M 0 0.332031 L 61 0.332031 L 61 61 L 0 61 Z M 0 0.332031 " clip-rule="nonzero"/></clipPath></defs><g clip-path="url(#2da8d01bee)"><path fill="#fcffff" d="M 57.3125 27.3125 L 33.6875 27.3125 L 33.6875 3.6875 C 33.6875 1.832031 32.191406 0.332031 30.332031 0.332031 C 28.476562 0.332031 26.980469 1.832031 26.980469 3.6875 L 26.980469 27.3125 L 3.355469 27.3125 C 1.496094 27.3125 0 28.8125 0 30.667969 C 0 32.523438 1.496094 34.019531 3.355469 34.019531 L 26.980469 34.019531 L 26.980469 57.644531 C 26.980469 59.503906 28.476562 61 30.332031 61 C 32.191406 61 33.6875 59.503906 33.6875 57.644531 L 33.6875 34.019531 L 57.3125 34.019531 C 59.167969 34.019531 60.667969 32.523438 60.667969 30.667969 C 60.667969 28.8125 59.167969 27.3125 57.3125 27.3125 Z M 57.3125 27.3125 " fill-opacity="1" fill-rule="nonzero"/></g></svg>