<svg xmlns="http://www.w3.org/2000/svg" xmlns:xlink="http://www.w3.org/1999/xlink" width="82" zoomAndPan="magnify" viewBox="0 0 61.5 61.499996" height="82" preserveAspectRatio="xMidYMid meet" version="1.0"><defs><filter x="0%" y="0%" width="100%" height="100%" id="124feca938"><feColorMatrix values="0 0 0 0 1 0 0 0 0 1 0 0 0 0 1 0 0 0 1 0" color-interpolation-filters="sRGB"/></filter><clipPath id="0504387968"><path d="M 0 4.382812 L 61.003906 4.382812 L 61.003906 56.457031 L 0 56.457031 Z M 0 4.382812 " clip-rule="nonzero"/></clipPath><mask id="d3f30097b1"><g filter="url(#124feca938)"><rect x="-6.15" width="73.8" fill="#000000" y="-6.15" height="73.799995" fill-opacity="0.9"/></g></mask><clipPath id="e10a432a30"><path d="M 0 0.382812 L 61 0.382812 L 61 52.457031 L 0 52.457031 Z M 0 0.382812 " clip-rule="nonzero"/></clipPath><clipPath id="e716dcf919"><rect x="0" width="62" y="0" height="53"/></clipPath></defs><g clip-path="url(#0504387968)"><g mask="url(#d3f30097b1)"><g transform="matrix(1, 0, 0, 1, -0, 4)"><g clip-path="url(#e716dcf919)"><g clip-path="url(#e10a432a30)"><path fill="#fcffff" d="M 34.839844 0.382812 C 20.402344 0.382812 8.734375 12.078125 8.734375 26.5 L 0.0273438 26.5 L 11.332031 37.804688 L 11.535156 38.226562 L 23.246094 26.5 L 14.539062 26.5 C 14.539062 15.285156 23.636719 6.1875 34.855469 6.1875 C 46.070312 6.1875 55.171875 15.285156 55.171875 26.5 C 55.171875 37.71875 46.070312 46.816406 34.855469 46.816406 C 29.238281 46.816406 24.175781 44.523438 20.503906 40.851562 L 16.398438 44.957031 C 21.113281 49.6875 27.628906 52.621094 34.839844 52.621094 C 49.277344 52.621094 60.976562 40.925781 60.976562 26.5 C 60.976562 12.078125 49.277344 0.382812 34.839844 0.382812 Z M 31.953125 14.890625 L 31.953125 29.402344 L 44.375 36.773438 L 46.464844 33.25 L 36.304688 27.226562 L 36.304688 14.890625 Z M 31.953125 14.890625 " fill-opacity="1" fill-rule="nonzero"/></g></g></g></g></g></svg>